/* XPM */
static char * bottomwall_xpm[] = {
"96 8 59 1",
" 	c None",
".	c #4F2913",
"+	c #6A635A",
"@	c #6A6359",
"#	c #6A6259",
"$	c #696259",
"%	c #7A756C",
"&	c #655D51",
"*	c #61584C",
"=	c #7C776F",
"-	c #686258",
";	c #686158",
">	c #686257",
",	c #696258",
"'	c #696158",
")	c #686159",
"!	c #68625A",
"~	c #827E76",
"{	c #6A6357",
"]	c #777366",
"^	c #716C62",
"/	c #522E19",
"(	c #78746B",
"_	c #7D7870",
":	c #655C50",
"<	c #5D5346",
"[	c #7F7B72",
"}	c #676159",
"|	c #686259",
"1	c #817D74",
"2	c #837F76",
"3	c #827E75",
"4	c #736E64",
"5	c #55341F",
"6	c #6B6458",
"7	c #7A766C",
"8	c #94928B",
"9	c #6F685E",
"0	c #5A3D29",
"a	c #53311B",
"b	c #6D675B",
"c	c #868579",
"d	c #8E8C83",
"e	c #8D8B82",
"f	c #8C8A80",
"g	c #8C8B80",
"h	c #5C402C",
"i	c #8D8C82",
"j	c #8E8D84",
"k	c #6C665A",
"l	c #6C6559",
"m	c #918F87",
"n	c #6D665A",
"o	c #66513F",
"p	c #8F8D84",
"q	c #8F8E85",
"r	c #908E85",
"s	c #675240",
"t	c #5A3B27",
"............... ..............................   ..............................  ...............",
"++@#$$$%&*=---;.;-->-----,'-)))!++@#$$$$$,,~{]. .^->-----,'-)))!++@#$$$$$,,---;./*(>>>---,'-)))!",
"++@$$_~:<[,----.>>>>>>>---'-)})|++@$$$$123~{]]].**4>>>>---'-)})|++@$$$$$,,,----56**7>>>---'-)})|",
"888889<<<888888088888888888888888888888{{{{]]]]0***8888888888888888888888888888ab6**888888888888",
"ccccd*efgcccccchccccccccccccccccccccccciidjjj{{h*88ccccccccccccccccccccccccccccaklmmcccccccccccc",
"cccdnccccccccccocccccccccccccccccccccccccccccjpo8ccccccccccccccccccccccccccccccoqrcccccccccccccc",
"ccdncccccccccccscccccccccccccccccccccccccccccccscccccccccccccccccccccccccccccccscccccccccccccccc",
"tttttttttttttttstttttttttttttttttttttttttttttttstttttttttttttttttttttttttttttttstttttttttttttttt"};
