/* XPM */
static char *_2b92950a68e41a6c2e57f10605943aaOwXL7j6zNhjiOkxb[] = {
/* columns rows colors chars-per-pixel */
"32 32 172 2 ",
"   c #8B9150",
".  c #8A9150",
"X  c #899050",
"o  c #8A9050",
"O  c #889051",
"+  c #889050",
"@  c #D5AB00",
"#  c #C09000",
"$  c #828D51",
"%  c #7B8A52",
"&  c #818C51",
"*  c #6B8553",
"=  c #718752",
"-  c #6C8553",
";  c #658254",
":  c #688354",
">  c #7D8B51",
",  c #BF8E00",
"<  c #D8AE00",
"1  c #DEB600",
"2  c #7E8B52",
"3  c #557D55",
"4  c #608054",
"5  c #597E55",
"6  c #778952",
"7  c #7C8B52",
"8  c #818D51",
"9  c #838E51",
"0  c #6E8653",
"q  c #7A8A52",
"w  c #7D8B52",
"e  c #848E51",
"r  c #7C8B51",
"t  c #738852",
"y  c #708753",
"u  c #A87000",
"i  c #788952",
"p  c #858F51",
"a  c #352746",
"s  c #D8B301",
"d  c #868F51",
"f  c #808D51",
"g  c #678354",
"h  c #5C7F54",
"j  c #F9C701",
"k  c #755D00",
"l  c #543C73",
"z  c #6B5185",
"x  c #513874",
"c  c #010100",
"v  c #A37B00",
"b  c #C99201",
"n  c #C69600",
"m  c #7F8C51",
"M  c #A76F00",
"N  c #688454",
"B  c #748852",
"V  c #4F3E05",
"C  c #4A3247",
"Z  c #61448D",
"A  c #9C76CF",
"S  c #9F85BF",
"D  c #946EC6",
"F  c #75579D",
"G  c #412A0D",
"H  c #493D18",
"J  c #6F58A8",
"K  c #956DD3",
"L  c #AA85D9",
"P  c #A07BCC",
"I  c #B593DE",
"U  c #BFA1E4",
"Y  c #A186CD",
"T  c #8C66C9",
"R  c #7761B2",
"E  c #4C3900",
"W  c #878F50",
"Q  c #4E3600",
"!  c #563B98",
"~  c #CBA6F2",
"^  c #C1A2E8",
"/  c #B695E0",
"(  c #B899DF",
")  c #C5A2EE",
"_  c #6748A7",
"`  c #543E10",
"'  c #728753",
"]  c #382A48",
"[  c #9372BF",
"{  c #CEB1E9",
"}  c #B0ACB4",
"|  c #BFA4E2",
" . c #AF8CDD",
".. c #B4AEB8",
"X. c #C7ADE6",
"o. c #AD89E1",
"O. c #40285D",
"+. c #826000",
"@. c #554673",
"#. c #BD94EA",
"$. c #CEC7EE",
"%. c #B6B5B6",
"&. c #EAD7F1",
"*. c #B992DF",
"=. c #E6D2EC",
"-. c #BDC0BD",
";. c #CEC3F0",
":. c #A281C7",
">. c #1D1331",
",. c #332343",
"<. c #95549C",
"1. c #CAB6EF",
"2. c #8C77DF",
"3. c #8367CF",
"4. c #9281E6",
"5. c #8762C5",
"6. c #3F295D",
"7. c #513C66",
"8. c #B99FFD",
"9. c #A83E57",
"0. c #AE2B23",
"q. c #AA3A35",
"w. c #AD3C36",
"e. c #A93D3B",
"r. c #B22D1F",
"t. c #942E5C",
"y. c #684CB6",
"u. c #100925",
"i. c #866B0B",
"p. c #3E2472",
"a. c #A37CE0",
"s. c #BA3643",
"d. c #E8450B",
"f. c #F0763D",
"g. c #E64013",
"h. c #BB3D56",
"j. c #9C76DC",
"k. c #391F69",
"l. c #816600",
"z. c #B07B00",
"x. c #34262B",
"c. c #533599",
"v. c #7556A8",
"b. c #A45572",
"n. c #C36966",
"m. c #A35574",
"M. c #6E51A2",
"N. c #4D2E99",
"B. c #251410",
"V. c #C28B01",
"C. c #160D1D",
"Z. c #030015",
"A. c #464237",
"S. c #796428",
"D. c #000018",
"F. c #0C0216",
"G. c #768852",
"H. c #808C51",
"J. c #708653",
"K. c #768952",
"L. c #888F51",
"P. c #879050",
"I. c #7E8C51",
"U. c #6E8553",
"Y. c #788A52",
"T. c #5C7F55",
"R. c #587E55",
"E. c #628154",
"W. c #718753",
"Q. c #728752",
"!. c #868F50",
"~. c #798A52",
/* pixels */
"                                                                ",
"                                                                ",
"                                          . X o O O O +         ",
"                  @                   #   $ % & * * * =         ",
"        - ; : > + ,                   < 1 $ $ 2 3 3 3 4         ",
"        4 3 5 6 7 8                   9 0 0 q w 3 3 3 4         ",
"        4 3 5 6 8 e                   r 3 3 - q 3 3 3 4         ",
"        t 0 y u % i p         a       s 3 3 - 2 0 0 0 t         ",
"        d i y f g h > j k   l z x c v b n 6 m $ M 0 i d         ",
"        9 N 5 6 B 0 $ V C Z A S D F C G   d $ 2 3 3 N 9         ",
"        d i y f . X H J K L P I U Y T R E e 2 w 3 3 N 9         ",
"        . W d X     Q ! ~ ^ / ( I ) ) _ ` X + $ ; ; ' p         ",
"                    ] [ { } |  .| ..X.o.O.                      ",
"                  +.@.#.$.%.&.*.=.-.;.:.>.                      ",
"                    ,.Y <.1.2.3.4.X.<.5.6.                      ",
"                    7.8.9.0.q.w.e.r.t.y.u.                      ",
"                    i.p.a.s.d.f.g.h.j.k.l.                      ",
"                    z.x.c.v.b.n.m.M.N.B.V.                      ",
"                        C.Z.A.S.A.D.F.                          ",
"              1                                                 ",
"        p ' ; ; 9                         X d W m G.+           ",
"      . $ N 3 3 H..     c c c c c c c c   9 J.K.$ 7 L.o         ",
"    P.B I.N 3 3 w % $ c c c c c c c c c c r 5 ; m U.* =         ",
"    + Y.$ i 0 0 8 2 e   c c c c c c c c   9 J.K.i T.R.E.        ",
"        t W.e q 0 0 0 w     c c c c   9 0 0 0 K.i T.R.E.        ",
"        4 h > - 3 3 3 Q.              r 3 3 3 ; m U.* =         ",
"        t W.$ - 3 3 3 Q.              r 3 3 3 ; $ 7 L.o         ",
"        !.d W - 3 3 3 Q.              r 3 3 3 ; m G.+           ",
"            . ~.* * * r               $ * * * B                 ",
"              X O O O X               . O O O X                 ",
"                                                                ",
"                                                                "
};
