/* XPM */
static char * frame_7_xpm[] = {
"32 32 12 1",
" 	c #8B9150",
".	c #DFB700",
"+	c #557D55",
"@	c #A76F00",
"#	c #000000",
"$	c #8F67BF",
"%	c #B797DF",
"&	c #572F9F",
"*	c #FFFFFF",
"=	c #9F0000",
"-	c #FF875F",
";	c #D73F00",
"                                ",
"                                ",
"                                ",
"       ..             ..        ",
"       ..             ..++++    ",
"     +..@.           ....+++    ",
"     +...@          +..@.+++    ",
"     ++.@@    ###   +@@.@+++    ",
"         ++  #$%$#  ++@@        ",
"      ++ ++##&%#$&##    +++     ",
"      .@ ##$%$%%%$%$##+ .@+     ",
"      @@#%$&%%$%%%$&$%# @@+     ",
"        #$%%%%%%%%%%%$#         ",
"        #&%%%%%%%%%%%&#         ",
"     .@ #%%%*%%%%%*%%%$#        ",
"     @@#%%%*#*%%%*#*%%&#        ",
"       #$%%***%%%***%%#         ",
"        #%$&%%%%%%%&$%$#        ",
"       #$%%=*&&&&&*=%&&#        ",
"       #%$%%=-----=%&$#         ",
"     ..+#&$%%=;;;=%$$&# ..@     ",
"    ..@.+#&&$%$$$%$&&#+..@.     ",
"    ....+#$&&@...@&$&#+@@.@+    ",
"    @@.@  ####&$&####   @@++    ",
"     @@ ++++  ###   ++++ +++    ",
"     ++ ++++        ++++        ",
"        ++++ ###### ++++ +      ",
"        ++############++        ",
"         ##############         ",
"         ##############         ",
"          ############          ",
"             ######             "};
