/* XPM */
static char *_acaa47d52cb4628dcff03893828a978tlhycHS3Afewvd2v[] = {
/* columns rows colors chars-per-pixel */
"32 32 171 2 ",
"   c #8B9150",
".  c #8A9150",
"X  c #899050",
"o  c #8A9050",
"O  c #889051",
"+  c #889050",
"@  c #828D51",
"#  c #7B8A52",
"$  c #818C51",
"%  c #6B8553",
"&  c #718752",
"*  c #6C8553",
"=  c #658254",
"-  c #688354",
";  c #7D8B51",
":  c #858F51",
">  c #7E8B52",
",  c #557D55",
"<  c #608054",
"1  c #597E55",
"2  c #778952",
"3  c #7C8B52",
"4  c #818D51",
"5  c #838E51",
"6  c #6E8653",
"7  c #7A8A52",
"8  c #7D8B52",
"9  c #848E51",
"0  c #D6AC00",
"q  c #7C8B51",
"w  c #E0B800",
"e  c #738852",
"r  c #708753",
"t  c #808D51",
"y  c #E3BC00",
"u  c #CEA100",
"i  c #B78300",
"p  c #D3A700",
"a  c #D0A400",
"s  c #868F51",
"d  c #788952",
"f  c #678354",
"g  c #5C7F54",
"h  c #C59700",
"j  c #23192C",
"k  c #54416C",
"l  c #201926",
"z  c #AF7604",
"x  c #B17D00",
"c  c #7F8C51",
"v  c #688454",
"b  c #748852",
"n  c #180F2A",
"m  c #71539E",
"M  c #7D6697",
"N  c #5C3B8B",
"B  c #251937",
"V  c #C49100",
"C  c #7F5610",
"Z  c #2E2A4E",
"A  c #573A79",
"S  c #9B7BC7",
"D  c #A782D6",
"F  c #AD8FD2",
"G  c #AD89D9",
"H  c #936EC3",
"J  c #4D3470",
"K  c #392F46",
"L  c #CC9901",
"P  c #A77100",
"I  c #878F50",
"U  c #302011",
"Y  c #8164AE",
"T  c #B289E6",
"R  c #B291DD",
"E  c #B291DA",
"W  c #BFA0E4",
"Q  c #AE87E2",
"!  c #8162A6",
"~  c black",
"^  c #728753",
"/  c #644989",
"(  c #C8A4F5",
")  c #C3A9E3",
"_  c #B593DF",
"`  c #B99AE0",
"'  c #C8ADEA",
"]  c #BF9EE8",
"[  c #7958AA",
"{  c #2B1F3A",
"}  c #CD9705",
"|  c #895C00",
" . c #4D4173",
".. c #BD99E7",
"X. c #D9C6EA",
"o. c #A6AA9E",
"O. c #CFBBE8",
"+. c #AE88DC",
"@. c #CBB8E4",
"#. c #ACB1A4",
"$. c #D7C3E4",
"%. c #B38EE3",
"&. c #352057",
"*. c #47385C",
"=. c #A883D1",
"-. c #B6A6E2",
";. c #C5BFD9",
":. c #D9C7F3",
">. c #B290E2",
",. c #C9C5E0",
"<. c #B6A2E0",
"1. c #A483C8",
"2. c #271C36",
"3. c #443051",
"4. c #B39AE9",
"5. c #97427B",
"6. c #C291B6",
"7. c #7E5CBA",
"8. c #7D55AF",
"9. c #8365C3",
"0. c #C088AE",
"q. c #974883",
"w. c #8765CE",
"e. c #3B235E",
"r. c #3C2E63",
"t. c #9973CC",
"y. c #B590D3",
"u. c #B74E5A",
"i. c #D44B35",
"p. c #E66344",
"a. c #B9515E",
"s. c #5E3C94",
"d. c #060606",
"f. c #E0AF04",
"g. c #200F48",
"h. c #815ACB",
"j. c #A67AD7",
"k. c #BD646A",
"l. c #BF676D",
"z. c #7B52C9",
"x. c #E5BA02",
"c. c #C29300",
"v. c #C99C00",
"b. c #DDAC02",
"n. c #3E2569",
"m. c #3A1F51",
"M. c #866F41",
"N. c #BD9E74",
"B. c #412952",
"V. c #00000F",
"C. c #AE7901",
"Z. c #BC8A00",
"A. c #A46B00",
"S. c #15001C",
"D. c #110019",
"F. c #768852",
"G. c #808C51",
"H. c #708653",
"J. c #768952",
"K. c #888F51",
"L. c #879050",
"P. c #7E8C51",
"I. c #6E8553",
"U. c #788A52",
"Y. c #5C7F55",
"T. c #587E55",
"R. c #628154",
"E. c #718753",
"W. c #728752",
"Q. c #868F50",
"!. c #798A52",
/* pixels */
"                                                                ",
"                                                                ",
"                                          . X o O O O +         ",
"                                          @ # $ % % % &         ",
"        * = - ; + X                   X : @ @ > , , , <         ",
"        < , 1 2 3 4                   5 6 6 7 8 , , , <         ",
"        < , 1 2 4 9 0                 q w , * 7 , , , <         ",
"        e 6 r t # y u i               0 p a * > 6 6 6 e         ",
"        s d r t f g h .     j k l     z x i c @ 6 6 d s         ",
"        5 v 1 2 b 6 @     n m M N B       s @ > , , v 5         ",
"        s d r t . V C Z A S D F G H J K   L P 8 , , v 5         ",
"        . I s X     U Y T R E E W D Q ! ~ X + @ = = ^ :         ",
"                      / ( ) _ ` R ' ] [ {                       ",
"                } |  ...X.o.O.+.@.#.$.%.&.                      ",
"                    *.=.-.;.:.>.:.,.<.1.2.                      ",
"                    3.4.5.6.7.8.9.0.q.w.e.                      ",
"                    r.t.y.u.i.p.i.a.Y s.d.                      ",
"                w f.  g.h.j.k.a.l.j.z.g.  x.c.                  ",
"                v.a b.  n.m.M.N.M.B.J V.  C.Z.                  ",
"                A.i         S.Z D.                              ",
"        : ^ = = 5                         X s I c F.+           ",
"      . @ v , , G..     ~ ~ ~ ~ ~ ~ ~ ~   5 H.J.@ 3 K.o         ",
"    L.b P.v , , 8 # @ ~ ~ ~ ~ ~ ~ ~ ~ ~ ~ q 1 = c I.% &         ",
"    + U.@ d 6 6 4 > 9   ~ ~ ~ ~ ~ ~ ~ ~   5 H.J.d Y.T.R.        ",
"        e E.9 7 6 6 6 8     ~ ~ ~ ~   5 6 6 6 J.d Y.T.R.        ",
"        < g ; * , , , W.              q , , , = c I.% &         ",
"        e E.@ * , , , W.              q , , , = @ 3 K.o         ",
"        Q.s I * , , , W.              q , , , = c F.+           ",
"            . !.% % % q               @ % % % b                 ",
"              X O O O X               . O O O X                 ",
"                                                                ",
"                                                                "
};
