/* XPM */
static char *result[] = {
/* columns rows colors chars-per-pixel */
"32 32 172 2 ",
"   c #8B9150",
".  c #8A9150",
"X  c #899050",
"o  c #8A9050",
"O  c #889051",
"+  c #889050",
"@  c #828D51",
"#  c #7B8A52",
"$  c #818C51",
"%  c #6B8553",
"&  c #718752",
"*  c #6C8553",
"=  c #658254",
"-  c #688354",
";  c #7D8B51",
":  c #858F51",
">  c #7E8B52",
",  c #557D55",
"<  c #608054",
"1  c #597E55",
"2  c #778952",
"3  c #7C8B52",
"4  c #DFB700",
"5  c #E4BD00",
"6  c #E2BB00",
"7  c #6E8653",
"8  c #7A8A52",
"9  c #7D8B52",
"0  c #BA8800",
"q  c #D2A600",
"w  c #D8AF00",
"e  c #738852",
"r  c #708753",
"t  c #808D51",
"y  c #A97100",
"u  c #B68200",
"i  c #7C8B51",
"p  c #AD7600",
"a  c #868F51",
"s  c #788952",
"d  c #678354",
"f  c #5C7F54",
"g  c #858E51",
"h  c #7F8C51",
"j  c #838E51",
"k  c #688454",
"l  c #748852",
"z  c #493B5C",
"x  c #62497E",
"c  c #2A1A43",
"v  c #AD7300",
"b  c #C99B00",
"n  c #271D31",
"m  c #453460",
"M  c #8E6BC0",
"N  c #866F9F",
"B  c #7751AB",
"V  c #422C64",
"C  c #553A14",
"Z  c #6D4603",
"A  c #848E51",
"S  c #878F50",
"D  c #5E4C6F",
"F  c #7450A8",
"G  c #B38FE2",
"H  c #A985D3",
"J  c #AA85D8",
"K  c #B798DF",
"L  c #986DCF",
"P  c #6646A4",
"I  c #5A4B78",
"U  c #A36C00",
"Y  c #728753",
"T  c #030008",
"R  c #7858A2",
"E  c #C59FF6",
"W  c #B493DD",
"Q  c #AE8DD6",
"!  c #B99AE0",
"~  c #B695E1",
"^  c black",
"/  c #D2A900",
"(  c #232025",
")  c #795F9F",
"_  c #C6A5EF",
"`  c #B9A8CD",
"'  c #BCAAD3",
"]  c #BD9FE0",
"[  c #845EBA",
"{  c #3B2855",
"}  c #BF8F01",
"|  c #5D4B71",
" . c #C8A0F8",
".. c #DDD3EF",
"X. c #ADB5A4",
"o. c #DECDEE",
"O. c #B68DD9",
"+. c #DAC9E9",
"@. c #B5BFAB",
"#. c #A985D4",
"$. c #231440",
"%. c #352742",
"&. c #997AC2",
"*. c #9B72BE",
"=. c #C8B3E2",
"-. c #BCACF0",
";. c #A388E0",
":. c #C8B2E2",
">. c #A383CF",
",. c #3A294E",
"<. c #493561",
"1. c #AF8FF0",
"2. c #AA5D89",
"3. c #BD8DB2",
"4. c #731F68",
"5. c #87326D",
"6. c #762870",
"7. c #BD86A7",
"8. c #A25890",
"9. c #724FBC",
"0. c #29154E",
"q. c #44354A",
"w. c #714C9C",
"e. c #A88DE7",
"r. c #BA6073",
"t. c #BE6442",
"y. c #B78EDB",
"u. c #8A6AD1",
"i. c #54327A",
"p. c #211600",
"a. c #2E1C31",
"s. c #6D42B8",
"d. c #916ABF",
"f. c #B89F8F",
"g. c #B69B74",
"h. c #BCA391",
"j. c #7F59B2",
"k. c #693CB5",
"l. c #2F1F2C",
"z. c #C39300",
"x. c #312446",
"c. c #221121",
"v. c #6B4111",
"b. c #A56D4B",
"n. c #1D0C1F",
"m. c #271A41",
"M. c #BC8A00",
"N. c #A26900",
"B. c #AF7A00",
"V. c #070400",
"C. c #190F00",
"Z. c #B98600",
"A. c #C69700",
"S. c #768852",
"D. c #808C51",
"F. c #030205",
"G. c #020104",
"H. c #708653",
"J. c #768952",
"K. c #888F51",
"L. c #879050",
"P. c #7E8C51",
"I. c #6E8553",
"U. c #788A52",
"Y. c #818D51",
"T. c #5C7F55",
"R. c #587E55",
"E. c #628154",
"W. c #718753",
"Q. c #728752",
"!. c #868F50",
"~. c #798A52",
/* pixels */
"                                                                ",
"                                                                ",
"                                          . X o O O O +         ",
"                                          @ # $ % % % &         ",
"        * = - ; + X                   X : @ @ > , , , <         ",
"        < , 1 2 3 4 5                 4 6 7 8 9 , , , <         ",
"        < , 1 2 4 0 q                 6 w , * 8 , , , <         ",
"        e 7 r t # y u                 i p 0 * > 7 7 7 e         ",
"        a s r t d f ; .               g 2 2 h @ 7 7 s a         ",
"        j k 1 2 l 7 @       z x c   v     a @ > , , k j         ",
"        a s r t b X     n m M N B V C Z   A y 9 , , k j         ",
"        . S a X       D F G H J K L P I   X U @ = = Y :         ",
"                    T R E K W Q ! ~ E R ^                       ",
"              /     ( ) _ ` ! ! K ' ] [ {                       ",
"              }     |  ...X.o.O.+.@.o.#.$.                      ",
"                    %.&.*.=.-.;.-.:.&.>.,.                      ",
"                    <.1.2.3.4.5.6.7.8.9.0.                      ",
"                    q.w.e.O.r.t.r.y.u.i.p.                      ",
"                      a.s.d.f.g.h.j.k.l.                        ",
"              z.w       x.c.v.b.v.n.m.        M.                ",
"        : Y = N.B.          V.C.V.        B.Z.A.h S.+           ",
"      . @ k , , D..     F.F.^ ^ ^ G.G.^   j H.J.@ 3 K.o         ",
"    L.l P.k , , 9 # @ ^ ^ ^ ^ ^ ^ ^ ^ ^ ^ i 1 = h I.% &         ",
"    + U.@ s 7 7 Y.> A   ^ ^ ^ ^ ^ ^ ^ ^   j H.J.s T.R.E.        ",
"        e W.A 8 7 7 7 9     ^ ^ ^ ^   j 7 7 7 J.s T.R.E.        ",
"        < f ; * , , , Q.              i , , , = h I.% &         ",
"        e W.@ * , , , Q.              i , , , = @ 3 K.o         ",
"        !.a S * , , , Q.              i , , , = h S.+           ",
"            . ~.% % % i               @ % % % l                 ",
"              X O O O X               . O O O X                 ",
"                                                                ",
"                                                                "
};
