/* XPM */
static char *_752e8b77fe246ebf15cb2d4561e0a6atDrvkWLUMGqvrypH[] = {
/* columns rows colors chars-per-pixel */
"32 32 171 2 ",
"   c #8B9150",
".  c #8A9150",
"X  c #899050",
"o  c #8A9050",
"O  c #889051",
"+  c #889050",
"@  c #828D51",
"#  c #7B8A52",
"$  c #818C51",
"%  c #6B8553",
"&  c #718752",
"*  c #6C8553",
"=  c #658254",
"-  c #688354",
";  c #7D8B51",
":  c #858F51",
">  c #7E8B52",
",  c #557D55",
"<  c #608054",
"1  c #597E55",
"2  c #778952",
"3  c #7C8B52",
"4  c #C99A00",
"5  c #DEB600",
"6  c #E1BA00",
"7  c #6E8653",
"8  c #7A8A52",
"9  c #7D8B52",
"0  c #818D51",
"q  c #AC7500",
"w  c #BD8B00",
"e  c #7C8B51",
"r  c #BA8800",
"t  c #C49400",
"y  c #E7C100",
"u  c #738852",
"i  c #708753",
"p  c #808D51",
"a  c #788952",
"s  c #9D6200",
"d  c #868F51",
"f  c #678354",
"g  c #5C7F54",
"h  c #312A38",
"j  c #4D3864",
"k  c #181123",
"l  c #858E51",
"z  c #7F8C51",
"x  c #838E51",
"c  c #688454",
"v  c #D6AB00",
"b  c #18102A",
"n  c #785BA3",
"m  c #7B6394",
"M  c #5B3A8B",
"N  c #251732",
"B  c #6F4C00",
"V  c #986200",
"C  c #3A3042",
"Z  c #55397C",
"A  c #9C7BC7",
"S  c #A57FD4",
"D  c #A485CB",
"F  c #AB87D7",
"G  c #845DBA",
"H  c #4B3170",
"J  c #473840",
"K  c #848E51",
"L  c #A56E00",
"P  c #878F50",
"I  c #0F0B15",
"U  c #8264A7",
"Y  c #B189E8",
"T  c #B292DD",
"R  c #B190DA",
"E  c #A784D4",
"W  c #BF9FE7",
"Q  c #A884D6",
"!  c #AD87E5",
"~  c #8265AB",
"^  c black",
"/  c #728753",
"(  c #644A8C",
")  c #C8A4F5",
"_  c #C3A9E3",
"`  c #B594DF",
"'  c #BC9DE3",
"]  c #B492DD",
"[  c #C7ACE9",
"{  c #6E4BA2",
"}  c #2B1E3A",
"|  c #C69800",
" . c #574768",
".. c #BC98E8",
"X. c #D9C6EA",
"o. c #A6AA9E",
"O. c #CFBAE8",
"+. c #AD87DB",
"@. c #CBB7E4",
"#. c #ACB1A4",
"$. c #D8C4E5",
"%. c #A781DA",
"&. c #341F56",
"*. c #47385A",
"=. c #AA86D2",
"-. c #B6A5E2",
";. c #C5BDD7",
":. c #DCCBF7",
">. c #B393E6",
",. c #DBCBF6",
"<. c #C9C3DD",
"1. c #B5A1E0",
"2. c #271C36",
"3. c #3F2B50",
"4. c #A286DB",
"5. c #98447D",
"6. c #C197C2",
"7. c #7746A3",
"8. c #7E4A9D",
"9. c #7C51AC",
"0. c #BE8DB7",
"q. c #984B86",
"w. c #8664CD",
"e. c #3C245E",
"r. c #4A3A62",
"t. c #976FD0",
"y. c #B793D4",
"u. c #B789C1",
"i. c #A33049",
"p. c #B6453C",
"a. c #A2314A",
"s. c #9971C5",
"d. c #5C3891",
"f. c #0B0705",
"g. c #371F44",
"h. c #7F56D1",
"j. c #C6A9B0",
"k. c #B49666",
"l. c #A079DF",
"z. c #774AC7",
"x. c #3A2442",
"c. c #614100",
"v. c #CDA000",
"b. c #2E2228",
"n. c #483073",
"m. c #43264C",
"M. c #855C2B",
"N. c #B88466",
"B. c #341B46",
"V. c #231A17",
"C. c #BE8C00",
"Z. c #201202",
"A. c #40270D",
"S. c #C59500",
"D. c #768852",
"F. c #808C51",
"G. c #708653",
"H. c #768952",
"J. c #888F51",
"K. c #879050",
"L. c #748852",
"P. c #7E8C51",
"I. c #6E8553",
"U. c #788A52",
"Y. c #5C7F55",
"T. c #587E55",
"R. c #628154",
"E. c #718753",
"W. c #728752",
"Q. c #868F50",
"!. c #798A52",
/* pixels */
"                                                                ",
"                                                                ",
"                                          . X o O O O +         ",
"                                          @ # $ % % % &         ",
"        * = - ; + X                   X : @ @ > , , , <         ",
"        < , 1 2 3 4 5                 6 6 7 8 9 , , , <         ",
"        < , 1 2 0 q w                 e r t y 8 , , , <         ",
"        u 7 i p # a :                 e s q * > 7 7 7 u         ",
"        d a i p f g ; .     h j k     l 2 2 z @ 7 7 a d         ",
"        x c 1 2 v 7 @     b n m M N B V   d @ > , , c x         ",
"        d a i p . X   C Z A S D F G H J   K L 9 , , c x         ",
"        . P d X     I U Y T R E W Q ! ~ ^ X + @ = = / :         ",
"                      ( ) _ ` ' ] [ W { }                       ",
"              |      ...X.o.O.+.@.#.$.%.&.                      ",
"                    *.=.-.;.:.>.,.<.1.D 2.                      ",
"                    3.4.5.6.7.8.9.0.q.w.e.                      ",
"                    r.t.y.u.i.p.a.0.s.d.f.                      ",
"                      g.h.! j.k.j.l.z.x.c.                      ",
"              v.y     b.n.m.M.N.M.B.n.V.                        ",
"              q C.          Z.A.Z.          S.S.                ",
"        : / = = x                         X q P z D.+           ",
"      . @ c , , F..     ^ ^ ^ ^ ^ ^ ^ ^   x G.H.@ 3 J.o         ",
"    K.L.P.c , , 9 # @ ^ ^ ^ ^ ^ ^ ^ ^ ^ ^ e 1 = z I.% &         ",
"    + U.@ a 7 7 0 > K   ^ ^ ^ ^ ^ ^ ^ ^   x G.H.a Y.T.R.        ",
"        u E.K 8 7 7 7 9     ^ ^ ^ ^   x 7 7 7 H.a Y.T.R.        ",
"        < g ; * , , , W.              e , , , = z I.% &         ",
"        u E.@ * , , , W.              e , , , = @ 3 J.o         ",
"        Q.d P * , , , W.              e , , , = z D.+           ",
"            . !.% % % e               @ % % % L.                ",
"              X O O O X               . O O O X                 ",
"                                                                ",
"                                                                "
};
