/* XPM */
static char * frame_9_xpm[] = {
"32 32 11 1",
" 	c #8B9150",
".	c #DFB700",
"+	c #A76F00",
"@	c #557D55",
"#	c #000000",
"$	c #B797DF",
"%	c #8F67BF",
"&	c #572F9F",
"*	c #FFFFFF",
"=	c #9F0000",
"-	c #D73F00",
"                                ",
"                                ",
"      ..             ..         ",
"      ..             ..         ",
"     .+.             ...@@@@    ",
"     .++.             .+..@@    ",
"     @@+ @          @@+++.@@    ",
"     @@@            @@@+@@@@    ",
"         @@   ###   @@@         ",
"      .@ @@  #$%%# ++   @@@     ",
"     .@@   ##&$#%&##++@ @@+     ",
"     +   ##%$%$$$%%%##  @++     ",
"        #$%&$$%%$$%&%$#  +      ",
"        #%$$$$$$$$$$$%#         ",
"        #&$$$$$$$$$$$&#         ",
"   .    #$$$*$$$$$*$$%%#        ",
"   +.  #$$$*#*$$$*#*$$&#        ",
"       #%$$***$$$***$$#         ",
"        #$%&$$$$$$$&%$%#        ",
"       #%%$=*&&&&&*=$&&#        ",
"      @#$%$$$=---=$$&%#  @      ",
"      @@#&%$$$%%%$$%%&#@        ",
"    @ @@+#&&%$...$%&&#+@ @@@    ",
"  +..    #%%&+%%%+&&%#   @@@    ",
"   +..@ @@####+++####@@@ @.++   ",
"   +++@ @@@@  ###   @@@@+.+.    ",
"        @@@@ ###### @@@@+++     ",
"        @@############@@        ",
"         ##############         ",
"         ##############         ",
"          ############          ",
"             ######             "};
