/* XPM */
static char *_ecae25e51014a288509cf9c1c0960d5GrISWUlvytPmi4dL[] = {
/* columns rows colors chars-per-pixel */
"32 32 173 2 ",
"   c #8B9150",
".  c #8A9150",
"X  c #899050",
"o  c #8A9050",
"O  c #889051",
"+  c #889050",
"@  c #828D51",
"#  c #7B8A52",
"$  c #818C51",
"%  c #6B8553",
"&  c #718752",
"*  c #6C8553",
"=  c #658254",
"-  c #688354",
";  c #7D8B51",
":  c #858F51",
">  c #7E8B52",
",  c #557D55",
"<  c #608054",
"1  c #597E55",
"2  c #778952",
"3  c #7C8B52",
"4  c #818D51",
"5  c #E1B900",
"6  c #838E51",
"7  c #DFB700",
"8  c #6E8653",
"9  c #7A8A52",
"0  c #7D8B52",
"q  c #848E51",
"w  c #D7AD00",
"e  c #7C8B51",
"r  c #738852",
"t  c #708753",
"y  c #808D51",
"u  c #E3BC00",
"i  c #CDA000",
"p  c #B68300",
"a  c #D3A700",
"s  c #D0A400",
"d  c #868F51",
"f  c #788952",
"g  c #678354",
"h  c #5C7F54",
"j  c #C69800",
"k  c #23192C",
"l  c #54416C",
"z  c #201926",
"x  c #AF7604",
"c  c #B27E00",
"v  c #7F8C51",
"b  c #688454",
"n  c #748852",
"m  c #180F2A",
"M  c #71539E",
"N  c #7D6697",
"B  c #5C3B8B",
"V  c #251937",
"C  c #C49100",
"Z  c #7F5610",
"A  c #2E2A4E",
"S  c #573A79",
"D  c #9B7BC7",
"F  c #A782D6",
"G  c #AD8FD2",
"H  c #AD89D9",
"J  c #936EC3",
"K  c #4D3470",
"L  c #392F46",
"P  c #CC9901",
"I  c #A77100",
"U  c #878F50",
"Y  c #302011",
"T  c #8164AE",
"R  c #B289E6",
"E  c #B291DD",
"W  c #B291DA",
"Q  c #BFA0E4",
"!  c #AE87E2",
"~  c #8162A6",
"^  c black",
"/  c #728753",
"(  c #644989",
")  c #C8A4F5",
"_  c #C3A9E3",
"`  c #B593DF",
"'  c #B99AE0",
"]  c #C8ADEA",
"[  c #BF9EE8",
"{  c #7958AA",
"}  c #2B1F3A",
"|  c #CD9705",
" . c #895C00",
".. c #4D4173",
"X. c #BD99E7",
"o. c #D9C6EA",
"O. c #A6AA9E",
"+. c #CFBBE8",
"@. c #AE88DC",
"#. c #CBB8E4",
"$. c #ACB1A4",
"%. c #D7C3E4",
"&. c #B38EE3",
"*. c #352057",
"=. c #47385C",
"-. c #A883D1",
";. c #B6A6E2",
":. c #C5BFD9",
">. c #D9C7F3",
",. c #B290E2",
"<. c #C9C5E0",
"1. c #B6A2E0",
"2. c #A483C8",
"3. c #271C36",
"4. c #443051",
"5. c #B39AE9",
"6. c #97427B",
"7. c #C291B6",
"8. c #7E5CBA",
"9. c #7D55AF",
"0. c #8365C3",
"q. c #C088AE",
"w. c #974883",
"e. c #8765CE",
"r. c #3B235E",
"t. c #3C2E63",
"y. c #9973CC",
"u. c #B590D3",
"i. c #B74E5A",
"p. c #D44B35",
"a. c #E66344",
"s. c #B9515E",
"d. c #5E3C94",
"f. c #060606",
"g. c #E0AF04",
"h. c #200F48",
"j. c #815ACB",
"k. c #A67AD7",
"l. c #BD646A",
"z. c #BF676D",
"x. c #7B52C9",
"c. c #E5BA02",
"v. c #C29300",
"b. c #C99C00",
"n. c #D2A703",
"m. c #DDAC02",
"M. c #3E2569",
"N. c #3A1F51",
"B. c #866F41",
"V. c #BD9E74",
"C. c #412952",
"Z. c #00000F",
"A. c #AE7901",
"S. c #BC8A00",
"D. c #A46B00",
"F. c #15001C",
"G. c #110019",
"H. c #768852",
"J. c #808C51",
"K. c #708653",
"L. c #768952",
"P. c #888F51",
"I. c #879050",
"U. c #7E8C51",
"Y. c #6E8553",
"T. c #788A52",
"R. c #5C7F55",
"E. c #587E55",
"W. c #628154",
"Q. c #718753",
"!. c #728752",
"~. c #868F50",
"^. c #798A52",
/* pixels */
"                                                                ",
"                                                                ",
"                                          . X o O O O +         ",
"                                          @ # $ % % % &         ",
"        * = - ; + X                   X : @ @ > , , , <         ",
"        < , 1 2 3 4 5                 6 7 8 9 0 , , , <         ",
"        < , 1 2 4 q w                 e 5 , * 9 , , , <         ",
"        r 8 t y # u i p               w a s * > 8 8 8 r         ",
"        d f t y g h j .     k l z     x c p v @ 8 8 f d         ",
"        6 b 1 2 n 8 @     m M N B V       d @ > , , b 6         ",
"        d f t y . C Z A S D F G H J K L   P I 0 , , b 6         ",
"        . U d X     Y T R E W W Q F ! ~ ^ X + @ = = / :         ",
"                      ( ) _ ` ' E ] [ { }                       ",
"                |  ...X.o.O.+.@.#.$.%.&.*.                      ",
"                    =.-.;.:.>.,.>.<.1.2.3.                      ",
"                    4.5.6.7.8.9.0.q.w.e.r.                      ",
"                    t.y.u.i.p.a.p.s.T d.f.                      ",
"                5 g.  h.j.k.l.s.z.k.x.h.  c.v.                  ",
"                b.n.m.  M.N.B.V.B.C.K Z.  A.S.                  ",
"                D.p         F.A G.                              ",
"        : / = = 6                         X d U v H.+           ",
"      . @ b , , J..     ^ ^ ^ ^ ^ ^ ^ ^   6 K.L.@ 3 P.o         ",
"    I.n U.b , , 0 # @ ^ ^ ^ ^ ^ ^ ^ ^ ^ ^ e 1 = v Y.% &         ",
"    + T.@ f 8 8 4 > q   ^ ^ ^ ^ ^ ^ ^ ^   6 K.L.f R.E.W.        ",
"        r Q.q 9 8 8 8 0     ^ ^ ^ ^   6 8 8 8 L.f R.E.W.        ",
"        < h ; * , , , !.              e , , , = v Y.% &         ",
"        r Q.@ * , , , !.              e , , , = @ 3 P.o         ",
"        ~.d U * , , , !.              e , , , = v H.+           ",
"            . ^.% % % e               @ % % % n                 ",
"              X O O O X               . O O O X                 ",
"                                                                ",
"                                                                "
};
