/* XPM */
static char * frame_5_xpm[] = {
"32 32 12 1",
" 	c #8B9150",
".	c #DFB700",
"+	c #A76F00",
"@	c #557D55",
"#	c #000000",
"$	c #8F67BF",
"%	c #B797DF",
"&	c #572F9F",
"*	c #FFFFFF",
"=	c #9F0000",
"-	c #D73F00",
";	c #FF875F",
"     ..              +          ",
"      +.             ..         ",
"    .                 .  .      ",
"       +                +       ",
"                      @ @@@@    ",
"     @@@                @@@@    ",
"   ++@@@ @    ###   ..@ @@@+    ",
"  +  @@@ ..  #$$%# +.+. @@@@+   ",
"         .+##&%#$&##+++     +   ",
"      @@ ##$$$%%%$%$##  @@@     ",
"      @@#%$&%$$%%%$&$%#+@@@     ",
"       .#$%%%%%%%%%%%$#.@@@     ",
"       +#&%%%%%%%%%%%&#+        ",
" +      #$%%*%%%%%*%%%$#        ",
"  +   .#%%%*#*%%%*#*%%&#        ",
"      +#$%%***%%%***%%#         ",
"        #%$&%%%%%%%&$$$#        ",
"       #$%%=*&&&&&*=%&&#        ",
"       #%$%==-----==&$#         ",
"       .#&$%=-;;;-=%$&#.        ",
" .    @+.#&$%=---=%$&#+. @      ",
"      @++#$&&%$$$%&&&#+@      . ",
"    @ @@@ ####+.+#### @@ @@@    ",
" . .          ###        @@@. + ",
"   . @@ @@@@        @@@@ @@.    ",
"    .@@ @@@@        @@@@+       ",
"        @@@@ ###### @@@@ @      ",
"        @@############@@        ",
"         ##############         ",
"         ##############         ",
"          ############          ",
"             ######             "};
