/* XPM */
static char *a0623d37707342a9d8b8176db3ec4f03GlX1M94sjA7vCCYp[] = {
/* columns rows colors chars-per-pixel */
"32 32 179 2 ",
"   c #8B9150",
".  c #8A9150",
"X  c #899050",
"o  c #8A9050",
"O  c #889051",
"+  c #889050",
"@  c #828D51",
"#  c #7B8A52",
"$  c #818C51",
"%  c #6B8553",
"&  c #718752",
"*  c #6C8553",
"=  c #658254",
"-  c #688354",
";  c #7D8B51",
":  c #D5AA00",
">  c #DEB600",
",  c #E4BD00",
"<  c #7E8B52",
"1  c #557D55",
"2  c #608054",
"3  c #597E55",
"4  c #778952",
"5  c #B37E00",
"6  c #C79800",
"7  c #838E51",
"8  c #CB9D00",
"9  c #CDA000",
"0  c #7A8A52",
"q  c #7D8B52",
"w  c #818D51",
"e  c #848E51",
"r  c #7C8B51",
"t  c #A26800",
"y  c #B78300",
"u  c #738852",
"i  c #6E8653",
"p  c #708753",
"a  c #808D51",
"s  c #788952",
"d  c #858F51",
"f  c #342745",
"g  c #868F51",
"h  c #678354",
"j  c #5C7F54",
"k  c #5F4A7E",
"l  c #6C5386",
"z  c #43286A",
"x  c #0B0A04",
"c  c #8B5F00",
"v  c #858E51",
"b  c #7F8C51",
"n  c #688454",
"m  c #B98800",
"M  c #0A0A08",
"N  c #3B2854",
"B  c #745A98",
"V  c #9D77D0",
"C  c #9D82BD",
"Z  c #936DC5",
"A  c #664592",
"S  c #462F3E",
"D  c #4B340C",
"F  c #A76F00",
"G  c #18151F",
"H  c #7A6197",
"J  c #936BCC",
"K  c #B593E2",
"L  c #AC8AD5",
"P  c #A27ED0",
"I  c #C0A1E4",
"U  c #A079D4",
"Y  c #8A65CC",
"T  c #7A63A2",
"R  c black",
"E  c #878F50",
"W  c #64478E",
"Q  c #CBA6FA",
"!  c #BFA0E6",
"~  c #B594DF",
"^  c #BA9BE1",
"/  c #B593DE",
"(  c #C3A3EB",
")  c #C5A2EF",
"_  c #6B4A9A",
"`  c #141018",
"'  c #728753",
"]  c #3F334B",
"[  c #9F81C9",
"{  c #CFB2E9",
"}  c #B0ABB2",
"|  c #C0A5E3",
" . c #AF8CDC",
".. c #BEA5E0",
"X. c #B4AEB8",
"o. c #C9AEDF",
"O. c #9B73D1",
"+. c #3E285F",
"@. c #56466A",
"#. c #BF97EC",
"$. c #CFC9F2",
"%. c #B6B8BB",
"&. c #E9D6F1",
"*. c #B992E0",
"=. c #E5D1EC",
"-. c #BEC3C3",
";. c #CFC4F3",
":. c #A887CC",
">. c #1E1331",
",. c #322140",
"<. c #967BC7",
"1. c #924C91",
"2. c #CAAADA",
"3. c #907BDA",
"4. c #8669CC",
"5. c #9784E2",
"6. c #C6A1D2",
"7. c #955496",
"8. c #9776D4",
"9. c #402A5D",
"0. c #4F3C6A",
"q. c #AF89EF",
"w. c #B57EB1",
"e. c #B784B0",
"r. c #8B173E",
"t. c #A63442",
"y. c #8B1B42",
"u. c #BA84AB",
"i. c #A068AD",
"p. c #6541A7",
"a. c #0F0828",
"s. c #3E2B15",
"d. c #4C2E69",
"f. c #9675E2",
"g. c #B792EB",
"h. c #C08EA7",
"j. c #B17E5C",
"k. c #C291A8",
"l. c #B18CE9",
"z. c #845DD0",
"x. c #462A60",
"c. c #312300",
"v. c #D7AD00",
"b. c #30202A",
"n. c #583697",
"m. c #694485",
"M. c #AD8555",
"N. c #CA9E6C",
"B. c #AE8757",
"V. c #5A377D",
"C. c #522E97",
"Z. c #291D1B",
"A. c #2A2330",
"S. c #0E0604",
"D. c #3E250C",
"F. c #654036",
"G. c #1F1728",
"H. c #D3A700",
"J. c #C09000",
"K. c #AE7800",
"L. c #B07A00",
"P. c #768852",
"I. c #808C51",
"U. c #708653",
"Y. c #768952",
"T. c #7C8B52",
"R. c #888F51",
"E. c #879050",
"W. c #748852",
"Q. c #7E8C51",
"!. c #6E8553",
"~. c #788A52",
"^. c #5C7F55",
"/. c #587E55",
"(. c #628154",
"). c #718753",
"_. c #728752",
"`. c #868F50",
"'. c #798A52",
/* pixels */
"                                                                ",
"                                                                ",
"                                          . X o O O O +         ",
"                                          @ # $ % % % &         ",
"        * = - ; + :                   > , @ @ < 1 1 1 2         ",
"        2 1 3 4 > 5 6                 7 8 9 0 q 1 1 1 2         ",
"        2 1 3 4 w e                   r t y * 0 1 1 1 2         ",
"        u i p a # s d         f       r 1 1 * < i i i u         ",
"        g s p a h j ; .     k l z x c v 4 4 b @ i i s g         ",
"        7 n 3 4 m i @ M N B V C Z A S D   g F < 1 1 n 7         ",
"        g s p a . X G H J K L P I U Y T R e < q 1 1 n 7         ",
"        . E g X       W Q ! ~ ^ / ( ) _ ` X + @ = = ' d         ",
"              9     ] [ { } |  ...X.o.O.+.                      ",
"                    @.#.$.%.&.*.=.-.;.:.>.                      ",
"                    ,.<.1.2.3.4.5.6.7.8.9.                      ",
"                    0.q.w.e.r.t.y.u.i.p.a.                      ",
"                    s.d.f.g.h.j.k.l.z.x.c.                      ",
"              v.      b.n.m.M.N.B.V.C.Z.                        ",
"              y 8       A.S.D.F.D.R G.      H.J.                ",
"                                          K.L.                  ",
"        d ' = = 7                         X g E b P.+           ",
"      . @ n 1 1 I..     R R R R R R R R   7 U.Y.@ T.R.o         ",
"    E.W.Q.n 1 1 q # @ R R R R R R R R R R r 3 = b !.% &         ",
"    + ~.@ s i i w < e   R R R R R R R R   7 U.Y.s ^./.(.        ",
"        u ).e 0 i i i q     R R R R   7 i i i Y.s ^./.(.        ",
"        2 j ; * 1 1 1 _.              r 1 1 1 = b !.% &         ",
"        u ).@ * 1 1 1 _.              r 1 1 1 = @ T.R.o         ",
"        `.g E * 1 1 1 _.              r 1 1 1 = b P.+           ",
"            . '.% % % r               @ % % % W.                ",
"              X O O O X               . O O O X                 ",
"                                                                ",
"                                                                "
};
