/* XPM */
static char *result[] = {
/* columns rows colors chars-per-pixel */
"32 32 168 2 ",
"   c #8B9150",
".  c #8A9150",
"X  c #899050",
"o  c #8A9050",
"O  c #889051",
"+  c #889050",
"@  c #828D51",
"#  c #7B8A52",
"$  c #818C51",
"%  c #6B8553",
"&  c #718752",
"*  c #6C8553",
"=  c #658254",
"-  c #688354",
";  c #7D8B51",
":  c #C59600",
">  c #858F51",
",  c #7E8B52",
"<  c #557D55",
"1  c #608054",
"2  c #597E55",
"3  c #778952",
"4  c #7C8B52",
"5  c #C99B00",
"6  c #CEA100",
"7  c #DFB700",
"8  c #6E8653",
"9  c #7A8A52",
"0  c #7D8B52",
"q  c #818D51",
"w  c #848E51",
"e  c #7C8B51",
"r  c #738852",
"t  c #708753",
"y  c #808D51",
"u  c #788952",
"i  c #868F51",
"p  c #678354",
"a  c #5C7F54",
"s  c #858E51",
"d  c #7F8C51",
"f  c #838E51",
"g  c #688454",
"h  c #748852",
"j  c #FCCB05",
"k  c #3A284E",
"l  c #62497E",
"z  c #3D3150",
"x  c #CE9E00",
"c  c #D5A302",
"v  c #A76F00",
"b  c #937301",
"n  c #4D3722",
"m  c #35235B",
"M  c #8D6ABE",
"N  c #836C9D",
"B  c #7A55AD",
"V  c #4C386C",
"C  c #503715",
"Z  c #734A02",
"A  c #878F50",
"S  c #4F407B",
"D  c #724FAE",
"F  c #A179D2",
"G  c #9E78CB",
"H  c #BC9AE6",
"J  c #B899E1",
"K  c #A279D7",
"L  c #6747A3",
"P  c #544787",
"I  c #463104",
"U  c #728753",
"Y  c #5A4405",
"T  c #7053B1",
"R  c #C69FEE",
"E  c #B293DA",
"W  c #B392DE",
"Q  c #C19CED",
"!  c #7555B1",
"~  c #564100",
"^  c #332317",
"/  c #674E9A",
"(  c #C5A3EC",
")  c #BAA9CE",
"_  c #BA9BE1",
"`  c #B797E1",
"'  c #B799DE",
"]  c #BDABD4",
"[  c #BC9FDF",
"{  c #916EC9",
"}  c #4D344B",
"|  c #876700",
" . c #584982",
".. c #C39AF2",
"X. c #DDD3EE",
"o. c #ADB4A2",
"O. c #DECDED",
"+. c #B089DD",
"@. c #DAC9E9",
"#. c #B5BDA9",
"$. c #DFD0EF",
"%. c #AF8DD8",
"&. c #1F1143",
"*. c #3A2C46",
"=. c #9C7DC2",
"-. c #C9BCEE",
";. c #B9A6F0",
":. c #A286E1",
">. c #BCABF2",
",. c #C9BCF1",
"<. c #9D7BC7",
"1. c #906BBF",
"2. c #3D2B4C",
"3. c #473162",
"4. c #C1A9FF",
"5. c #A13452",
"6. c #B96678",
"7. c #803B79",
"8. c #834484",
"9. c #B85C69",
"0. c #98315C",
"q. c #7153C1",
"w. c #22104E",
"e. c #6E5931",
"r. c #6649B0",
"t. c #A96DB1",
"y. c #B61B1A",
"u. c #EA4000",
"i. c #FF7122",
"p. c #975CAC",
"a. c #4B2F8C",
"s. c #4F4400",
"d. c #A97B00",
"f. c #2E1D2F",
"g. c #7456D3",
"h. c #B9495F",
"j. c #C86069",
"k. c #B8495E",
"l. c #9764AF",
"z. c #251123",
"x. c #B68601",
"c. c #1F0E32",
"v. c #705954",
"b. c #6B5654",
"n. c #221A45",
"m. c #16052F",
"M. c #0A0600",
"N. c #231D00",
"B. c #070400",
"V. c #768852",
"C. c #808C51",
"Z. c #020104",
"A. c #010100",
"S. c #708653",
"D. c #768952",
"F. c #888F51",
"G. c #879050",
"H. c #7E8C51",
"J. c #040300",
"K. c #6E8553",
"L. c #788A52",
"P. c #5C7F55",
"I. c #587E55",
"U. c #628154",
"Y. c #718753",
"T. c #728752",
"R. c #868F50",
"E. c #798A52",
/* pixels */
"                                                                ",
"                                                                ",
"                                          . X o O O O +         ",
"                                          @ # $ % % % &         ",
"        * = - ; + X                   : > @ @ , < < < 1         ",
"        1 < 2 3 4 5                   6 7 8 9 0 < < < 1         ",
"        1 < 2 3 q w                   e < < * 9 < < < 1         ",
"        r 8 t y # u >                 e < < * , 8 8 8 r         ",
"        i u t y p a ; .               s 3 3 d @ 8 8 u i         ",
"        f g 2 3 h 8 @ j     k l z   x c   i @ , v < g f         ",
"        i u t y . X   b n m M N B V C Z   w , 0 < < g f         ",
"        . A i X       S D F G H J K L P I X + @ = = U >         ",
"                    Y T R J E E J W Q ! ~                       ",
"                    ^ / ( ) _ ` ' ] [ { }                       ",
"                  |  ...X.o.O.+.@.#.$.%.&.                      ",
"                    *.=.G -.;.:.>.,.<.1.2.                      ",
"                    3.4.5.6.7.l 8.9.0.q.w.                      ",
"                    e.r.t.y.u.i.u.y.p.a.s.                      ",
"                    d.f.g.G h.j.k.l.g.z.x.                      ",
"                      n c.w.v.d.b.n.m.                          ",
"        > U = 7 f           M.N.B.        X i A d V.+           ",
"      . @ g < < C..     Z.Z.Z.A.A.Z.Z.A.  f S.D.@ 4 F.o         ",
"    G.h H.g < < 0 # @ A.A.Z.A.A.A.A.A.A.J.e 2 = d K.% &         ",
"    + L.@ u 8 8 q , w   A.A.A.A.A.A.A.A.  f S.D.u P.I.U.        ",
"        r Y.w 9 8 8 8 0     A.A.A.A.  f 8 8 8 D.u P.I.U.        ",
"        1 a ; * < < < T.              e < < < = d K.% &         ",
"        r Y.@ * < < < T.              e < < < = @ 4 F.o         ",
"        R.i A * < < < T.              e < < < = d V.+           ",
"            . E.% % % e               @ % % % h                 ",
"              X O O O X               . O O O X                 ",
"                                                                ",
"                                                                "
};
