/* XPM */
static char *result[] = {
/* columns rows colors chars-per-pixel */
"32 32 171 2 ",
"   c #8B9150",
".  c #8A9150",
"X  c #899050",
"o  c #8A9050",
"O  c #889051",
"+  c #889050",
"@  c #828D51",
"#  c #7B8A52",
"$  c #818C51",
"%  c #6B8553",
"&  c #718752",
"*  c #6C8553",
"=  c #658254",
"-  c #688354",
";  c #7D8B51",
":  c #858F51",
">  c #7E8B52",
",  c #557D55",
"<  c #608054",
"1  c #597E55",
"2  c #778952",
"3  c #7C8B52",
"4  c #C79900",
"5  c #DFB700",
"6  c #E1BA00",
"7  c #6E8653",
"8  c #7A8A52",
"9  c #7D8B52",
"0  c #818D51",
"q  c #AB7400",
"w  c #BF8E00",
"e  c #7C8B51",
"r  c #BA8800",
"t  c #C49400",
"y  c #E7C100",
"u  c #738852",
"i  c #708753",
"p  c #808D51",
"a  c #788952",
"s  c #9D6200",
"d  c #AC7500",
"f  c #868F51",
"g  c #678354",
"h  c #5C7F54",
"j  c #312A38",
"k  c #4D3864",
"l  c #181123",
"z  c #858E51",
"x  c #7F8C51",
"c  c #838E51",
"v  c #688454",
"b  c #D6AB00",
"n  c #18102A",
"m  c #785BA3",
"M  c #7B6394",
"N  c #5B3A8B",
"B  c #251732",
"V  c #6F4C00",
"C  c #986200",
"Z  c #3A3042",
"A  c #55397C",
"S  c #9C7BC7",
"D  c #A57FD4",
"F  c #A485CB",
"G  c #AB87D7",
"H  c #845DBA",
"J  c #4B3170",
"K  c #473840",
"L  c #848E51",
"P  c #A56E00",
"I  c #878F50",
"U  c #0F0B15",
"Y  c #8265AB",
"T  c #B189E8",
"R  c #B292DD",
"E  c #B190DA",
"W  c #AA86D2",
"Q  c #BC9DE3",
"!  c #A884D6",
"~  c #AD87E5",
"^  c black",
"/  c #728753",
"(  c #644A8C",
")  c #C8A4F5",
"_  c #C3A9E3",
"`  c #B594DF",
"'  c #B492DD",
"]  c #C7ACE9",
"[  c #BF9FE7",
"{  c #6E4BA2",
"}  c #2B1E3A",
"|  c #574768",
" . c #BC98E8",
".. c #D9C6EA",
"X. c #A6AA9E",
"o. c #CFBAE8",
"O. c #AD87DB",
"+. c #CBB7E4",
"@. c #ACB1A4",
"#. c #D8C4E5",
"$. c #A781DA",
"%. c #341F56",
"&. c #47385A",
"*. c #B6A5E2",
"=. c #C5BDD7",
"-. c #DBCBF6",
";. c #B393E6",
":. c #C9C3DD",
">. c #B5A1E0",
",. c #A687CA",
"<. c #271C36",
"1. c #3F2B50",
"2. c #A286DB",
"3. c #98447D",
"4. c #C197C2",
"5. c #7746A3",
"6. c #7E4A9D",
"7. c #7C51AC",
"8. c #BE8DB7",
"9. c #984B86",
"0. c #8664CD",
"q. c #3C245E",
"w. c #4A3A62",
"e. c #976FD0",
"r. c #B793D4",
"t. c #BA8AC0",
"y. c #A2314A",
"u. c #B6453C",
"i. c #9971C5",
"p. c #5C3891",
"a. c #0B0705",
"s. c #341B46",
"d. c #7F56D1",
"f. c #C6A9B0",
"g. c #B49666",
"h. c #CAACB1",
"j. c #A079DF",
"k. c #774AC7",
"l. c #3A2442",
"z. c #614100",
"x. c #CDA000",
"c. c #2E2228",
"v. c #483073",
"b. c #43264C",
"n. c #865C28",
"m. c #B88466",
"M. c #855C2B",
"N. c #3D256E",
"B. c #231A17",
"V. c #261600",
"C. c #40270D",
"Z. c #201202",
"A. c #C59500",
"S. c #768852",
"D. c #808C51",
"F. c #030201",
"G. c #708653",
"H. c #768952",
"J. c #888F51",
"K. c #879050",
"L. c #748852",
"P. c #7E8C51",
"I. c #6E8553",
"U. c #788A52",
"Y. c #5C7F55",
"T. c #587E55",
"R. c #628154",
"E. c #718753",
"W. c #728752",
"Q. c #868F50",
"!. c #798A52",
/* pixels */
"                                                                ",
"                                                                ",
"                                          . X o O O O +         ",
"                                          @ # $ % % % &         ",
"        * = - ; + X                   X : @ @ > , , , <         ",
"        < , 1 2 3 4 5                 6 6 7 8 9 , , , <         ",
"        < , 1 2 0 q w                 e r t y 8 , , , <         ",
"        u 7 i p # a :                 e s d * > 7 7 7 u         ",
"        f a i p g h ; .     j k l     z 2 2 x @ 7 7 a f         ",
"        c v 1 2 b 7 @     n m M N B V C   f @ > , , v c         ",
"        f a i p . X   Z A S D F G H J K   L P 9 , , v c         ",
"        . I f X     U Y T R E W Q ! ~ Y ^ X + @ = = / :         ",
"                      ( ) _ ` Q ' ] [ { }                       ",
"              4     |  ...X.o.O.+.@.#.$.%.                      ",
"                    &.W *.=.-.;.-.:.>.,.<.                      ",
"                    1.2.3.4.5.6.7.8.9.0.q.                      ",
"                    w.e.r.t.y.u.y.t.i.p.a.                      ",
"                      s.d.~ f.g.h.j.k.l.z.                      ",
"              x.y     c.v.b.n.m.M.s.N.B.                        ",
"              d w           V.C.Z.          A.A.                ",
"        : / = = c                         X P I x S.+           ",
"      . @ v , , D..     ^ ^ ^ F.^ ^ ^ ^   c G.H.@ 3 J.o         ",
"    K.L.P.v , , 9 # @ ^ ^ ^ ^ ^ ^ ^ ^ ^ ^ e 1 = x I.% &         ",
"    + U.@ a 7 7 0 > L   ^ ^ ^ ^ ^ ^ ^ ^   c G.H.a Y.T.R.        ",
"        u E.L 8 7 7 7 9     ^ ^ ^ ^   c 7 7 7 H.a Y.T.R.        ",
"        < h ; * , , , W.              e , , , = x I.% &         ",
"        u E.@ * , , , W.              e , , , = @ 3 J.o         ",
"        Q.f I * , , , W.              e , , , = x S.+           ",
"            . !.% % % e               @ % % % L.                ",
"              X O O O X               . O O O X                 ",
"                                                                ",
"                                                                "
};
