/* XPM */
static char *_3d84426d24a466dc72d63f8bf987a89dM6qjTz5Yyjq2wDm[] = {
/* columns rows colors chars-per-pixel */
"32 32 177 2 ",
"   c #8B9150",
".  c #8A9150",
"X  c #899050",
"o  c #8A9050",
"O  c #889051",
"+  c #889050",
"@  c #828D51",
"#  c #7B8A52",
"$  c #818C51",
"%  c #6B8553",
"&  c #718752",
"*  c #6C8553",
"=  c #658254",
"-  c #688354",
";  c #7D8B51",
":  c #858F51",
">  c #7E8B52",
",  c #557D55",
"<  c #608054",
"1  c #597E55",
"2  c #778952",
"3  c #7C8B52",
"4  c #818D51",
"5  c #838E51",
"6  c #6E8653",
"7  c #7A8A52",
"8  c #7D8B52",
"9  c #848E51",
"0  c #7C8B51",
"q  c #738852",
"w  c #708753",
"e  c #808D51",
"r  c #E1B900",
"t  c #D3A800",
"y  c #D0A600",
"u  c #EBC700",
"i  c #DEB600",
"p  c #868F51",
"a  c #788952",
"s  c #678354",
"d  c #E4BE00",
"f  c #CC9E00",
"g  c #A97300",
"h  c #C89900",
"j  c #7F8C51",
"k  c #688454",
"l  c #748852",
"z  c #3B2B51",
"x  c #6B5387",
"c  c #2F1F43",
"v  c #AA7400",
"b  c #271D30",
"n  c #453460",
"m  c #8C68BF",
"M  c #856F9E",
"N  c #7751AD",
"B  c #4F3A6C",
"V  c #1C1620",
"C  c #878F50",
"Z  c #BE8800",
"A  c #664515",
"S  c #584A7D",
"D  c #7651A3",
"F  c #B38FE2",
"G  c #AB87D5",
"H  c #B896E3",
"J  c #BC9CE1",
"K  c #A179D6",
"L  c #6D4B9B",
"P  c #5D4B72",
"I  c #C89401",
"U  c #A26D00",
"Y  c #728753",
"T  c #0B0508",
"R  c #7858A3",
"E  c #C59EF6",
"W  c #B797DF",
"Q  c #B493DE",
"!  c #B292D9",
"~  c #B999E0",
"^  c #C29DF2",
"/  c #7858A4",
"(  c black",
")  c #795F9D",
"_  c #C6A5EF",
"`  c #B9A8CD",
"'  c #B798DE",
"]  c #BDABD4",
"[  c #BD9FDF",
"{  c #9370C6",
"}  c #3C2955",
"|  c #6D4800",
" . c #574878",
".. c #DDD3EF",
"X. c #ADB4A3",
"o. c #DFCEEE",
"O. c #B189DD",
"+. c #DACAE9",
"@. c #B5BEAA",
"#. c #DFD1F0",
"$. c #AD8AD7",
"%. c #241440",
"&. c #382A43",
"*. c #9B7DC4",
"=. c #9C73BF",
"-. c #C7B9E8",
";. c #B6A4ED",
":. c #9E81DE",
">. c #BAA9F1",
",. c #C7B7EB",
"<. c #9C74BD",
"1. c #A180CE",
"2. c #3B2A4F",
"3. c #4A3661",
"4. c #C1A4F6",
"5. c #A75785",
"6. c #BF7281",
"7. c #905089",
"8. c #955386",
"9. c #93558E",
"0. c #C06E7C",
"q. c #9F518A",
"w. c #7553BD",
"e. c #28134C",
"r. c #BE9802",
"t. c #302750",
"y. c #A990E8",
"u. c #B55A81",
"i. c #DA4A38",
"p. c #E05D3B",
"a. c #DB4835",
"s. c #B35A84",
"d. c #896AD1",
"f. c #51317F",
"g. c #1C1D00",
"h. c #BD8F00",
"j. c #DFAF05",
"k. c #14093F",
"l. c #683DAA",
"z. c #8A67C6",
"x. c #AF7B6D",
"c. c #B6835D",
"v. c #6D42B4",
"b. c #09012E",
"n. c #CFA001",
"m. c #C39300",
"M. c #B98700",
"N. c #CA9D01",
"B. c #261839",
"V. c #1C0A24",
"C. c #695033",
"Z. c #A4817B",
"A. c #644D31",
"S. c #261429",
"D. c #A66F00",
"F. c #B58100",
"G. c #000011",
"H. c #0B0222",
"J. c #768852",
"K. c #808C51",
"L. c #020104",
"P. c #020103",
"I. c #708653",
"U. c #768952",
"Y. c #888F51",
"T. c #879050",
"R. c #7E8C51",
"E. c #6E8553",
"W. c #788A52",
"Q. c #5C7F55",
"!. c #587E55",
"~. c #628154",
"^. c #718753",
"/. c #5C7F54",
"(. c #728752",
"). c #868F50",
"_. c #798A52",
/* pixels */
"                                                                ",
"                                                                ",
"                                          . X o O O O +         ",
"                                          @ # $ % % % &         ",
"        * = - ; + X                   X : @ @ > , , , <         ",
"        < , 1 2 3 4                   5 6 6 7 8 , , , <         ",
"        < , 1 2 4 9                   0 , , * 7 , , , <         ",
"        q 6 w e # r t y               u i i * > 6 6 6 q         ",
"        p a w e s d f g               h h h j @ 6 6 a p         ",
"        5 k 1 2 l 6 @       z x c       v p @ > , , k 5         ",
"        p a w e . X     b n m M N B V     9 > 8 , , k 5         ",
"        . C p X   Z A S D F G H J K L P   I U @ = = Y :         ",
"                    T R E W Q ! ~ Q ^ / (                       ",
"                      ) _ ` ~ H ' ] [ { }                       ",
"                  |  .E ..X.o.O.+.@.#.$.%.                      ",
"                    &.*.=.-.;.:.>.,.<.1.2.                      ",
"                    3.4.5.6.7.8.9.0.q.w.e.                      ",
"                  r.t.L y.u.i.p.a.s.d.f.g.  h.                  ",
"                i j.  k.l.z.x.c.x.m v.b.  n.m.                  ",
"                M.N.    B.V.C.Z.A.S.%.    D.F.                  ",
"        : Y = = 5 g         G.H.G.        X p C j J.+           ",
"      . @ k , , K..     L.P.( ( ( ( L.(   5 I.U.@ 3 Y.o         ",
"    T.l R.k , , 8 # @ ( ( ( ( ( ( ( ( ( ( 0 1 = j E.% &         ",
"    + W.@ a 6 6 4 > 9   ( ( ( ( ( ( ( (   5 I.U.a Q.!.~.        ",
"        q ^.9 7 6 6 6 8     ( ( ( (   5 6 6 6 U.a Q.!.~.        ",
"        < /.; * , , , (.              0 , , , = j E.% &         ",
"        q ^.@ * , , , (.              0 , , , = @ 3 Y.o         ",
"        ).p C * , , , (.              0 , , , = j J.+           ",
"            . _.% % % 0               @ % % % l                 ",
"              X O O O X               . O O O X                 ",
"                                                                ",
"                                                                "
};
