/* XPM */
static char *_7e57ef3e5744d3be53833a2c27dcfd7dI9o31RE6VdRmPnW[] = {
/* columns rows colors chars-per-pixel */
"32 32 181 2 ",
"   c #8B9150",
".  c #8A9150",
"X  c #899050",
"o  c #8A9050",
"O  c #889051",
"+  c #889050",
"@  c #828D51",
"#  c #7B8A52",
"$  c #818C51",
"%  c #6B8553",
"&  c #718752",
"*  c #6C8553",
"=  c #658254",
"-  c #688354",
";  c #7D8B51",
":  c #858F51",
">  c #7E8B52",
",  c #557D55",
"<  c #608054",
"1  c #597E55",
"2  c #778952",
"3  c #7C8B52",
"4  c #818D51",
"5  c #DCB300",
"6  c #838E51",
"7  c #E2BB00",
"8  c #6E8653",
"9  c #7A8A52",
"0  c #7D8B52",
"q  c #CEA200",
"w  c #C49500",
"e  c #E2BC00",
"r  c #DAB100",
"t  c #D9AF00",
"y  c #738852",
"u  c #708753",
"i  c #808D51",
"p  c #788952",
"a  c #CB9D00",
"s  c #9D6501",
"d  c #3A2D4A",
"f  c #B78701",
"g  c #BC8A00",
"h  c #BE8D00",
"j  c #868F51",
"k  c #678354",
"l  c #5C7F54",
"z  c #543D75",
"x  c #725A8D",
"c  c #462C6B",
"v  c black",
"b  c #858E51",
"n  c #A97200",
"m  c #7F8C51",
"M  c #688454",
"N  c #748852",
"B  c #CB9B00",
"V  c #3D2951",
"C  c #745A98",
"Z  c #9E79D1",
"A  c #9F84BE",
"S  c #956FC7",
"D  c #75579C",
"F  c #35244B",
"G  c #0D0C12",
"H  c #B37900",
"J  c #4E3514",
"K  c #7860A1",
"L  c #946BC8",
"P  c #B592E2",
"I  c #AE8CD7",
"U  c #B593DE",
"Y  c #C1A2E5",
"T  c #A27BD5",
"R  c #8C66C1",
"E  c #7B6197",
"W  c #848E51",
"Q  c #878F50",
"!  c #63478C",
"~  c #CBA6FB",
"^  c #BFA0E6",
"/  c #C2A2EA",
"(  c #C5A3F1",
")  c #6E4E9E",
"_  c #151018",
"`  c #728753",
"'  c #D09E04",
"]  c #9F6E01",
"[  c #352D56",
"{  c #A182C7",
"}  c #CFB2E9",
"|  c #B0ABB3",
" . c #BFA5E3",
".. c #AF8CDD",
"X. c #B4AEB8",
"o. c #C9AEDF",
"O. c #AB86DE",
"+. c #3F295F",
"@. c #583800",
"#. c #52446F",
"$. c #BC93E8",
"%. c #CEC9F2",
"&. c #B6B6B7",
"*. c #EBD8F2",
"=. c #BA93E1",
"-. c #E7D3ED",
";. c #BEC1BF",
":. c #CFC4F3",
">. c #A786CB",
",. c #1E1331",
"<. c #372640",
"1. c #A187D0",
"2. c #934D92",
"3. c #C9B0E5",
"4. c #8A75DA",
"5. c #8064CB",
"6. c #907FE3",
"7. c #C6A7DD",
"8. c #965597",
"9. c #9775D4",
"0. c #402A5D",
"q. c #4A3869",
"w. c #B895F1",
"e. c #B178AD",
"r. c #B95357",
"t. c #BC555C",
"y. c #C76163",
"u. c #BB545B",
"i. c #BD5659",
"p. c #9B5FA5",
"a. c #6947A9",
"s. c #0F0727",
"d. c #DEB701",
"f. c #442571",
"g. c #9A7CE3",
"h. c #B374BA",
"j. c #C8494B",
"k. c #CB553D",
"l. c #CA4C4B",
"z. c #AC6DB6",
"x. c #8664D3",
"c. c #3C2066",
"v. c #FEDC02",
"b. c #C19200",
"n. c #D6AA03",
"m. c #0E0738",
"M. c #4D2A83",
"N. c #61418C",
"B. c #A98B65",
"V. c #C7A576",
"C. c #A68868",
"Z. c #66478A",
"A. c #543091",
"S. c #000017",
"D. c #BA8801",
"F. c #AD7700",
"G. c #211A2A",
"H. c #050006",
"J. c #382118",
"K. c #624557",
"L. c #331D16",
"P. c #090107",
"I. c #1E172A",
"U. c #A26900",
"Y. c #768852",
"T. c #808C51",
"R. c #708653",
"E. c #768952",
"W. c #888F51",
"Q. c #879050",
"!. c #7E8C51",
"~. c #7C8B51",
"^. c #6E8553",
"/. c #788A52",
"(. c #5C7F55",
"). c #587E55",
"_. c #628154",
"`. c #718753",
"'. c #728752",
"]. c #868F50",
"[. c #798A52",
/* pixels */
"                                                                ",
"                                                                ",
"                                          . X o O O O +         ",
"                                          @ # $ % % % &         ",
"        * = - ; + X                   X : @ @ > , , , <         ",
"        < , 1 2 3 4 5                 6 7 8 9 0 , , , <         ",
"        < , 1 2 4 7 q w               e r t * 9 , , , <         ",
"        y 8 u i # p a s       d       f g h * > 8 8 8 y         ",
"        j p u i k l ; .     z x c v   b n 2 m @ 8 8 p j         ",
"        6 M 1 2 N B @   V C Z A S D F G   a @ > , , M 6         ",
"        j p u i . H J K L P I U Y T R E v W > 0 , , M 6         ",
"        . Q j X       ! ~ ^ U U U / ( ) _ X + @ = = ` :         ",
"                ' ] [ { } |  ... .X.o.O.+.                      ",
"                  @.#.$.%.&.*.=.-.;.:.>.,.                      ",
"                    <.1.2.3.4.5.6.7.8.9.0.                      ",
"                    q.w.e.r.t.y.u.i.p.a.s.                      ",
"                d.t   f.g.h.j.k.l.z.x.c.  v.b.                  ",
"                t n.e m.M.N.B.V.C.Z.A.S.  D.b.                  ",
"                F.b.    G.H.J.K.L.P.I.    U.                    ",
"                                                                ",
"        : ` = = 6                         X j Q m Y.+           ",
"      . @ M , , T..     v v v v v v v v   6 R.E.@ 3 W.o         ",
"    Q.N !.M , , 0 # @ v v v v v v v v v v ~.1 = m ^.% &         ",
"    + /.@ p 8 8 4 > W   v v v v v v v v   6 R.E.p (.)._.        ",
"        y `.W 9 8 8 8 0     v v v v   6 8 8 8 E.p (.)._.        ",
"        < l ; * , , , '.              ~., , , = m ^.% &         ",
"        y `.@ * , , , '.              ~., , , = @ 3 W.o         ",
"        ].j Q * , , , '.              ~., , , = m Y.+           ",
"            . [.% % % ~.              @ % % % N                 ",
"              X O O O X               . O O O X                 ",
"                                                                ",
"                                                                "
};
