/* XPM */
static char *_478bc9204eb4dd0e7c58d26189d38d8j5IwZGp5SicuzE8P[] = {
/* columns rows colors chars-per-pixel */
"40 40 32 1 ",
"  c #7ED957",
". c #80D957",
"X c #86D957",
"o c #8BD957",
"O c #8ED957",
"+ c #93D957",
"@ c #96DA57",
"# c #9ADA57",
"$ c #9CDA57",
"% c #A3DA57",
"& c #A7DA57",
"* c #ABDA57",
"= c #AFDA57",
"- c #B0DB57",
"; c #B9DB58",
": c #C3DB58",
"> c #C6DB58",
", c #C8DB58",
"< c #CBDC58",
"1 c #CFDC58",
"2 c #D1DC58",
"3 c #D6DC58",
"4 c #DADC58",
"5 c #DFDC58",
"6 c #E0DC58",
"7 c #E7DD58",
"8 c #E8DD58",
"9 c #ECDD58",
"0 c #F0DD58",
"q c #F6DD59",
"w c #FBDD59",
"e c #FFDE59",
/* pixels */
"                   XX                   ",
"                   @@                   ",
"                   &&                   ",
"                   ;;                   ",
"                   <<                   ",
"                   55                   ",
"                   qq                   ",
"                  Oeeo                  ",
"                  *ee&                  ",
"                  <ee>                  ",
"                  0ee9                  ",
"                 #eeee@                 ",
"                 2eeee<                 ",
"                +eeeeewO                ",
"               .6eeeeee4                ",
"              .1eeeeeeee,               ",
"             @6eeeeeeeeee5+             ",
"           +1eeeeeeeeeeeeew,O           ",
"       o&>8eeeeeeeeeeeeeeeeee7:%X       ",
"X@*;16qeeeeeeeeeeeeeeeeeeeeeeeeee05<;&@X",
"X@&;<50eeeeeeeeeeeeeeeeeeeeeeeeee051;&@X",
"       X&:7eeeeeeeeeeeeeeeeee8>&X       ",
"           O<eeeeeeeeeeeeee<O           ",
"             +5eeeeeeeeee5+             ",
"               1eeeeeeee,               ",
"                5eeeeee4                ",
"                +eeeeewO                ",
"                 2eeee<                 ",
"                 $eeee+                 ",
"                  0ee7                  ",
"                  1ee:                  ",
"                  =ee%                  ",
"                  +eeX                  ",
"                   w9                   ",
"                   73                   ",
"                   2:                   ",
"                   :-                   ",
"                   =$                   ",
"                   #+                   ",
"                   X.                   "
};
