/* XPM */
static char *result[] = {
/* columns rows colors chars-per-pixel */
"40 40 185 2 ",
"   c #040303",
".  c #090604",
"X  c #0B0907",
"o  c #130E09",
"O  c #1B130B",
"+  c #291A0C",
"@  c #301F0E",
"#  c #221A12",
"$  c #281E14",
"%  c #372616",
"&  c #392511",
"*  c #262727",
"=  c #452E18",
"-  c #493219",
";  c #5D3915",
":  c #583718",
">  c #573819",
",  c #613B15",
"<  c #463623",
"1  c #4B3825",
"2  c #533D26",
"3  c #5D4227",
"4  c #6A4622",
"5  c #6B4A25",
"6  c #674B2D",
"7  c #704C26",
"8  c #70512F",
"9  c #644B38",
"0  c #735232",
"q  c #73593A",
"w  c #7B5D3C",
"e  c #6D7B3E",
"r  c #7A7C3C",
"t  c #4F4E4E",
"y  c #5B4C47",
"u  c #644C4A",
"i  c #6C5745",
"p  c #785C47",
"a  c #73564A",
"s  c #75594C",
"d  c #7A5C4C",
"f  c #656241",
"g  c #796547",
"h  c #737441",
"j  c #6F6151",
"k  c #7B6B51",
"l  c #7D7770",
"z  c #855E36",
"x  c #89653C",
"c  c #876846",
"v  c #83634B",
"b  c #8C694B",
"n  c #956F45",
"m  c #936E4D",
"M  c #827241",
"N  c #8D7947",
"B  c #8E7248",
"V  c #947946",
"C  c #97714E",
"Z  c #9A734F",
"A  c #9A7B4D",
"S  c #8C7357",
"D  c #967554",
"F  c #9B7450",
"G  c #9D7A53",
"H  c #90795E",
"J  c #9C7C5A",
"K  c #A0754C",
"L  c #A77A4F",
"P  c #A57C54",
"I  c #AA7F55",
"U  c #7D883C",
"Y  c #7A9B38",
"T  c #7C8E40",
"R  c #84873E",
"E  c #82953D",
"W  c #879C3E",
"Q  c #84A33D",
"!  c #84AB3C",
"~  c #8BAE3E",
"^  c #84B33B",
"/  c #8BB43E",
"(  c #8BBC3D",
")  c #8EC33E",
"_  c #90C53F",
"`  c #93CB3F",
"'  c #8B8444",
"]  c #898849",
"[  c #978847",
"{  c #9A814A",
"}  c #979646",
"|  c #9A9547",
" . c #989848",
".. c #88895D",
"X. c #918253",
"o. c #8E965C",
"O. c #A58A4E",
"+. c #A3974B",
"@. c #A38152",
"#. c #AE8155",
"$. c #AD855A",
"%. c #B48455",
"&. c #B98757",
"*. c #B38659",
"=. c #B68B58",
"-. c #BD8B5A",
";. c #A6915A",
":. c #B19053",
">. c #B09B5A",
",. c #8DA542",
"<. c #85A941",
"1. c #8CAA44",
"2. c #99A145",
"3. c #94A847",
"4. c #8FB341",
"5. c #8EBC44",
"6. c #92B342",
"7. c #93BE40",
"8. c #94BA4D",
"9. c #8CAA51",
"0. c #99A956",
"q. c #93B551",
"w. c #9FB754",
"e. c #9B9263",
"r. c #9A8B71",
"t. c #AB8A63",
"y. c #B08E69",
"u. c #A89365",
"i. c #BD9766",
"p. c #AA977A",
"a. c #B99B74",
"s. c #B59D7D",
"d. c #A6AC6C",
"f. c #A3B364",
"g. c #A4A276",
"h. c #B4B576",
"j. c #BBB176",
"k. c #C18D5B",
"l. c #C4915D",
"z. c #C69462",
"x. c #C59B6B",
"c. c #CA9E6E",
"v. c #CEA271",
"b. c #D0A473",
"n. c #8EC040",
"m. c #93C443",
"M. c #95CD42",
"N. c #98CC44",
"B. c #94C349",
"V. c #97D241",
"C. c #99D542",
"Z. c #9CDB43",
"A. c #A3C55E",
"S. c #AA9C82",
"D. c #B29F82",
"F. c #B4A589",
"G. c #B7A98C",
"H. c #BAAA8E",
"J. c #BBB786",
"K. c #BDAC91",
"L. c #C8AB85",
"P. c #C0AC8A",
"I. c #C4B496",
"U. c #C7B698",
"Y. c #CCBB9C",
"T. c #D0BE9F",
"R. c #D1BFA0",
"E. c #D7C59E",
"W. c #D5C4A3",
"Q. c #DDC6A2",
"!. c #DCC9A4",
"~. c #E2CDA5",
"^. c #E3CEA9",
"/. c #E3D2AD",
"(. c #E7D7B4",
"). c #E9D6B1",
"_. c #EEDAB5",
"`. c #F1DEB6",
"'. c #F1DFBB",
"]. c #F4E3BC",
"[. c #EAE2C9",
"{. c #F4E4C3",
"}. c #F7E8C7",
"|. c #F4E7CC",
" X c #F6E8CD",
/* pixels */
"C.<.Z.Z.Z.Z.Z.Z.Z.Z.Z.Z.Z.Z.Z.Z.Z.Z.Z.Z.Z.Z.Z.Z.Z.Z.Z.Z.Z.Z.Z.Z.Z.Z.Z.Z.Z.Z.Z.Z.",
"( t.6.Z.Z.Z.Z.Z.Z.Z.Z.Z.Z.Z.Z.Z.Z.Z.Z.Z.Z.Z.Z.Z.Z.Z.Z.Z.Z.Z.Z.Z.Z.Z.Z.Z.Z.Z.Z.Z.",
"6.1 ;.` Z.Z.Z.Z.Z.Z.Z.Z.Z.Z.Z.Z.Z.Z.Z.Z.Z.Z.Z.Z.Z.Z.Z.Z.Z.Z.Z.Z.Z.Z.Z.Z.Z.Z.Z.Z.",
"W % 6 | C.Z.Z.Z.Z.Z.Z.Z.Z.Z.Z.Z.Z.Z.Z.Z.Z.Z.Z.Z.Z.Z.Z.Z.Z.Z.Z.Z.Z.Z.Z.Z.Z.Z.Z.Z.",
"U - , n ~ Z.Z.Z.Z.Z.Z.Z.Z.Z.Z.Z.Z.Z.Z.Z.Z.Z.Z.Z.Z.Z.Z.Z.Z.Z.Z.Z.Z.Z.Z.Z.Z.Z.Z.Z.",
"R : ; 7 O.` Z.Z.Z.Z.Z.Z.Z.Z.Z.Z.Z.Z.Z.Z.Z.Z.Z.Z.Z.Z.Z.Z.Z.Z.Z.Z.Z.Z.Z.Z.Z.Z.Z.Z.",
"Q , , , x ( Z.Z.Z.Z.Z.Z.Z.Z.Z.Z.Z.Z.Z.Z.Z.Z.Z.Z.Z.Z.Z.Z.Z.Z.Z.Z.Z.Z.Z.Z.Z.Z.Z.Z.",
"6.6 , , 7  .Z.Z.Z.Z.Z.Z.Z.Z.Z.Z.Z.Z.Z.Z.Z.Z.Z.Z.Z.Z.Z.Z.Z.Z.Z.Z.Z.Z.Z.Z.Z.Z.Z.Z.",
"_ 0 ; , > ' ` Z.Z.Z.Z.Z.Z.Z.Z.Z.Z.Z.Z.Z.Z.Z.Z.` Z.Z.C.C.M.N.C.Z.Z.Z.Z.Z.Z.Z.Z.Z.",
"Z.M & ; % w m.Z.m.N.Z.8.C.Z.Z.Z.Z.Z.Z.Z.Z.Z.` _ 6.w.0.] ;.0.C.Z.Z.Z.Z.Z.Z.Z.Z.Z.",
"Z.W 2 @ + 3 4.q.3.j.Q h.w.m.Z.Z.Z.Z.Z.V.7.+.x x 0 3 = 1 ' M.Z.Z.Z.Z.Z.Z.Z.Z.Z.Z.",
"Z.V.h # X < R u.x.v.x.c.i.e.1.V.Z.Z.( ;.i - ; , , , 3 N ) Z.Z.Z.Z.Z.Z.Z.Z.Z.Z.Z.",
"Z.Z./ x X 1 @.c.c.v.v.b.b.b.c.2.C.,.V O o - , , , 4 V _ Z.Z.Z.^ Z.Z.Z.Z.Z.Z.Z.Z.",
"Z.Z.Z.Q w #.l.x.c.c.v.v.c.z.k.&.R q X   + : , , 5 A ( Z.Z.Z.5...M.Z.Z.Z.Z.Z.Z.Z.",
"Z.Z.Z.C.E -.-.l.z.x.z.z.z.k.k.k.m $     O O & 8 [ _ Z.Z.Z.V.h.!.8.Z.Z.Z.Z.Z.Z.Z.",
"Z.Z.Z.Z.2.l.#.%.-.-.-.k.k.-.k.k.%.< # % 1 0 B } ` C.Z.V.8.J.~.~.f.Z.Z.Z.Z.Z.Z.Z.",
"Z.Z.Z.Z.O.L l w &.-.-.k.k.&.k.k.-.B ' | 2.~ m.` _ ,.0.P.E.~.E.~.d.Z.Z.Z.Z.Z.Z.Z.",
"Z.Z.Z.C.O.6 * 6 -.k.l.l.k.Z i k.-.' V.C.` ) E N G y.a.L.E.a.Q.!.d.Z.Z.Z.Z.Z.Z.Z.",
"Z.Z.Z.` O.2 . 0 k.k.k.-.%.y t L %.W Z.Z.Y c F F F Z F F C y.~.~.f.Z.Z.Z.Z.Z.Z.Z.",
"Z.Z.Z.` :.z = K k.k.k.-.z     n I ( Z./ b Z C F Z C C F F $.Q.~.f.Z.Z.Z.Z.Z.Z.Z.",
"Z.` N.0.%.I x &.k.-.l.z.0 O + L V M.Z.r C C F F Z Z Z Z F t.Q.E.q.Z.Z.Z.Z.Z.Z.Z.",
"Z.A.!.Q.P &.k.k.k.K l.l.K 5 0 I X.8.) g F F F C F F Z Z Z y.y.s.m.Z.Z.Z.Z.Z.Z.Z.",
"n.J.}.].P.I k.%.I I I k.z.%.I P p.W.o.p m F F F Z Z C F F F m k Z.Z.Z.Z.Z.Z.Z.Z.",
"m.[.{._._.P.J %.k.k.-.-.*.I I J Y.R.I.j g m C C Z F F F m b d h Z.Z.Z.Z.Z.Z.Z.Z.",
"A.|.|.`._./.(.g.J C P F C D p.I.U.Y.Y.j a d v b Z Z F m v d a Y Z.Z.Z.Z.Z.Z.Z.Z.",
"9.W.[.(./.].).].^.Y.H.K.I.U.F.Y.U.U.T.J i s s d v v d d s s g N.Z.Z.Z.Z.Z.Z.Z.Z.",
") g.].!.[.|./.`.`.).^.R.U.R.I.T.R.R.H.S Z i s s a s a s s f ^ Z.Z.Z.Z.Z.Z.Z.Z.Z.",
"Z.Y E.W.{.{.|. X{.].'.).U.K.S.I.U.Y.H C I v a a a s s s g ^ Z.Z.Z.Z.Z.Z.Z.Z.Z.Z.",
"Z.Z.B.g._.W.{.|.|.|.|.'.T.F.S.I.T.F.F I P C i a a i g T ) Z.Z.Z.Z.Z.Z.Z.Z.Z.Z.Z.",
"Z.Z.Z.B.J.I.^._.'.{.{.).I.I.p.Y.D.J I I P G ^ / ^ n.V.Z.Z.Z.Z.Z.Z.Z.Z.Z.Z.Z.Z.Z.",
"Z.Z.Z.Z.q.G.F.W.!.!.(.W.K.S.l S P P I I P G n.Z.Z.Z.Z.Z.Z.Z.Z.Z.Z.Z.Z.Z.Z.Z.Z.Z.",
"Z.Z.Z.Z.M.] r.U.Y.T.Y.I.p.D m P P F P P P A ) Z.Z.Z.Z.Z.Z.Z.Z.Z.Z.Z.Z.Z.Z.Z.Z.Z.",
"Z.Z.Z.Z.Z.] V D W.I.p.k J P c v q [ -.-.#.A ` Z.Z.Z.Z.Z.Z.Z.Z.Z.Z.Z.Z.Z.Z.Z.Z.Z.",
"Z.Z.Z.Z.Z.4.G P H k G P P I 9 u f / =.l.k.@.` Z.Z.Z.Z.Z.Z.Z.Z.Z.Z.Z.Z.Z.Z.Z.Z.Z.",
"Z.Z.Z.Z.Z.M.{ #.P b *.#.I Z y u e ` :.l.k.+.Z.Z.Z.Z.Z.Z.Z.Z.Z.Z.Z.Z.Z.Z.Z.Z.Z.Z.",
"Z.Z.Z.Z.Z.Z.| k.-.L l.l.-.c u u _ _ :.l.l.6.Z.Z.Z.Z.Z.Z.Z.Z.Z.Z.Z.Z.Z.Z.Z.Z.Z.Z.",
"Z.Z.Z.Z.Z.Z.2.l.l.L l.-.k.g a Q ` +.l.k.O.C.Z.Z.Z.Z.Z.Z.Z.Z.Z.Z.Z.Z.Z.Z.Z.Z.Z.Z.",
"Z.Z.Z.Z.Z.V.>.z.l.#.l.l.%.E ! C.^ #.k.l.,.Z.Z.Z.Z.Z.Z.Z.Z.Z.Z.Z.Z.Z.Z.Z.Z.Z.Z.Z.",
"Z.Z.Z.Z.Z.M.' ;.-.i.v.c.| C.Z.Z.` E R ' N.Z.Z.Z.Z.Z.Z.Z.Z.Z.Z.Z.Z.Z.Z.Z.Z.Z.Z.Z.",
"Z.Z.Z.Z.Z.Z.C.^ ( R P A ~ Z.Z.Z.Z.Z.Z.Z.Z.Z.Z.Z.Z.Z.Z.Z.Z.Z.Z.Z.Z.Z.Z.Z.Z.Z.Z.Z."
};
