/* XPM */
static char *_05cd7366a574072ee9abe6e8093e1b7vsdrmlgvIeEJ5rqZ[] = {
/* columns rows colors chars-per-pixel */
"40 40 77 1 ",
"  c #890000",
". c #8B0505",
"X c #8C0606",
"o c #880903",
"O c #8C0808",
"+ c #8F0D0D",
"@ c #900F0F",
"# c #881006",
"$ c #871508",
"% c #881408",
"& c #871809",
"* c #901010",
"= c #931717",
"- c #951A1A",
"; c #961C1C",
": c #87230E",
"> c #982121",
", c #9B2828",
"< c #9D2A2A",
"1 c #9E2E2E",
"2 c #9F3030",
"3 c #A03333",
"4 c #A13535",
"5 c #A33838",
"6 c #A43A3A",
"7 c #A63F3F",
"8 c #A64040",
"9 c #AA4747",
"0 c #AB4A4A",
"q c #AC4C4C",
"w c #AE5151",
"e c #B05454",
"r c #B25A5A",
"t c #B45D5D",
"y c #B66161",
"u c #B86666",
"i c #BA6A6A",
"p c #BB6C6C",
"a c #BC6E6E",
"s c #BD7070",
"d c #BF7676",
"f c #C07878",
"g c #C37E7E",
"h c #C47F7F",
"j c #81983D",
"k c #80A442",
"l c #C68484",
"z c #C98B8B",
"x c #CB8F8F",
"c c #CC9191",
"v c #CE9595",
"b c #CF9898",
"n c #D09A9A",
"m c #D39F9F",
"M c #D5A6A6",
"N c #D7AAAA",
"B c #D8ABAB",
"V c #D9AEAE",
"C c #DBB2B2",
"Z c #DEB7B7",
"A c #DEB9B9",
"S c #E1BEBE",
"D c #E3C3C3",
"F c #E5C8C8",
"G c #E8CECE",
"H c #E9D0D0",
"J c #ECD5D5",
"K c #EDD9D9",
"L c #EFDEDE",
"P c #F0DEDE",
"I c #F1E1E1",
"U c #F4E8E8",
"Y c #F7EEEE",
"T c #F9F3F3",
"R c #FAF5F5",
"E c #FCFAFA",
"W c white",
/* pixels */
"j$                                    $k",
"%                                      :",
"                                       o",
"                                       o",
"                                       o",
"                                       o",
"                                       o",
"                                       o",
"              8                        o",
"              UvO              -       o",
"              UWH,            *P       o",
"              UWWRy        =C6*P       o",
"       X888888YWWWWM+      1Ey*P       o",
"       -WWWWWWWWWWWWL3  XDPPS**P       o",
"       -WWWWWWWWWWWWWEu uzzWTV1P       o",
"       -WWWWWWWWWWWWWL4 q@KWqMIP       o",
"       -WWWWWWWWWWWWN+   -WW+ *P       o",
"              UWWWRu     3HHp *P       o",
"              UWWH<    amAZrI.*P       o",
"              UWbO     tyy5 Pu*P       o",
"              Ke            rK*P       o",
"              *               *P       o",
"       >vvvvvvvvvvvvvvvvvvvvvvmT>      o",
"       -iiiiiiiiiiiiiiiiiiiiiiii-      o",
"             gmmys9,z2agmmv            o",
"             Gy8,5KZyqZ4xV7            o",
"             GLJr BH qZ iv             o",
"             G2  -IL5qZ iv             o",
"             GLJmNgeHeZ iv             o",
"                                       o",
"          1Nlf*yfln*90xdOCOli;         o",
"           g;Vxhncv-;AMcwB9dv          o",
"           g;m-hncn3 Fipmsv5u          o",
"                  O                    o",
"                                       o",
"                                       o",
"                                       o",
"                                       o",
"#                                      :",
"j%                                    &k"
};
