/* XPM */
static char *_fdd386ce8bc47e2983460ebe1a0bc70RFJ8OV8B3YvLfwIe[] = {
/* columns rows colors chars-per-pixel */
"100 50 205 2 ",
"   c #261F1C",
".  c #2A221E",
"X  c #2C2522",
"o  c #342723",
"O  c #332A26",
"+  c #392A26",
"@  c #332B28",
"#  c #3B2E2A",
"$  c #37312E",
"%  c #3C312C",
"&  c #3C3533",
"*  c #3F3835",
"=  c #422E2B",
"-  c #492D29",
";  c #512F2A",
":  c #483225",
">  c #43322D",
",  c #4A342E",
"<  c #47392E",
"1  c #4C392D",
"2  c #54372C",
"3  c #4E3530",
"4  c #4E3D31",
"5  c #433C39",
"6  c #523631",
"7  c #593631",
"8  c #553C31",
"9  c #5C3A34",
"0  c #663F2E",
"q  c #643C36",
"w  c #693E38",
"e  c #6A3F39",
"r  c #58402E",
"t  c #46403E",
"y  c #4A413E",
"u  c #5B4333",
"i  c #584737",
"p  c #5C4836",
"a  c #68442D",
"s  c #634435",
"d  c #6A4435",
"f  c #614B36",
"g  c #6B4935",
"h  c #6D413A",
"j  c #644E39",
"k  c #6D493B",
"l  c #764535",
"z  c #714C36",
"x  c #73433B",
"c  c #79473C",
"v  c #75493A",
"b  c #7D4B3C",
"n  c #6D553D",
"m  c #765037",
"M  c #75573B",
"N  c #7C5339",
"B  c #4B4542",
"V  c #4F4946",
"C  c #524A45",
"Z  c #584F46",
"A  c #544C49",
"S  c #584F48",
"D  c #56504E",
"F  c #59514B",
"G  c #5B5653",
"H  c #7F4E41",
"J  c #685743",
"K  c #745D45",
"L  c #605B58",
"P  c #7F6143",
"I  c #73614B",
"U  c #7F644A",
"Y  c #6C6158",
"T  c #746451",
"R  c #79695B",
"E  c #6F6A68",
"W  c #746F6D",
"Q  c #77706E",
"!  c #7C7774",
"~  c #824D3D",
"^  c #865538",
"/  c #86523D",
"(  c #8C543F",
")  c #8C5A3C",
"_  c #965B3B",
"`  c #925C3D",
"'  c #9C623E",
"]  c #A3663E",
"[  c #A7693D",
"{  c #814F40",
"}  c #845344",
"|  c #895340",
" . c #8B5B44",
".. c #875748",
"X. c #935B42",
"o. c #9A5E41",
"O. c #886849",
"+. c #976446",
"@. c #9E6341",
"#. c #9E6B4B",
"$. c #8E7050",
"%. c #9B7954",
"&. c #A16442",
"*. c #A86744",
"=. c #A66942",
"-. c #AC6B44",
";. c #A16D4D",
":. c #B26F45",
">. c #A6734E",
",. c #AD7549",
"<. c #B37245",
"1. c #BB7547",
"2. c #B57649",
"3. c #BA7648",
"4. c #B47C4C",
"5. c #BC7B4B",
"6. c #AC7D52",
"7. c #A6785A",
"8. c #B37C50",
"9. c #837260",
"0. c #817A76",
"q. c #817D7A",
"w. c #AA7F63",
"e. c #C17D4C",
"r. c #B9824F",
"t. c #AA8052",
"y. c #B18554",
"u. c #BA8251",
"i. c #BC8A55",
"p. c #B7845B",
"a. c #B38A5B",
"s. c #BD8E5A",
"d. c #9C896D",
"f. c #86807C",
"g. c #958878",
"h. c #AB8968",
"j. c #B49368",
"k. c #A79275",
"l. c #BD9D71",
"z. c #BFA176",
"x. c #C4824F",
"c. c #C38451",
"v. c #C38A55",
"b. c #CA8B54",
"n. c #C28E5B",
"m. c #C5915A",
"M. c #CD955B",
"N. c #CE985D",
"B. c #D1965A",
"V. c #D39A5D",
"C. c #C79561",
"Z. c #CA9B68",
"A. c #D39C69",
"S. c #DAA362",
"D. c #DAA668",
"F. c #DEAB6C",
"G. c #CBA577",
"H. c #C2A57C",
"J. c #D4AB7C",
"K. c #D7B07B",
"L. c #DCB17A",
"P. c #E0AD6E",
"I. c #E0AF74",
"U. c #E3B275",
"Y. c #E5B77C",
"T. c #E6B97D",
"R. c #E8BB7F",
"E. c #8A8584",
"W. c #8A8684",
"Q. c #8F8B89",
"!. c #948E89",
"~. c #99928C",
"^. c #FFFFFFFF",
"/. c #9C9997",
"(. c #A19890",
"). c #A29F9E",
"_. c #AAA7A6",
"`. c #B0AEAD",
"'. c #B2B0AF",
"]. c #BCB8B7",
"[. c #D5AF81",
"{. c #D8B488",
"}. c #DCBB8C",
"|. c #E2B881",
" X c #EABF84",
".X c #C2BFBE",
"XX c #E4C28F",
"oX c #EEC68D",
"OX c #E8C794",
"+X c #EFCA92",
"@X c #F2CF98",
"#X c #F4D29C",
"$X c #C2C0BF",
"%X c #C9C7C4",
"&X c #CAC8C7",
"*X c #FFFFFFFF",
"=X c #D0CECE",
"-X c #D1D0CF",
";X c #D5D4D3",
":X c #DCDBDA",
">X c #E0DFDE",
",X c #E5E4E4",
"<X c #EBEAEA",
"1X c #FFFFFFFF",
"2X c #FFFFFFFF",
/* pixels */
"2X2X2X2X2X2X2X2X2X2X2X2X2X2X2X2X2X2X2X2X2X2X2X2X2X2X2X2X2X2X2X2X2X2X2X2X2X2X2X2X2X2X2X2X2X2X2X2X2X2X2X2X2X2X2X2X2X2X2X2X2X2X2X2X2X2X2X2X2X2X2X2X2X2X2X2X2X2X2X2X2X2X2X2X2X2X2X2X2X2X2X2X2X2X2X2X2X2X2X2X",
"2X2X2X2X2X2X2X2X2X2X2X2X2X2X2X2X2X2X2X2X2X2X2X2X2X2X2X2X2X2X2X2X2X2X2X2X2X2X2X2X2X2X2X2X2X2X2X2X2X2X2X2X2X2X2X2X2X2X2X2X2X2X2X2X2X2X2X2X2X2X2X2X2X2X2X2X2X2X2X2X2X2X2X2X2X2X2X2X2X2X2X2X2X2X2X2X2X2X2X2X",
"2X2X2X2X2X2X2X2X2X2X2X2X2X2X2X2X2X2X2X2X2X2X2X2X2X2X2X2X2X2X2X2X2X2X2X2X2X2X2X2X2X2X2X2X2X2X2X2X2X2X2X2X2X2X2X2X2X2X2X2X2X2X2X2X2X2X2X2X2X2X2X2X2X2X2X2X2X2X2X2X2X2X2X2X2X2X2X2X2X2X2X2X2X2X2X2X2X2X2X2X",
"2X2X2X2X2X2X2X2X2X2X2X2X2X2X2X2X2X2X2X2X2X2X2X2X2X2X2X2X2X2X2X2X2X2X2X2X2X2X2X2X2X2X2X2X2X2X2X2X2X2X2X2X2X2X2X2X2X2X2X2X2X2X2X2X2X2X2X2X2X2X2X2X2X2X2X2X2X2X2X2X2X2X2X2X2X2X2X2X2X2X2X2X2X2X2X2X2X2X2X2X",
"2X2X2X2X2X2X2X2X2X2X2X2X2X2X2X2X2X2X2X2X2X2X2X2X2X2X2X2X2X2X2X2X2X2X2X2X2X2X2X2X2X2X2X2X2X2X2X2X2X2X2X2X2X2X2X2X2X2X2X2X2X2X2X2X2X2X2X2X2X2X2X2X2X2X2X2X2X2X2X2X2X2X2X2X2X2X2X2X2X2X2X2X2X2X2X2X2X2X2X2X",
"2X2X2X2X2X2X2X2X2X2X2X2X2X2X2X2X2X2X2X2X2X2X2X2X2X2X2X2X2X2X2X2X2X2X2X2X2X2X2X2X2X2X2X2X2X2X2X2X2X2X2X2X2X2X2X2X2X2X2X2X2X2X2X2X2X2X2X2X2X2X2X2X2X2X2X2X2X2X2X2X2X2X2X2X2X2X2X2X2X2X2X2X2X2X2X2X2X2X2X2X",
"2X2X2X2X2X2X2X2X1X$X].:X2X2X2X2X2X2X2X2X2X2X2X2X2X2X2X2X2X2X2X2X2X2X2X2X2X2X2X2X2X2X2X2X2X2X2X2X1X$X].:X2X2X2X2X2X2X2X2X2X2X2X2X2X2X2X2X2X2X2X2X2X2X2X2X2X2X2X2X2X2X2X2X2X2X2X2X1X$X].:X2X2X2X2X2X2X2X2X",
"2X2X2X2X2X2X2X1X%XY Z ~.,X2X2X2X2X2X2X2X2X2X2X2X2X2X2X2X2X2X2X2X2X2X2X2X2X2X2X2X2X2X2X2X2X2X2X1X%XY Z ~.,X2X2X2X2X2X2X2X2X2X2X2X2X2X2X2X2X2X2X2X2X2X2X2X2X2X2X2X2X2X2X2X2X2X2X1X%XY Z ~.,X2X2X2X2X2X2X2X",
"2X2X2X2X2X2X1X.XR H.}.d.f.<X2X2X2X2X2X2X2X2X2X2X2X2X2X2X2X2X2X2X2X2X2X2X2X2X2X2X2X2X2X2X2X2X1X.XR H.}.d.f.<X2X2X2X2X2X2X2X2X2X2X2X2X2X2X2X2X2X2X2X2X2X2X2X2X2X2X2X2X2X2X2X2X1X.XR [.}.d.f.<X2X2X2X2X2X2X",
"2X2X2X2X2X2X'.R a.F.oX}.k.0.,X2X2X2X2X2X2X2X2X2X2X2X2X2X2X2X2X2X2X2X2X2X2X2X2X2X2X2X2X2X2X2X'.R a.F.oX}.k.0.,X2X2X2X2X2X2X2X2X2X2X2X2X2X2X2X2X2X2X2X2X2X2X2X2X2X2X2X2X2X2X2X'.R a.F.oX}.k.0.,X2X2X2X2X2X",
"2X2X2X2X1X`.g.h.D.T.T.T.J.d.!.:X2X2X2X2X2X2X2X2X2X2X2X2X2X2X2X2X2X2X2X2X2X2X2X2X2X2X2X2X1X`.g.h.D.T.T.T.J.d.!.:X2X2X2X2X2X2X2X2X2X2X2X2X2X2X2X2X2X2X2X2X2X2X2X2X2X2X2X2X1X`.g.h.D.T.T.T.J.d.!.:X2X2X2X2X",
"2X2X2X1X].9.j.oXP.+XU.S.P.K.O.(.:X2X2X2X2X2X2X2X2X2X2X2X2X2X2X2X2X2X2X2X2X2X2X2X2X2X2X1X].9.j.oXP.+XU.S.P.K.O.(.:X2X2X2X2X2X2X2X2X2X2X2X2X2X2X2X2X2X2X2X2X2X2X2X2X2X2X1X].9.j.oXF.+XU.S.P.K.O.^.:X2X2X2X",
"2X2X1X%XY a.T. XF.+XU.S.V.S.M.K !.,X2X2X2X2X2X2X2X2X2X2X2X2X2X2X2X2X2X2X2X2X2X2X2X2X1X%XY a.T. XF.+XU.S.V.S.M.K !.,X2X2X2X2X2X2X2X2X2X2X2X2X2X2X2X2X2X2X2X2X2X2X2X2X1X%XY a.T. XF.+XU.S.V.S.M.M Q.,X2X2X",
"2X1X.XT s.|.Y.F.F.+XU.M.b.V.c.v.$.q.<X2X2X2X2X2X2X2X2X2X2X2X2X2X2X2X2X2X2X2X2X2X2X1X.XT s.|.Y.F.F.+XU.M.b.V.c.v.$.q.<X2X2X2X2X2X2X2X2X2X2X2X2X2X2X2X2X2X2X2X2X2X2X1X.XT s.|.Y.F.F.+XU.M.b.V.2.6.P ! <X2X",
"2X'.R a.|.A.V.S.F.+X+XI.V.S.V.b.u.%.0.,X2X2X2X2X2X2X2X2X2X2X2X2X2X2X2X2X2X2X2X2X2X'.R a.|.A.V.S.F.+X+XI.V.S.V.b.u.%.0.,X2X2X2X2X2X2X2X2X2X2X2X2X2X2X2X2X2X2X2X2X2X'.R a.|.A.V.S.F.+X+XI.M.m.u.5.4.%.0.,X",
"2X^.p v.A.M.V.F. X@X#XR.V.b.V.x.b.t.F >X2X2X2X2X2X2X2X2X2X2X2X2X2X2X2X2X2X2X2X2X2X^.p v.A.M.V.F. X@X#XR.V.b.V.x.b.t.F >X2X2X2X2X2X2X2X2X2X2X2X2X2X2X2X2X2X2X2X2X2X^.p v.A.M.V.F. X@X#XR.M.4.i.2.r.%.F >X",
"2X^.p 5.5.B.S.U.@X#X#XR.B.e.V.b.4.P S >X2X2X2X2X2X2X2X2X2X2X2X2X2X2X2X2X2X2X2X2X2X^.p 5.5.B.S.U.@X#X#XR.B.e.V.b.4.P S >X2X2X2X2X2X2X2X2X2X2X2X2X2X2X2X2X2X2X2X2X2X^.p 5.5.B.S.U.@X#X#XR.M.<.i.r.>.M S >X",
"2X^.p y.-.u.M.F.#X#X#XR.V.x.B.m.P % A >X2X2X2X2X2X2X2X2X2X2X2X2X2X2X2X2X2X2X2X2X2X^.p y.-.u.M.F.@X#X#XR.V.x.B.m.P % A >X2X2X2X2X2X2X2X2X2X2X2X2X2X2X2X2X2X2X2X2X2X^.p y.-.u.M.F.@X#X#XR.B.5.u.i.K @ V :X",
"2X^.% 4 < < N n.XX+XOXL.N.m.2.g 9 7 A >X2X2X2X2X2X2X2X2X2X2X2X2X2X2X2X2X2X2X2X2X2X^.# < > < N n.XX+XOXL.N.m.2.g 9 7 A >X2X2X2X2X2X2X2X2X2X2X2X2X2X2X2X2X2X2X2X2X2X^.# < > < N n.XX+XOXL.m.y.] s % X y :X",
"2X^.= 9 9 = > i K p.O.p p i 8 % 6 9 A >X2X2X2X2X2X2X2X2X2X2X2X2X2X2X2X2X2X2X2X2X2X^.@ # 7 = > i K p.O.p p p 8 % 6 9 A >X2X2X2X2X2X2X2X2X2X2X2X2X2X2X2X2X2X2X2X2X2X^.@ # 7 = > i K p.U p r 1 : o . . t :X",
"2X^.> h h 9 > # q =.` 8 @ % z N s > 5 q.Q.Q.Q.Q.Q.Q.Q.Q.Q.Q.Q.Q.Q.Q.Q.Q.Q.Q.Q.Q.Q.L @ # q 9 > # q =.` 8 @ % z N s > 5 q.Q.Q.Q.Q.Q.Q.Q.Q.Q.Q.Q.Q.Q.Q.Q.Q.Q.Q.Q.Q.Q.L @ # q 9 > # 7 ' ) 8 X o a a : X B :X",
"2X^.> x / ( 9 1 ( <.1.m @ > *.1.m < n n I T I n n I T T I n n n n n I T K n n I K K J < b ( 9 1 ( <.1.m @ > *.1.m < n n I T I n n I T T I n n n n n I T K n n I K K J < b ( 9 < / ' -.z X % ` ] d X B :X",
"2X^.> x -.1.N s 2.:.-.N > > *.1.m p i.m.J.{.J.V.V.L.}.{.[.C.m.m.m.C.[.{.G.m.C.J.Z.G.h.4 *.1.N s 2.:.-.N > > *.1.m p i.m.J.{.J.V.V.L.}.{.[.C.m.m.m.C.[.{.G.m.C.J.Z.G.h.4 *.1.N s <.@.' z % > ` ] d X B :X",
"2X^.@ 1 &.3.X. .n.| c ` ^ 1 *.1.m < b | ....+.2.3.5.;.....H H { | } } } } } } ..} ..k < &.3.X. .n.| c X.^ 1 *.1.m < b | ....+.2.3.5.;.....H H { | } } } } | | ..} ..k < &.1.X. .v./ x ` ^ > ` ] g o y :X",
"2X^.@ % b u.;.X.s.u q X.` 1 *.1.m 8 &.*.*.*.@.~ ~ ~ X.*.&.c x ( *.&.c x ( *.*.*.*.*.^ > b u.;.X.s.u q X.` 1 *.1.m 8 &.*.*.*.@.~ ~ ~ X.*.&.c x ( *.&.c x ( *.*.*.*.*.^ > b u.;.X.s.u q X.` < ` ] ' a y :X",
"2X^.< z 9 y.>.X.n.k w X.=.) -.@.s > g z z z z x x x ~ X.( x x ~ X.X.o.o.X.X.( z z z u # 8 y.>.X.n.k w X.=.) -.@.^ N z z z z z x x x ~ X.( x x ~ X.X.o.o.X.X.( z g g u # 8 y.>.X.n.k w X.*.N ' ) _ ^ C :X",
"2X^.u @.1 6.>.X.n.k w X.5.x.3./ d 8 @ @ @ @ # 9 9 9 9 9 9 9 9 9 9 q ^ ) v 9 6 # @ @ > 8 < 6.>.X.n.k w X.5.x.3.~ X.` # @ @ @ # 9 9 9 9 9 9 9 9 9 9 q ^ ) v 9 6 # @ @ > 8 < 6.>.X.n.v w X.<.,.] b ( ) S >X",
"2X^.u &.8 t.6.#.s.4 9 X.x.V.5./ X.) % C D D D D D S D D D D D D D D D D D D D D D 5 u @.8 t.6.#.s.4 9 X.x.V.5./ X.` % C D D D D D D D D D D D D D D D D D D D D D 5 u @.8 t.6.#.s.4 9 ` 3.i.[ l ( ` S >X",
"2X^.u *.v 6.M.M.s.4 9 X.x.V.5.( X.) C &X,X,X,X,X,X,X,X,X,X,X,X,X,X,X,X,X,X,X,X,X,XW.u *.v 6.M.M.n.4 9 X.x.V.5.( X.) C &X,X,X,X,X,X,X,X,X,X,X,X,X,X,X,X,X,X,X,X,X,XW.u *.v 6.M.M.s.4 6 / 4.M.<.~ ` ) S >X",
"2X^.u &.8 u +.x.,.< # N 5.x.M. .c d S >X2X2X2X2X2X2X2X2X2X2X2X2X2X2X2X2X2X2X2X2X2X^.u &.8 u +.x.,.< # N 5.x.M. .c d S >X2X2X2X2X2X2X2X2X2X2X2X2X2X2X2X2X2X2X2X2X2X^.u &.8 u +.x.,.> O z <.4.v. .c d S >X",
"2X^.u @.< , ^ e.u.s # s @.5.V.X.x 9 A >X2X2X2X2X2X2X2X2X2X2X2X2X2X2X2X2X2X2X2X2X2X^.u @.< , ^ e.u.s # s @.5.V.X.x 9 A >X2X2X2X2X2X2X2X2X2X2X2X2X2X2X2X2X2X2X2X2X2X^.u @.> , ^ 3.,.8 O 8 _ 2.M.X.x 9 A >X",
"2X^.8 ) > 9 X.x.M.X.1 6 / 5.V.X.x 9 A >X2X2X2X2X2X2X2X2X2X2X2X2X2X2X2X2X2X2X2X2X2X^.8 ) > 9 X.x.M.X.1 6 / 5.V.X.x 9 A >X2X2X2X2X2X2X2X2X2X2X2X2X2X2X2X2X2X2X2X2X2X^.8 ) > 9 X.5.i.( > , ~ 3.V.X.x 9 C :X",
"2X^.> q # 9 ( 5.V.5.u 6 / 5.V. .q 6 B .X:X:X:X:X:X:X:X:X:X:X:X:X:X:X:X:X:X:X:X:X:XW.> q # 9 ( 5.V.5.u 6 / 5.V. .w 9 B .X:X:X:X:X:X:X:X:X:X:X:X:X:X:X:X:X:X:X:X:X:XW.> 9 # 9 ( 5.V.4.r 1 / 5.V. .w 7 y :X",
"2X^.> q # 9 x +.V.N.j 6 / 5.M.n # # < C F F F F S Z Z Z Z Z Z Z Z Z Z F F Z S F F y 3 q # 9 x +.V.V.j 6 / 5.M.n 6 9 < C F F F F S Z Z Z Z Z Z Z Z Z Z F F Z S F F y % # @ 9 x +.N.i.p 6 / 3.M.n , ; y :X",
"2X^.> q # 9 x | c.N.j 6 / 5.M.j @ i t.y.l.H.H.H.a.y.y.y.y.y.y.y.y.y.y.l.j.y.a.z.j.y.O.> @ 9 x | c.N.j 6 / 5.M.j # f t.y.l.H.H.H.a.y.y.y.y.y.y.y.y.y.y.l.j.y.a.z.j.y.O.# @ 9 x / 2.m.j 6 ~ <.v.p , ; y :X",
"2X^.> w 7 6 9 / 5.M.j > g <.#.8 > k #.;.7.h.h.w.>.;.8.b.c.>.;.;.;.;.;.7.p.b.b.A.M.b.#.% , 6 9 / 5.M.j > g <.#.8 > k #.;.7.h.h.w.>.;.8.b.c.>.;.;.;.;.;.7.p.b.b.A.M.b.#.% 3 6 9 b <.M.f + 0 ] +.1 - ; y :X",
"2X^.> h h > 6 / 3.v.f @ 8 X.x > 9 ( ( ( ( ( ( ( ( ( X.&.o.c x b ( ( ( ( &.:.&.&.&.&./ > q > 6 / 2.8.i @ 8 X.x > 9 ( ( ( ( ( ( ( ( ( X.&.o.c x b ( ( ( ( &.:.&.&.&.&./ > q > , b <.u.r   : ^ q # - ; y :X",
"2X^.> h h > 6 ( <.<.s @ > h q > g &.&.&.&.*.-.-.-.-.( x x x x ( -.-.-.-.-.o.x w w w 7 # 9 > 6 ~ &.c 3 @ > h q > g &.&.&.&.*.-.-.-.-.( x x x x ( -.-.-.-.-.o.x w w w 7 # 9 # , ~ [ ] 2 . + q 7 + = - B :X",
"2X^.> w w > 6 / <.:.~ 3 > q > @ % < < < < 9 x x x x x w w w w x x x x x x x q > # # @ @ # @ 6 x c x w 3 > q > @ % < < < < 9 x x x x x w w w w x x x x x x x q > # # @ @ O X , v ] ' l = + 7 + X o @ V :X",
"2X^.@ , w > 6 / -.( x 6 > q # 6 , @ @ @ @ # > > > > > > > > > > > > > > > > # @ @ @ @ @ @ @ 6 x x x x 6 > q # 6 , @ @ @ @ # = > > > > > > > > > > > > > > > # @ @ @ @ O O X , b _ ~ w , # 7 O - = @ A >X",
"2X=Xq.% , # 6 c ( x 7 > > q # 9 6 A /.).).).).).).).).).).).).).).).).).).).).).).).q.$ @ @ 6 x x h 7 > > q # 9 6 A /.).).).).).).).).).).).).).).).).).).).).).).).q.$ O X , x ~ x 6 + # 6 o 7 , A _.1X",
"2X2X.X& @ @ > q w 9 # @ # 6 # 3 > E 1X2X2X2X2X2X2X2X2X2X2X2X2X2X2X2X2X2X2X2X2X2X2X2X.X& @ @ > q w 9 # @ # 6 # 3 > E 1X2X2X2X2X2X2X2X2X2X2X2X2X2X2X2X2X2X2X2X2X2X2X2X.X& @ @ > q w 7 # X o - . , > E 1X2X",
"2X2X*XD $ & 5 4 9 # & & @ @ * $ 5 W.1X2X2X2X2X2X2X2X2X2X2X2X2X2X2X2X2X2X2X2X2X2X2X2X*XD $ & 5 4 9 # & & @ @ * $ 5 W.1X2X2X2X2X2X2X2X2X2X2X2X2X2X2X2X2X2X2X2X2X2X2X2X*XD $ & 5 4 9 @ $ @ . X @ @ 5 W.1X2X",
"2X2X1X*XG W W.Q y 5 W Y 5 B ! D !.<X2X2X2X2X2X2X2X2X2X2X2X2X2X2X2X2X2X2X2X2X2X2X2X2X1X*XG W W.Q y 5 W Y 5 B ! D !.<X2X2X2X2X2X2X2X2X2X2X2X2X2X2X2X2X2X2X2X2X2X2X2X2X1X*XG W W.W 5 5 E G $ B ! A Q.<X2X2X",
"2X2X2X1X;X:X,X:X*X*X:X;X*X=X:X;X,X2X2X2X2X2X2X2X2X2X2X2X2X2X2X2X2X2X2X2X2X2X2X2X2X2X2X1X;X:X,X:X*X*X:X;X*X=X:X;X,X2X2X2X2X2X2X2X2X2X2X2X2X2X2X2X2X2X2X2X2X2X2X2X2X2X2X1X;X:X,X:X*X*X:X;X&X=X:X-X,X2X2X2X",
"2X2X2X2X2X2X2X2X2X2X2X2X2X2X2X2X2X2X2X2X2X2X2X2X2X2X2X2X2X2X2X2X2X2X2X2X2X2X2X2X2X2X2X2X2X2X2X2X2X2X2X2X2X2X2X2X2X2X2X2X2X2X2X2X2X2X2X2X2X2X2X2X2X2X2X2X2X2X2X2X2X2X2X2X2X2X2X2X2X2X2X2X2X2X2X2X2X2X2X2X",
"2X2X2X2X2X2X2X2X2X2X2X2X2X2X2X2X2X2X2X2X2X2X2X2X2X2X2X2X2X2X2X2X2X2X2X2X2X2X2X2X2X2X2X2X2X2X2X2X2X2X2X2X2X2X2X2X2X2X2X2X2X2X2X2X2X2X2X2X2X2X2X2X2X2X2X2X2X2X2X2X2X2X2X2X2X2X2X2X2X2X2X2X2X2X2X2X2X2X2X2X",
"2X2X2X2X2X2X2X2X2X2X2X2X2X2X2X2X2X2X2X2X2X2X2X2X2X2X2X2X2X2X2X2X2X2X2X2X2X2X2X2X2X2X2X2X2X2X2X2X2X2X2X2X2X2X2X2X2X2X2X2X2X2X2X2X2X2X2X2X2X2X2X2X2X2X2X2X2X2X2X2X2X2X2X2X2X2X2X2X2X2X2X2X2X2X2X2X2X2X2X2X",
"2X2X2X2X2X2X2X2X2X2X2X2X2X2X2X2X2X2X2X2X2X2X2X2X2X2X2X2X2X2X2X2X2X2X2X2X2X2X2X2X2X2X2X2X2X2X2X2X2X2X2X2X2X2X2X2X2X2X2X2X2X2X2X2X2X2X2X2X2X2X2X2X2X2X2X2X2X2X2X2X2X2X2X2X2X2X2X2X2X2X2X2X2X2X2X2X2X2X2X2X",
"2X2X2X2X2X2X2X2X2X2X2X2X2X2X2X2X2X2X2X2X2X2X2X2X2X2X2X2X2X2X2X2X2X2X2X2X2X2X2X2X2X2X2X2X2X2X2X2X2X2X2X2X2X2X2X2X2X2X2X2X2X2X2X2X2X2X2X2X2X2X2X2X2X2X2X2X2X2X2X2X2X2X2X2X2X2X2X2X2X2X2X2X2X2X2X2X2X2X2X2X"
};
