/* XPM */
static char *_1f79a592e334875b37557c19b25008dkpAq1D29FnV1QW5J[] = {
/* columns rows colors chars-per-pixel */
"100 50 254 2 ",
"   c None",
".  c #2B1D16",
"X  c #331D1E",
"o  c #39261B",
"O  c #382311",
"+  c #2E2624",
"@  c #3A2522",
"#  c #342A24",
"$  c #3C2A25",
"%  c #3B2C2B",
"&  c #362727",
"*  c #3A322A",
"=  c #3D3432",
"-  c #393835",
";  c #3A2F35",
":  c #3C1F21",
">  c #442B1C",
",  c #4B2B1C",
"<  c #482716",
"1  c #522D1B",
"2  c #582D14",
"3  c #4D331D",
"4  c #53341C",
"5  c #5B331C",
"6  c #593416",
"7  c #532D0A",
"8  c #653A1D",
"9  c #773C1C",
"0  c #432622",
"q  c #432B24",
"w  c #4C2C24",
"e  c #442D2A",
"r  c #4A2D2B",
"t  c #482625",
"y  c #532C25",
"u  c #542D29",
"i  c #443124",
"p  c #4B3324",
"a  c #44322C",
"s  c #4C322C",
"d  c #4C3A2C",
"f  c #533324",
"g  c #5C3423",
"h  c #53342B",
"j  c #5B3B2D",
"k  c #583929",
"l  c #433431",
"z  c #4B3B34",
"x  c #4D3C3A",
"c  c #473836",
"v  c #553B34",
"b  c #5B3B34",
"n  c #5B3C3B",
"m  c #563837",
"M  c #442E30",
"N  c #633D23",
"B  c #633C2B",
"V  c #683A25",
"C  c #733E26",
"Z  c #633D34",
"A  c #683D37",
"S  c #733E31",
"D  c #401B0B",
"F  c #59442D",
"G  c #49423B",
"H  c #564333",
"J  c #5B4234",
"K  c #5C423B",
"L  c #5D4C3D",
"P  c #56483B",
"I  c #62422C",
"U  c #694629",
"Y  c #7B4A2C",
"T  c #74462B",
"R  c #634333",
"E  c #6B4334",
"W  c #6C4B34",
"Q  c #6C453C",
"!  c #634D3C",
"~  c #6C4B3C",
"^  c #634737",
"/  c #794433",
"(  c #744C34",
")  c #7B4B33",
"_  c #72443A",
"`  c #7A4C3B",
"'  c #744737",
"]  c #6C523D",
"[  c #68553C",
"{  c #795538",
"}  c #74522F",
"|  c #72532B",
" . c #653F44",
".. c #5F3C40",
"X. c #4C4543",
"o. c #534543",
"O. c #5A4C44",
"+. c #5C4B4A",
"@. c #574945",
"#. c #5B5349",
"$. c #564B52",
"%. c #5A5555",
"&. c #634E42",
"*. c #664A46",
"=. c #744B43",
"-. c #625143",
";. c #6A5547",
":. c #7D5342",
">. c #785A47",
",. c #665655",
"<. c #795B53",
"1. c #75624C",
"2. c #7B654D",
"3. c #7A6655",
"4. c #756A5B",
"5. c #766B68",
"6. c #787473",
"7. c #716D6A",
"8. c #834C2C",
"9. c #85532E",
"0. c #824D35",
"q. c #854C39",
"w. c #845333",
"e. c #8B5435",
"r. c #83533B",
"t. c #8C553A",
"y. c #8B5B3B",
"u. c #855A39",
"i. c #915939",
"p. c #95623D",
"a. c #8D613E",
"s. c #B1723B",
"d. c #A05F3F",
"f. c #8B5B44",
"g. c #835B4A",
"h. c #885745",
"j. c #945D47",
"k. c #89554A",
"l. c #8D6142",
"z. c #896447",
"x. c #946244",
"c. c #9B6444",
"v. c #9D6C45",
"b. c #93634C",
"n. c #926A4C",
"m. c #9C6B4C",
"M. c #9A6849",
"N. c #9B724C",
"B. c #876956",
"V. c #936B53",
"C. c #9B6B53",
"Z. c #976654",
"A. c #9A7457",
"S. c #89725A",
"D. c #A36B49",
"F. c #A4734B",
"G. c #AA784A",
"H. c #B5794B",
"J. c #A16B54",
"K. c #AA6E59",
"L. c #A27353",
"P. c #AC7A53",
"I. c #AC7B5A",
"U. c #A77657",
"Y. c #B27C54",
"T. c #B37C5B",
"R. c #B87957",
"E. c #B06E4E",
"W. c #897864",
"Q. c #967B67",
"!. c #877C79",
"~. c #A97C62",
"^. c #B47D61",
"/. c #9A815C",
"(. c #BD884D",
"). c #AB825D",
"_. c #B4845B",
"`. c #B98556",
"'. c #888479",
"]. c #968877",
"[. c #94876C",
"{. c #A58363",
"}. c #AB8664",
"|. c #AD8D6C",
" X c #A68868",
".X c #BB8B63",
"XX c #B28D6D",
"oX c #B58766",
"OX c #B8926D",
"+X c #A68872",
"@X c #B88C74",
"#X c #AC9573",
"$X c #B49473",
"%X c #B99778",
"&X c #A89269",
"*X c #C38958",
"=X c #C99459",
"-X c #D4985A",
";X c #C0844E",
":X c #DCA25D",
">X c #C48A67",
",X c #C4946D",
"<X c #CD9D6A",
"1X c #C89664",
"2X c #D39968",
"3X c #C79977",
"4X c #DBA365",
"5X c #DCAA6D",
"6X c #D7A568",
"7X c #CDA47A",
"8X c #D9AA75",
"9X c #D9B178",
"0X c #E6B479",
"qX c #E3AF6E",
"wX c #7F8180",
"eX c #948C81",
"rX c #9C958C",
"tX c #9A9488",
"yX c #999594",
"uX c #888787",
"iX c #A59588",
"pX c #A69E9C",
"aX c #A89E9C",
"sX c #A39592",
"dX c #B29783",
"fX c #A3A09C",
"gX c #A9A09E",
"hX c #BBA88D",
"jX c #A7A2A3",
"kX c #B6B0A4",
"lX c #A3A1A3",
"zX c #C39C84",
"xX c #C9A789",
"cX c #D3AB8A",
"vX c #DBB488",
"bX c #D7AD92",
"nX c #DAB796",
"mX c #CCA98C",
"MX c #E5BA85",
"NX c #E2BB95",
"BX c #F2BF80",
"VX c #CCBFAC",
"CX c #EDC285",
"ZX c #F8C88B",
"AX c #E8C798",
"SX c #F6CB97",
"DX c #FCD397",
"FX c #D3C6B8",
"GX c #FAD6A3",
"HX c #EECFA2",
"JX c #E5DBD6",
"KX c #E8DDCE",
"LX c #DBE1DD",
"PX c #DFE0D9",
/* pixels */
"                                                                                                                                                                                                        ",
"                                                                                                                                                                                                        ",
"                                                                                                                                                                                                        ",
"                                                                                                                                                                                                        ",
"                                                                                                                                                                                                        ",
"                                                                                                                                                                                                        ",
"                                                                                                                                                                                  VXkX                  ",
"                  4.P                                                                             3.P                                                                           FX3.P iX                ",
"                2.hXnX X                                                                      VX2.hXVX[.                                                                      FX2.xXnX X[.              ",
"                |.cXAXnX%XS.                                                                kX4.|.cXAXnX%X                                                                  kX2. X7XSXnX$XW.            ",
"              |.7XMXMXMXxX X].                                                            kX].#X7XMXMXNXxX X                                                              kX[.&X9XMXMXMX7X XeX          ",
"            $XAX8XZX0X<XvXnXB.iX                                                          B.#XAX9XZX0X<XvXnXB.                                                          VX3.#XAX6XDX0X6XvXcXB.iX        ",
"          $XvXMX5X0XqX0X1X<X%X{ +X                                                      ] $XvXMX8XCX0X0X1X<X,X{                                                       FX[ #XvXMX9XCX0X6X1X7XOX{ ].      ",
"        %XNX0X5X5XDX5X=X`.<X`..XA.W.                                                  >.$XNX0X5X5XDXqX=X(.2X`..XA.                                                    >.$XNXMX5X5XDX5X*X=X6XG.U.1.W.    ",
"      |.vX<X=X6X5XCXZX9X6X6X-X`.}.Q.W.                                              4.+XvX<X-X4X5XCXZXqX:X4X-X`.}.                                                  4.|.vX<X=X4X5XZXZX0X<X`.(._. XW.W.  ",
"    ^ |.7X=X4X5XCXSXDXMX-X=X-X*XOX+X!                                               ! |.7X=X:X4XCXSXDX0X-X=X-X*X.X{.                                                ^ XX7X=X4X4XCXZXDX0X=X(.(.G. XW.O.  ",
"    F  XG.=X4XqXSXGXSXMX-Xs.-X1XoX<.L                                               I ).).<X:XqXSXGXSXMX-XH.-X=X_.>.-.                                              ^ ~.R.2X4X0XSXGXZX0X-Xs.;X_.A.;.P   ",
"    H /.U._.1X8XSXSXGXMX=X(.<X,X:.h P                                               F |.n.).=X9XAXAXHXMX1X`.2X=X{ f o.                                              J +XM.T.1X9XHXAXDX0X1XR.`.oX] d G PX",
"  tX* d f 1 r.OXAXHXAXcX%XOXU.' R z o.                                            yX# d p h >.XXAXHXAXcX3XOXF.T I z $.                                            tX$ v u N u.XXAXHXAXvXOX{.b.E > O G PX",
"  yX= n *.u w I } ).z.U W I B < h P O.                                            yX* # P q w I ) _.a.T W U 8 7 h o.$.                                            rX* @ b , 1 I { /.{ I H k f D O . G LX",
"  yXe n *.Z , < 8 L.l.k o O ( h.R i * '.eX].                                eXeXtX,.+ * K b p 1 8 P.y.8 < < U { K M e !.eX                                eXeXeXtX,.o q J j f 1 8 n.>.k o O B W p . X.LX",
"  yXs =.:.h.B 5 u.L.~.~ > k m.U.{ 3 [ [ 1.3.>.] ] >.2.2.1.;.] ;.;.,.3.3.1.[ ;.1.] 1.-.i { :.B 1 e.F.I.( < k n.A.;.s ;.] 1.3.>.] ] 1.3.1.1.;.] ;.;.;.1.3.>.;.;.1.*.<.&.p { { B 2 w.M.Q.! o i g.V.J o X.LX",
"  sXw _ J.I.{ U I.D.K.h.3 4 D.H.Y U #X$XmXnXbX3X3XbXNXnXmX3X@X@X%XzXmXbXxX%X%XmX3XxX+X4 L.I.w.T I.v.L.{ 1 4 N.P.( I XXOXmXnXcX3X3XbXNXnXbX3X@X@X@XzXmXbXxX%X3XmXzXmX+X4 N.U.r.C T.j.Z.Q q 3 l.M.W o G LX",
"  sX< 5 M.P.u.y.>Xt.8.f.:.6 d.H.w.2 ( u.r.r.M.K.^.T.M.u.u.r.0.q.r.w.w.e.w.) { y.9.w.( 4 v.Y.u.a.OXu.Y f.g.5 v.P.{ 6 Y 9.{ w.c.P.T.I.M.y.t.w.Y w.w.w.w.e.w.8.w.f.r.` ~ 4 v.P.t.j.>Xt./ h.>.2 y.m.W O G PX",
"  rX> 1 Y oXn.a.@XC C y.z.8 D.R.0.N V.V.Z.C.Z.q.q.0.f.A.Z.' / k.D.c.8.9 t.J.C.C.J.Z.>.1 w.T.L.f.XXV V k.Z.8 D.E.Y 8 n.n.V.A.j.q.q.0.j.J.M.Y T t.m.M.Y C t.m.m.C.C.V.>.3 } I.U.k.@X8 C y.x.2 y.Z.z.^ G JX",
"  rXd W U }.N.n.@X/ T l.N.9.E.j.V g Q =.~ _ _ ' ' ' ` g.>._ _ h.h.j.x.j.j.k.:.` ' _ Z > 5 ).A.z.$XT S b.J.t.E.d.y.} ( W ~ ~ _ ` ' T ` f.h.T T ` h.f.b.b.b.g.r.' W W J < 5 ).K.j.@X) C x.D.Y M.h.f.{ P KX",
"  tXH B.k U.N.y.@XT V l.G.`.R.h.B R o o o $ r h j j v H H v b b j Z >.<.Q b m e 0 t s v 1 }.A.l.XXT S b.T.*XR.e.p.z.3 o o $ r m m b b b b b b b b K >.<.*.b v w > o p k 7 ).L.f.@X' V p.G.G.F.Y f.h.! KX",
"  tXH S.k {.}.x.@XV N l.`.2XR.q.B.B.q O.#.O.+.O.-.-.#.O.O.#.#.+.*.O.,.,.-.+.+.+.o.z K B.k A.U.m.XXN B j.`.2XR.8.y.z.o o.#.$.$.%.,.,.*.+.+.*.*.+.+.+.,.,.+.+.*.O.O.z J V.8 I.I.A.@XN N y.E.*XD.Y f.g.! KX",
"  tXF V.W ~.3X3XoX8 g f.`.1XR.e.g.<.P                                             ].J S.W ).3X,XoX6 g f.`.=XY.e.x.z.O.                                            '.k V.} I.,X,XXX5 g r.R.>XG.9.f.g.! JX",
"  sXI n.5 N p._.I.2 1 :.P.*X*Xi.` Q O.                                            rXJ V.4 8 c.`.I.2 1 { H.*X.Xl.) E o.                                            sXI A.g N v._.U.5 < ( P.R.`.i.) Q P JX",
"  sXN n.f f w._.T.C t R x.`.1Xp.S A O.                                            sXj V.f 1 t.R.^.C , E p.`.,Xb./ A +.                                            sXB V.y y u.P.U.U O j l.P.,Xx.T j o.JX",
"  sXg g.y b l._.1Xa.h b w.Y.<Xy._ n *.                                            rXk g.f B j.>X3Xx.f g 9.Y.3Xg._ b +.                                            sXk g.s n f._..Xw.3 3 ) T.,Xx.E b +.JX",
"  rXr A w Z f.I.6XG.^ k w.Y.,Xz.K x @.                                            '.i ^ , B h.T.2X_.I 4 e.R.3Xg.^ n K                                             ].q v a v g.^.2XP.B f w.Y.<Xy.Z m x JX",
"  rXr Z t j ` x.=X1XW k r.Y.3XW q % e +.-.&.&.-.L L L L L #.O.L O.#.-.L L ! &.-.L H d J , B _ x.2X1XW f 9.Y.3X` v z p W -.O.#.#.P L ! L L -.&.L L -.-.L L L &.-.! H q $ # v _ j.1X>XR h w.G.,X{ k z x JX",
"  yXe n h j S w.(.<X~ h r.oXOXW O ^ Q.+XdXmXxXzXXX}.}.}.{.{.}.{. X{. X%X3X|.}.%X#X XB., < B E f.`.<XW f w.Y.,X( > ] A.}.%XxXxXdX|.}.}.}.{.{.}.{.}.{.}.%X%X}.}.%XXX XB.w @ K E t.H.,X^ s { U.XXE r s x JX",
"  rXe K n k B w.`.1X~ w / U.V.N 7 W A.V.~.oX}.T.F.v.P..X.XU.m.N.m.N.N.P..X>X,X7X$X|.S.3 f j k :.I.3X^ , ) F.m.N < W N.v.I.oXoX).F.v.P..X.XF.v.F.v.F.F.P..X.X,X7X3XXXV.w s m k ) P.OX! q I V.B.h r s x JX",
"  yXa *.A u g r.H._.^ 0 N f.~ 4 U w.y.w.w.w.e.e.y.i.i.c.x.0.C 0.e.i.e.i.D.D.c.x.V.V.>.w b w h <.~.~.b 0 N f.( 4 J >.y.9.e.e.e.e.i.i.i.x.x.8.C 8.e.i.e.t.M.D.c.c.m.n.>.w v r u ) G._.H . < ` *.e r l o.JX",
"  yXl *.*.u y r.G.).R t y _ R , W z.b.C.C.Z.U.C.C.C.h.' ' S S r.J.m.M.J.U.x.) U I R h 0 n r n =.Z.` m r , ' j > &.3.V.C.C.C.K.J.C.C.h./ / C C r.C.C.C.J.K.b.) T N I j r n t h ` c.L.f o , j m @ e e o.  ",
"  yXa n *.h g h.P.L.*.s u Z s q q d i p h v =.~ =.=._ A A A Q =._ ` ` E E ~ b w q e e q e 0 h *.k.A  .x t Z s $ = l p w f j =.=.~ =.~ Z A E Q ~ ~ =.=.E Q ~ Z , > i @ @ & : y ` c.x.R s , f q @ & % o.  ",
"  yX% l n h h :.A.{ ;.z r A q c = & # # % & l e e q e r e r r t r t w s e e % % % + % % @ 0 h Q A _ *.x r n e c - + $ o $ % a e e q e a e e a e e q e s a e q $ # + # = & X t :.b.0.Q r < v o a $ % o.  ",
"    !.a e s h ~ :.E v M t o.e x c $.yXjXjXaXpXjXpXfXfXfXpXfXfXpXaXaXaXaXfXfXfXfXjXpX!.% o q s ! E R n a t K a G - $.                aXaXgXgXpXaXaXgXpXaXaXaXaXpXjXlXwX- + $ s ~ ` E m q o v o a = +.jX  ",
"      = $ @ s K ^ k e @ c x & x c 7.                                                  = * # a H ^ j i o s v @ l c 7.                                                  - * # a H ~ h @ X e i . l c 7.    ",
"      #.% c c z d > x = & & c * - '.                                                  %.# = c z z o z % $ $ x l l                                                     %.# = l z z % c & . X * # - yX    ",
"        ,.5.!.6.P z 5.,.c X.6.#.yX                                                      %.6.uX6.X.z 5.4.c X.6.%.                                                        #.7.'.6.x x 7.%.; X.6.X.uX      ",
"                                                                                                                                                                                                        ",
"                                                                                                                                                                                                        ",
"                                                                                                                                                                                                        ",
"                                                                                                                                                                                                        ",
"                                                                                                                                                                                                        ",
"                                                                                                                                                                                                        "
};
