/* XPM */
static char *_1ef8e3e9a2e4c389005dbb40d25ab7eRJOKXOmrfxXFNapg[] = {
/* columns rows colors chars-per-pixel */
"40 40 36 1 ",
"  c #73BF3E",
". c #7CC53F",
"X c #71BD43",
"o c #7CC54C",
"O c #87CC43",
"+ c #87CD4C",
"@ c #89CE49",
"# c #90D241",
"$ c #96D742",
"% c #9BDA42",
"& c #9CDA43",
"* c #9CDB43",
"= c #9CDB44",
"- c #9FDD47",
"; c #9FDD48",
": c #83CB56",
"> c #84CB55",
", c #9DDC53",
"< c #A1DF4A",
"1 c #A5DE56",
"2 c #A7DF5A",
"3 c #A8DF5A",
"4 c #A3E04B",
"5 c #A4E04E",
"6 c #A7E353",
"7 c #A7E354",
"8 c #AAE557",
"9 c #A2E05A",
"0 c #ACE759",
"q c #AEE95B",
"w c #96D860",
"e c #A3E167",
"r c #ADE96A",
"t c #B3EC61",
"y c #B1E26C",
"u c #B3EC6A",
/* pixels */
"%&%&%%%&%&%%&%%%%%&%%%%&%%%%&%%%%%%%%%%1",
"&&&&&&&&&&&&&&&&&&&&&&&&&&&&&&&&&&&&&&&1",
"&&&&&&&&&&&&&&&&&&&&&&&&&&&&&&&&&&&&&&&1",
"&&&&&&&&&&&&&&&&&&&&&&&&&&&&&&&&&&&&&&&1",
"&&&&&&&&&&&&&&&&&&&&&&&&&&&&&&&&&&&&&&&1",
"&&&&&&&&&&&&&&&&&&&&&&&&&&&&&&&&&&&&&&&1",
"&&&&&&&&&&&&&&&&&&&&&&&&&&&&&&&&&&&&&&&1",
"&&&&&&&&&&&&&&&&&&&&&&&&&&&&&&&&&&&&&&&1",
"&&&&&&&&&&&&&&&&&&&&&&&&&&&&&&&&&&&&&&&1",
"&&&&&&&&&&&&&&&&&&&&&&&&&&&&&&&&&&&&&&&1",
"&&&&&&&&&&&&&&&&&&&&&&&&&&&&&&&&&&&&&&&1",
"&&&&&&&&&&&&&&&&&&&&&&&&&&&&&&&&&&&&&&&1",
"&&&&&&&&&&&&&&&&&&&&&&&&&&&&&&&&&&&&&&&1",
"&&&&&&&&&&&&&&&&&&%&&%&&&&&&&&&&&&&&&&&1",
"&&&&&&&&&&&&&&&&&&%%%%%%%&&&&&&&&&&&&&&1",
"&&&&&&&&&&&&&&&&&%%-5&&=&%&&&&&&&&&&&&&1",
"&&&&&&&&&&&&&&&&&%%@r6t0%&&&&&&&&&&&&&&1",
"&&&&&&&&&&&&&&&&&%&.oqwX%&&&&&&&&&&&&&&1",
"&&&&&&&&&&&&&&&&&%%&&-O#&%&&&&&&&&&&&&&1",
"&&&&&&&&&&&&&&&&&&&%%%&%%%&&&&&&&&&&&&&1",
"&&&&&&&&&&&&&&&&&&&&&&%%&&&&&&&&&&&&&&&1",
"&&&&&&&&&&&&&&&&&&&&&&&&&&&&&&&&&&&&&&&1",
"&&&&&&&&&&&&&&%&&%&&&&&&&&&&&&&&&&&&&&&1",
"&&&&&&&&&&&&&%&%%%%%%&&&&&&&&&&&&&&&&&&1",
"&&&&&&&&&&&&%%%5q=<<%%&&&&&&&&&&&&&&&&&1",
"&&&&&&&&&&&&&%;oe8u,%%&&&&&&&&&&&&&&&&&1",
"&&&&&&&&&&&&%%9e+7: %%&&&&&&&&&&&&&&&&&1",
"&&&&&&&&&&&&%&X>4%$%%%&&&&&&&&&&&&&&&&&1",
"&&&&&&&&&&&&%%%$&%%%%%&&&&&&&&&&&&&&&&&1",
"&&&&&&&&&&&&%%%%%&&&&&&&&&&&&&&&&&&&&&&1",
"&&&&&&&&&&&&&&&&&&&&&&&&&&&&&&&&&&&&&&&1",
"&&&&&&&&&&&&&&&&&&&&&&&&&&&&&&&&&&&&&&&1",
"&&&&&&&&&&&&&&&&&&&&&&&&&&&&&&&&&&&&&&&1",
"&&&&&&&&&&&&&&&&&&&&&&&&&&&&&&&&&&&&&&&1",
"&&&&&&&&&&&&&&&&&&&&&&&&&&&&&&&&&&&&&&&1",
"&&&&&&&&&&&&&&&&&&&&&&&&&&&&&&&&&&&&&&&1",
"&&&&&&&&&&&&&&&&&&&&&&&&&&&&&&&&&&&&&&&1",
"&&&&&&&&&&&&&&&&&&&&&&&&&&&&&&&&&&&&&&&1",
"&&&&&&&&&&&&&&&&&&&&&&&&&&&&&&&&&&&&&&&1",
"333233333333333333333333333333333333333y"
};
