/* XPM */
static char * grass_xpm[] = {
"40 40 41 1",
" 	c #8B9150",
".	c #878F51",
"+	c #899050",
"@	c #868F51",
"#	c #878F50",
"$	c #8A9050",
"%	c #688354",
"&	c #7B8A52",
"*	c #7D8B52",
"=	c #5E8054",
"-	c #6B8453",
";	c #758852",
">	c #6D8553",
",	c #708653",
"'	c #8A9150",
")	c #7E8B52",
"!	c #848E51",
"~	c #557D55",
"{	c #658254",
"]	c #5B7F55",
"^	c #858E51",
"/	c #818D51",
"(	c #838E51",
"_	c #7A8A52",
":	c #718653",
"<	c #738753",
"[	c #788952",
"}	c #889050",
"|	c #7E8C51",
"1	c #7C8B52",
"2	c #798952",
"3	c #748753",
"4	c #828D51",
"5	c #628154",
"6	c #808C51",
"7	c #728753",
"8	c #838D51",
"9	c #5F8054",
"0	c #638154",
"a	c #6A8453",
"b	c #668254",
"                                        ",
"                                        ",
"                                        ",
"                           .++@@@@#     ",
"                          $%&*====-     ",
"     ;>>,#                ')!&~~~~{     ",
"     {~~]^//            (___!&~~~~{     ",
"     {~~]^:<            ;~~~[&~~~~{     ",
"     {~~]^}}            ;~~~[&~~~~{     ",
"     |__1+2>3'          ;~~~[^____|     ",
"      4_1+>~5+          )>>>6^___4      ",
"      7~]^:=%$             .+&~~~7      ",
"      7~]^}@.             $%&&~~~7      ",
"      4_1+                ')!&~~~7      ",
"                             />>>1      ",
"                                        ",
"                                        ",
"                                        ",
"                                        ",
"                                        ",
"                                        ",
"                                        ",
"                                        ",
"                                        ",
"                                        ",
"      1>>>/                   #,8       ",
"      7~~~&               ')_/#,8       ",
"   '@$7~~~&+.             +5~>'@@@#     ",
"   (947~~~&&%$            +5~>@0==-     ",
"   }_#4___^!)'            ')_/^]~~{     ",
"     |_6$*____.         (____/^]~~{     ",
"     {~a#9~~~~6         ;~~~~>@0==-     ",
"     {~a#9~~~~6         ;~~~~>'@@@#     ",
"     |_6#9~~~~6         ;~~~~>#,8       ",
"        #9~~~~6         ;~~~~>#,8       ",
"        }b====/         [====:          ",
"         @@@@@$         }@@@@}          ",
"                                        ",
"                                        ",
"                                        "};
