/* XPM */
static char * pokeball_xpm[] = {
"50 50 428 2",
"  	c None",
". 	c #4F4C4C",
"+ 	c #2D2626",
"@ 	c #2A1B1A",
"# 	c #2A2325",
"$ 	c #545252",
"% 	c #533736",
"& 	c #8E3936",
"* 	c #B1352F",
"= 	c #CB3A30",
"- 	c #DC3C33",
"; 	c #E54036",
"> 	c #EA4237",
", 	c #EA4137",
"' 	c #E64036",
") 	c #DC3D33",
"! 	c #CA3A33",
"~ 	c #B33530",
"{ 	c #913F3C",
"] 	c #5E3F3F",
"^ 	c #473839",
"/ 	c #913533",
"( 	c #CB3A32",
"_ 	c #EA4036",
": 	c #EE4035",
"< 	c #EF4035",
"[ 	c #EF4036",
"} 	c #EB4137",
"| 	c #CC3A33",
"1 	c #963B38",
"2 	c #4C3C3C",
"3 	c #4D4343",
"4 	c #9D3733",
"5 	c #DD3E35",
"6 	c #E03F36",
"7 	c #A13531",
"8 	c #554848",
"9 	c #803C3B",
"0 	c #D5635D",
"a 	c #EF8985",
"b 	c #EE8782",
"c 	c #EE534C",
"d 	c #EE4036",
"e 	c #DB3D35",
"f 	c #853330",
"g 	c #494646",
"h 	c #B19B98",
"i 	c #F7E4E3",
"j 	c #FDFEFD",
"k 	c #FFFFFF",
"l 	c #FDF9F8",
"m 	c #F2B3B0",
"n 	c #ED4036",
"o 	c #B33630",
"p 	c #4E4142",
"q 	c #616060",
"r 	c #D9D7D7",
"s 	c #FEFFFF",
"t 	c #FDFFFE",
"u 	c #EF9C98",
"v 	c #CF3B34",
"w 	c #583839",
"x 	c #575556",
"y 	c #E5E5E5",
"z 	c #F7DAD9",
"A 	c #D83C34",
"B 	c #5C3131",
"C 	c #534142",
"D 	c #DED2D0",
"E 	c #F8E4E2",
"F 	c #EE4034",
"G 	c #D63D35",
"H 	c #593C3D",
"I 	c #474444",
"J 	c #C28581",
"K 	c #F5CECD",
"L 	c #C93A33",
"M 	c #433D3D",
"N 	c #9F3733",
"O 	c #F6CBC9",
"P 	c #FEFEFE",
"Q 	c #F0938E",
"R 	c #A8352F",
"S 	c #6C3836",
"T 	c #E94036",
"U 	c #F8E5E3",
"V 	c #F7DDDA",
"W 	c #EB4035",
"X 	c #763C3B",
"Y 	c #C93931",
"Z 	c #EF3F35",
"` 	c #F7DFDD",
" .	c #FAEFEE",
"..	c #ED665F",
"+.	c #443F40",
"@.	c #813634",
"#.	c #F2AFAB",
"$.	c #FAE6E5",
"%.	c #EE6D68",
"&.	c #BD3730",
"*.	c #8C3836",
"=.	c #674041",
"-.	c #563F41",
";.	c #713E3F",
">.	c #973734",
",.	c #C93932",
"'.	c #EE4037",
").	c #8E3D3B",
"!.	c #CA3A31",
"~.	c #EE443B",
"{.	c #F5CCC9",
"].	c #FEFEFD",
"^.	c #FCF3F2",
"/.	c #F2B6B3",
"(.	c #ED4B43",
"_.	c #643D3D",
":.	c #535154",
"<.	c #59575A",
"[.	c #4F4D4F",
"}.	c #793837",
"|.	c #DB3E34",
"1.	c #D23B33",
"2.	c #4C4949",
"3.	c #714241",
"4.	c #EE7872",
"5.	c #F1A9A5",
"6.	c #F2ABA8",
"7.	c #F08A85",
"8.	c #ED483E",
"9.	c #BF3832",
"0.	c #4D484A",
"a.	c #514F51",
"b.	c #4A484A",
"c.	c #6B696A",
"d.	c #4F4C4E",
"e.	c #4E4C4E",
"f.	c #595759",
"g.	c #583F40",
"h.	c #D43C34",
"i.	c #7A403E",
"j.	c #AA332E",
"k.	c #D23C34",
"l.	c #4D4648",
"m.	c #575557",
"n.	c #706E6F",
"o.	c #D3D2D2",
"p.	c #FBFBFB",
"q.	c #FEFDFD",
"r.	c #DDDDDD",
"s.	c #828182",
"t.	c #555255",
"u.	c #613D3E",
"v.	c #E43F36",
"w.	c #B4352F",
"x.	c #4F4D4D",
"y.	c #D53C33",
"z.	c #ED4136",
"A.	c #773A39",
"B.	c #595659",
"C.	c #7D7C7D",
"D.	c #F6F6F6",
"E.	c #D9D8D8",
"F.	c #CFCFCF",
"G.	c #D0D0D0",
"H.	c #D1D0D0",
"I.	c #D1D1D1",
"J.	c #FAFAFA",
"K.	c #979697",
"L.	c #575457",
"M.	c #565557",
"N.	c #A03631",
"O.	c #DC3F35",
"P.	c #413D3E",
"Q.	c #593534",
"R.	c #EC4136",
"S.	c #ED4137",
"T.	c #DE3E34",
"U.	c #C93A31",
"V.	c #B5352F",
"W.	c #8F3A38",
"X.	c #7D3B3A",
"Y.	c #724041",
"Z.	c #624041",
"`.	c #514E51",
" +	c #4C4A4C",
".+	c #EBEAEB",
"++	c #D2D1D2",
"@+	c #F0F0F0",
"#+	c #F8F8F8",
"$+	c #C9C9C9",
"%+	c #F7F7F7",
"&+	c #616061",
"*+	c #524243",
"=+	c #E74036",
"-+	c #6E4241",
";+	c #8A4240",
">+	c #ED4035",
",+	c #D53C34",
"'+	c #8A3A38",
")+	c #5D3F41",
"!+	c #4A4749",
"~+	c #504F51",
"{+	c #575558",
"]+	c #969596",
"^+	c #F4F4F4",
"/+	c #D9D8D9",
"(+	c #ECECEC",
"_+	c #E3E2E3",
":+	c #B3B2B2",
"<+	c #58575A",
"[+	c #943330",
"}+	c #C43931",
"|+	c #E33F36",
"1+	c #923936",
"2+	c #A2312C",
"3+	c #EA4037",
"4+	c #9B3835",
"5+	c #5F4142",
"6+	c #4C4B4D",
"7+	c #565558",
"8+	c #B7B7B7",
"9+	c #D5D5D5",
"0+	c #D0CFCF",
"a+	c #535153",
"b+	c #4A4446",
"c+	c #7F3B39",
"d+	c #BB3630",
"e+	c #AD332E",
"f+	c #B7362F",
"g+	c #CF3A33",
"h+	c #9A3834",
"i+	c #584343",
"j+	c #515052",
"k+	c #B6B6B6",
"l+	c #D6D5D5",
"m+	c #535254",
"n+	c #544142",
"o+	c #A13632",
"p+	c #DA3D35",
"q+	c #BE3630",
"r+	c #AE342E",
"s+	c #AE352F",
"t+	c #693F3F",
"u+	c #504D50",
"v+	c #949293",
"w+	c #F5F5F5",
"x+	c #D9D9D9",
"y+	c #EBEAEA",
"z+	c #B1B0B1",
"A+	c #59565A",
"B+	c #585659",
"C+	c #4B4748",
"D+	c #863936",
"E+	c #9E312C",
"F+	c #2E2C2E",
"G+	c #363537",
"H+	c #585759",
"I+	c #555356",
"J+	c #525053",
"K+	c #514F52",
"L+	c #565457",
"M+	c #4B494C",
"N+	c #E9E8E8",
"O+	c #D4D3D4",
"P+	c #EDEDED",
"Q+	c #F6F5F6",
"R+	c #CAC9C9",
"S+	c #F5F4F5",
"T+	c #5F5D5F",
"U+	c #4D4A4D",
"V+	c #333234",
"W+	c #363638",
"X+	c #545255",
"Y+	c #4D4B4D",
"Z+	c #807F80",
"`+	c #9E9D9D",
" @	c #B0AFB0",
".@	c #C4C4C4",
"+@	c #CDCCCC",
"@@	c #D8D7D7",
"#@	c #E1E1E1",
"$@	c #696769",
"%@	c #797879",
"&@	c #D0CECF",
"*@	c #D3D1D2",
"=@	c #D4D4D4",
"-@	c #929191",
";@	c #38383A",
">@	c #545154",
",@	c #4B484A",
"'@	c #838282",
")@	c #EBEBEB",
"!@	c #FFFEFF",
"~@	c #CECECE",
"{@	c #6A696A",
"]@	c #CDCDCD",
"^@	c #FFFEFE",
"/@	c #FCFBFB",
"(@	c #7D7B7C",
"_@	c #525152",
":@	c #5C5A5B",
"<@	c #313032",
"[@	c #414042",
"}@	c #525051",
"|@	c #6E6D6C",
"1@	c #888786",
"2@	c #EDECEC",
"3@	c #ABAAAA",
"4@	c #474547",
"5@	c #565556",
"6@	c #484648",
"7@	c #504E50",
"8@	c #E3E3E3",
"9@	c #BCBBBB",
"0@	c #4B494B",
"a@	c #312F31",
"b@	c #424142",
"c@	c #706F6E",
"d@	c #8F8D8C",
"e@	c #A09F9D",
"f@	c #DCDBDB",
"g@	c #B6B5B5",
"h@	c #EEEEEE",
"i@	c #BEBDBE",
"j@	c #787677",
"k@	c #4E4B4E",
"l@	c #484646",
"m@	c #8A8887",
"n@	c #9F9E9C",
"o@	c #BAB9B8",
"p@	c #E6E6E6",
"q@	c #9F9F9F",
"r@	c #545254",
"s@	c #4F4C4F",
"t@	c #4B484B",
"u@	c #656364",
"v@	c #AFAEAF",
"w@	c #F1F1F1",
"x@	c #5F5D5E",
"y@	c #4D4C4C",
"z@	c #9C9A99",
"A@	c #FDFDFD",
"B@	c #E7E6E7",
"C@	c #EEEDEE",
"D@	c #3F3D3D",
"E@	c #858483",
"F@	c #C5C4C4",
"G@	c #D2D2D2",
"H@	c #656463",
"I@	c #A1A09E",
"J@	c #989898",
"K@	c #403E3F",
"L@	c #999796",
"M@	c #B5B4B3",
"N@	c #F2F1F2",
"O@	c #494748",
"P@	c #727070",
"Q@	c #D0D0CF",
"R@	c #B4B3B3",
"S@	c #4B4949",
"T@	c #999896",
"U@	c #E2E1E1",
"V@	c #F3F2F3",
"W@	c #595758",
"X@	c #6B6969",
"Y@	c #A3A1A0",
"Z@	c #979696",
"`@	c #484747",
" #	c #898887",
".#	c #F8F7F7",
"+#	c #A7A5A5",
"@#	c #504F4F",
"##	c #D0CFCE",
"$#	c #494647",
"%#	c #595757",
"&#	c #9D9C9A",
"*#	c #FBFAFA",
"=#	c #9F9D9C",
"-#	c #575555",
";#	c #5E5C5B",
">#	c #9E9D9B",
",#	c #C4C3C2",
"'#	c #AAA9A8",
")#	c #605E5E",
"!#	c #5C5A5A",
"~#	c #9C9B9A",
"{#	c #B8B7B6",
"]#	c #DAD9D9",
"^#	c #F3F3F3",
"/#	c #E7E6E6",
"(#	c #C9C8C8",
"_#	c #A6A5A3",
":#	c #9D9B9A",
"<#	c #585556",
"[#	c #959392",
"}#	c #ABAAA8",
"|#	c #BFBEBD",
"1#	c #D4D3D3",
"2#	c #D8D8D7",
"3#	c #D7D6D6",
"4#	c #C7C6C5",
"5#	c #525050",
"6#	c #424041",
"7#	c #7E7D7C",
"8#	c #807F7E",
"9#	c #444242",
"0#	c #4D4B4C",
"a#	c #8F8E8D",
"b#	c #5A5858",
"c#	c #454344",
"d#	c #434141",
"e#	c #888785",
"f#	c #605E5D",
"g#	c #3F3D3E",
"h#	c #6B6968",
"i#	c #868483",
"j#	c #989795",
"k#	c #878684",
"l#	c #6C6A6A",
"m#	c #4D4B4B",
"n#	c #585657",
"o#	c #5E5B5B",
"p#	c #656262",
"q#	c #656363",
"r#	c #5E5B5C",
"s#	c #595657",
"t#	c #4B4849",
"u#	c #434041",
"                                                                                                    ",
"                                            . + @ @ # $                                             ",
"                                    % & * = - ; > , ' ) ! ~ { ]                                     ",
"                              ^ / ( _ : : : : : : : : : < : [ } | 1 2                               ",
"                          3 4 5 : < : : : : : : : : : : : : : : : [ 6 7 8                           ",
"                        9 0 a b c : < : : : : : : : : : : : : : : : : d e f                         ",
"                    g h i j k k l m : : : : : : : : : : : : : : : : : : < n o p                     ",
"                  q r s k k k k k t u : : : : : : : : : : : : : : : : : : : < v w                   ",
"                x y k k k k k k k k z < : : : : : : : : : : : : : : : : : : : : A B                 ",
"              C D k k k k k k k k k E F : : : : : : : : : : : : : : : : : : : : < G H               ",
"            I J j k k k k k k k k k K < : : : : : : : : : : : : : : : : : : : : : < L M             ",
"            N O k k k k k k k k k P Q : : : : : : : : : : : : : : : : : : : : : : : : R             ",
"          S T U k k k k k k k k s V d : : : : : : : : : : : : : : : : : : : : : : : : W X           ",
"          Y Z ` k k k k k k k k  ...: : : : : : : : : : < < d < < : : : : : : : : : : : v +.        ",
"        @.d < #.t k k k k k s $.%.: : : : : : : : < _ &.*.=.-.;.>.,.'.: : : : : : : : : [ ).        ",
"        !.< : ~.{.].t k t ^./.(.: : : : : : : : < ! _.:.<.<.<.<.<.[.}.|.: : : : : : : : : 1.2.      ",
"      3.n : : : d 4.5.6.7.8.< : : : : : : : : < 9.0.<.<.a.b.c.d.e.<.f.g.h.: : : : : : : : d i.      ",
"      j.d : : : : : : : : : : : : : : : : : : k.l.<.m.n.o.p.k q.r.s.t.<.u.v.: : : : : : : : w.      ",
"    x.y.[ : : : : : : : : : : : d < < : : : z.A.<.B.C.D.E.F.G.H.I.J.K.L.M.N.: : : : : : : : O.P.    ",
"    Q.R.: : : : : : : [ : [ S.T.U.V.7 W.X.Y.Z.`.<. +.+++@+k k k #+$+%+&+<.*+=+: : : : : : : d -+    ",
"    ;+: : : : : : >+S.,+~ '+)+!+~+{+<.<.<.<.<.<.<.]+^+/+k k k k k (+_+:+<+a.[+}+|+: : : : : : 1+    ",
"    2+: : : : 3+Y 4+5+6+7+<.<.<.<.<.<.<.<.<.<.<.<.8+9+p.k k k k k k o.0+:.<.<.a+b+c+d+=+d : : e+    ",
"    f+: n g+h+i+j+<.<.<.<.<.<.<.<.<.<.<.<.<.<.<.<.k+l+p.k k k k k k o.F.:.<.<.<.<.<.m+n+o+p+: q+    ",
"    r+s+t+u+<.<.<.<.<.<.<.<.<.<.<.<.<.<.<.<.<.<.<.v+w+x+k k k k k y+y z+A+<.<.<.<.<.<.<.B+C+D+E+    ",
"    F+G+{+<.<.<.<.<.<.<.<.<.<.<.<.<.<.H+I+J+K+L+<.M+N+O+P+k k k Q+R+S+T+<.<.<.<.<.<.<.<.<.<.<.U+    ",
"    V+W+ +<.<.<.<.<.<.<.<.X+U+Y+Z+`+ @.@+@@@#@$@<.B.%@^+r.&@*@H.=@J.-@L.<.B+<.<.<.<.<.<.<.<.<.I+    ",
"    V+W+;@J+<.<.<.>@,@'@z+H.)@P !@k k k k k k ~@K+<.{+{@]@#+^@/@@@(@I+<._@k+K.:@e.B+<.<.<.<.<.X+    ",
"    <@W+W+W+[@}@|@1@2@k k k k k k k k k k k k !@3@>@<.<.J+4@5@6@7@f.<.[.]@k k P 8@9@Z+0@{+<.<.K+    ",
"    a@V+b@c@d@e@e@e@f@k k k k k k k k k k k k k P g@Y+f.<.<.<.<.<.B+f.H.k k k k k k k h@i@j@k@!+    ",
"    l@m@n@e@e@e@e@e@o@k k k k k k k k k k k k k k k p@q@r@ +s@t@u@v@w@k k k k k k k k k k k 8@x@    ",
"    y@z@e@e@e@e@e@e@e@@+k k k k k k k k k k k k k k k k A@y+B@C@k k k k k k k k k k k k k k Q+D@    ",
"      E@e@e@e@e@e@e@e@F@k k k k k k k k k k k k k k k k k k k k k k k k k k k k k k k k k k G@      ",
"      H@e@e@e@e@e@e@e@I@P+k k k k k k k k k k k k k k k k k k k k k k k k k k k k k k k k k J@      ",
"      K@L@e@e@e@e@e@e@e@M@A@k k k k k k k k k k k k k k k k k k k k k k k k k k k k k k k N@O@      ",
"        P@e@e@e@e@e@e@e@e@Q@k k k k k k k k k k k k k k k k k k k k k k k k k k k k k k k R@        ",
"        S@T@e@e@e@e@e@e@e@e@U@k k k k k k k k k k k k k k k k k k k k k k k k k k k k k V@W@        ",
"          X@e@e@e@e@e@e@e@e@Y@p@k k k k k k k k k k k k k k k k k k k k k k k k k k k p.Z@          ",
"          `@ #e@e@e@e@e@e@e@e@Y@#@k k k k k k k k k k k k k k k k k k k k k k k k k .#+#@#          ",
"            `@L@e@e@e@e@e@e@e@e@e@##A@k k k k k k k k k k k k k k k k k k k k k k (++#$#            ",
"              %#&#e@e@e@e@e@e@e@e@e@M@P+k k k k k k k k k k k k k k k k k k k *#0+=#-#              ",
"                ;#>#e@e@e@e@e@e@e@e@e@e@,#h@k k k k k k k k k k k k k k k J.x+'#>#)#                ",
"                  !#~#e@e@e@e@e@e@e@e@e@e@e@{#]#^#k k k k k k k k k p./#(#_#e@:#)#                  ",
"                    <#[#e@e@e@e@e@e@e@e@e@e@e@e@e@}#|#+@1#2#3#H.4#M@I@e@e@e@[#5#                    ",
"                      6#7#e@e@e@e@e@e@e@e@e@e@e@e@e@e@e@e@e@e@e@e@e@e@e@e@8#9#                      ",
"                        0#-#d@e@e@e@e@e@e@e@e@e@e@e@e@e@e@e@e@e@e@e@e@a#b#c#                        ",
"                            d#;#e#n@e@e@e@e@e@e@e@e@e@e@e@e@e@e@n@ #f#y@                            ",
"                                g#0#h#i#j#e@e@e@e@e@e@e@e@L@k#l#m#b@                                ",
"                                        K@S@n#o#p#q#r#s#t#u#                                        ",
"                                                                                                    ",
"                                                                                                    "};
