/* XPM */
static char * wall_xpm[] = {
"40 40 318 2",
"  	c #8B9150",
". 	c #8A9050",
"+ 	c #71764A",
"@ 	c #656945",
"# 	c #646943",
"$ 	c #646843",
"% 	c #626740",
"& 	c #626640",
"* 	c #656944",
"= 	c #787D4B",
"- 	c #878D4F",
"; 	c #74794A",
"> 	c #454740",
", 	c #676467",
"' 	c #7E7A7B",
") 	c #7D797A",
"! 	c #7D7979",
"~ 	c #837E7E",
"{ 	c #98928F",
"] 	c #9A9491",
"^ 	c #6B6869",
"/ 	c #4D513D",
"( 	c #7A7F4C",
"_ 	c #868D51",
": 	c #899050",
"< 	c #868F51",
"[ 	c #878F50",
"} 	c #80854D",
"| 	c #494A45",
"1 	c #5E5C5F",
"2 	c #A39D9B",
"3 	c #BFB8B4",
"4 	c #BEB7B3",
"5 	c #BDB6B2",
"6 	c #C4BDB8",
"7 	c #E0D7CF",
"8 	c #EAE1D7",
"9 	c #B7B0AA",
"0 	c #625F61",
"a 	c #545645",
"b 	c #657F53",
"c 	c #7B8A52",
"d 	c #7D8B52",
"e 	c #5E8054",
"f 	c #6B8453",
"g 	c #758852",
"h 	c #6D8553",
"i 	c #708653",
"j 	c #7F854C",
"k 	c #555451",
"l 	c #A59F9D",
"m 	c #C0B9B5",
"n 	c #C6BEB9",
"o 	c #E1D9D0",
"p 	c #E7DED5",
"q 	c #B5AEA8",
"r 	c #555747",
"s 	c #7A8751",
"t 	c #848E51",
"u 	c #557D55",
"v 	c #658254",
"w 	c #5B7F55",
"x 	c #858E51",
"y 	c #76814D",
"z 	c #545552",
"A 	c #ACA6A3",
"B 	c #C1BAB6",
"C 	c #C7C0BB",
"D 	c #CCC5BF",
"E 	c #A49E9B",
"F 	c #4E5447",
"G 	c #768651",
"H 	c #687B4F",
"I 	c #525452",
"J 	c #ACA5A3",
"K 	c #9A9593",
"L 	c #414E47",
"M 	c #537954",
"N 	c #788952",
"O 	c #7C844C",
"P 	c #565552",
"Q 	c #C1B9B5",
"R 	c #9B9594",
"S 	c #7E8C51",
"T 	c #7A8A52",
"U 	c #7C8B52",
"V 	c #6F7D4E",
"W 	c #525352",
"X 	c #414F47",
"Y 	c #537A54",
"Z 	c #828D51",
"` 	c #647A4F",
" .	c #4F5252",
"..	c #474F46",
"+.	c #657B50",
"@.	c #7A854F",
"#.	c #7E874F",
"$.	c #778751",
"%.	c #728753",
"&.	c #505352",
"*.	c #9D9796",
"=.	c #49494C",
"-.	c #56574E",
";.	c #58584E",
">.	c #4A4E48",
",.	c #48634C",
"'.	c #557C55",
").	c #7D844C",
"!.	c #555552",
"~.	c #C1BAB5",
"{.	c #B5AEAB",
"].	c #AEA8A4",
"^.	c #C8C0B9",
"/.	c #C8C1B9",
"(.	c #837E7D",
"_.	c #2E3A3B",
":.	c #47624B",
"<.	c #547B54",
"[.	c #6F7B4E",
"}.	c #676C47",
"|.	c #5E6241",
"1.	c #484749",
"2.	c #999492",
"3.	c #B9B2AF",
"4.	c #B3ADAA",
"5.	c #B2ACA9",
"6.	c #C6BFBA",
"7.	c #DAD2CA",
"8.	c #EBE2D8",
"9.	c #CDC6BE",
"0.	c #888481",
"a.	c #3E5046",
"b.	c #7D824D",
"c.	c #565A41",
"d.	c #535156",
"e.	c #797576",
"f.	c #7C7879",
"g.	c #8C8888",
"h.	c #A6A09E",
"i.	c #B1ABA8",
"j.	c #9F9A98",
"k.	c #A49F9D",
"l.	c #C2BBB6",
"m.	c #D9D1CA",
"n.	c #E2D9D1",
"o.	c #ACA5A1",
"p.	c #485444",
"q.	c #6B8352",
"r.	c #898E4F",
"s.	c #5A5D45",
"t.	c #4C4B51",
"u.	c #8B8686",
"v.	c #BCB5B1",
"w.	c #BBB4B0",
"x.	c #A39E9C",
"y.	c #959090",
"z.	c #928E8E",
"A.	c #938E8E",
"B.	c #908C8C",
"C.	c #A59F9E",
"D.	c #C2BAB6",
"E.	c #948F8D",
"F.	c #585B44",
"G.	c #898F4F",
"H.	c #8C8787",
"I.	c #BBB5B1",
"J.	c #94908F",
"K.	c #938F8E",
"L.	c #8E8A8A",
"M.	c #918D8D",
"N.	c #A7A19F",
"O.	c #938E8D",
"P.	c #565A44",
"Q.	c #868D50",
"R.	c #B9B3AF",
"S.	c #B6B0AD",
"T.	c #A49E9C",
"U.	c #686568",
"V.	c #898586",
"W.	c #A7A29F",
"X.	c #BAB3AF",
"Y.	c #948E8D",
"Z.	c #465345",
"`.	c #648053",
" +	c #A9A3A0",
".+	c #545257",
"++	c #868384",
"@+	c #8B8788",
"#+	c #737072",
"$+	c #A09A99",
"%+	c #3F5146",
"&+	c #AAA3A1",
"*+	c #565459",
"=+	c #878384",
"-+	c #AAA4A1",
";+	c #948F8E",
">+	c #7F8A51",
",+	c #535945",
"'+	c #BAB3B0",
")+	c #C0B8B4",
"!+	c #A09B99",
"~+	c #525056",
"{+	c #868283",
"]+	c #597D54",
"^+	c #425246",
"/+	c #736F72",
"(+	c #BAB4B0",
"_+	c #ADA7A4",
":+	c #636064",
"<+	c #979392",
"[+	c #979292",
"}+	c #716E71",
"|+	c #959190",
"1+	c #9A9695",
"2+	c #969191",
"3+	c #999594",
"4+	c #B0A9A6",
"5+	c #B7B0AD",
"6+	c #B8B2AE",
"7+	c #B8B1AE",
"8+	c #726E71",
"9+	c #928E8D",
"0+	c #8F8B8C",
"a+	c #9E9998",
"b+	c #8F8B8B",
"c+	c #9D9997",
"d+	c #AFA9A6",
"e+	c #9B9695",
"f+	c #A9A4A1",
"g+	c #BDB7B3",
"h+	c #AFA9A7",
"i+	c #938F8F",
"j+	c #837F80",
"k+	c #726F72",
"l+	c #8A8687",
"m+	c #AAA5A2",
"n+	c #9B9593",
"o+	c #5A585D",
"p+	c #8D8989",
"q+	c #6B676B",
"r+	c #8A9150",
"s+	c #6F6C6F",
"t+	c #8D898A",
"u+	c #605E62",
"v+	c #989391",
"w+	c #BCB6B2",
"x+	c #555459",
"y+	c #8A8686",
"z+	c #686569",
"A+	c #3E3E46",
"B+	c #415548",
"C+	c #838E51",
"D+	c #5F8054",
"E+	c #405247",
"F+	c #48464F",
"G+	c #908D8D",
"H+	c #807D7D",
"I+	c #817D7E",
"J+	c #414049",
"K+	c #57555A",
"L+	c #59575C",
"M+	c #43414A",
"N+	c #405547",
"O+	c #507452",
"P+	c #889050",
"Q+	c #4D6D4F",
"R+	c #3B4C43",
"S+	c #4A4750",
"T+	c #696569",
"U+	c #666368",
"V+	c #46454D",
"W+	c #777476",
"X+	c #9C9796",
"Y+	c #3B4444",
"Z+	c #45614A",
"`+	c #47644B",
" @	c #48654C",
".@	c #4F7251",
"+@	c #567E55",
"@@	c #648254",
"#@	c #5A7F55",
"$@	c #435948",
"%@	c #415847",
"&@	c #405646",
"*@	c #383E42",
"=@	c #646165",
"-@	c #848182",
";@	c #636065",
">@	c #3E4C46",
",@	c #557B54",
"'@	c #638355",
")@	c #698454",
"!@	c #6A8454",
"~@	c #587E55",
"{@	c #628154",
"]@	c #577D55",
"^@	c #445A49",
"/@	c #373C41",
"(@	c #615E63",
"_@	c #848081",
":@	c #638154",
"<@	c #698453",
"[@	c #848E50",
"}@	c #445B49",
"|@	c #3E4346",
"1@	c #454A4C",
"2@	c #808C51",
"3@	c #527753",
"4@	c #507451",
"5@	c #517451",
"6@	c #507351",
"7@	c #838D51",
"8@	c #738853",
"9@	c #7B8B52",
"0@	c #6B8553",
"a@	c #668254",
"b@	c #818D51",
"c@	c #718653",
"                                                                                ",
"                                                                                ",
"                      . + @ # # # # # # # $ % & * =                             ",
"                    - ; > , ' ) ) ) ) ) ! ~ { ] ^ / ( _ : : < < < < [           ",
"                    } | 1 2 3 4 4 4 4 4 5 6 7 8 9 0 a b c d e e e e f           ",
"          g h h i [ j k l 4 3 3 3 3 3 3 3 m n o p q r s t c u u u u v           ",
"          v u u w x y z A B 3 3 3 3 3 3 3 3 3 C D E F G t c u u u u v           ",
"          v u u w x H I J m 3 3 3 3 3 3 3 3 3 4 m K L M N c u u u u v           ",
"          v u u w x O P J m 3 3 3 3 3 3 3 3 3 3 Q R L M N c u u u u v           ",
"          S T T U : V W J m 3 3 3 3 3 3 3 3 3 3 Q R X Y N x T T T T S           ",
"            Z T U : `  .J m 3 3 3 3 3 3 3 3 3 3 Q R ..+.@.#.$.T T Z             ",
"            %.u w x H &.J m 3 3 3 3 3 3 3 3 3 3 m *.=.-.;.>.,.'.u %.            ",
"            %.u w x ).!.A ~.3 3 3 3 3 3 3 3 3 3 m {.].^./.(._.:.<.%.            ",
"            Z T [.}.|.1.2.3.m m m m m m m m m m 4.5.6.7.8.9.0.a.<.%.            ",
"            . b.c.d.e.f.g.h.5.i.i.i.i.i.i.i.i.i.j.k.4 l.m.n.o.p.q.U             ",
"            r.s.t.u.v.w.x.y.z.z.A.z.z.z.z.z.z.z.B.C.3 3 m D.E.F.G.              ",
"            r.F.H.w.3 3 I.C.J.K.L.B.M.M.M.M.M.M.z.N.3 3 3 m O.P.Q.              ",
"            r.F.O.~.3 3 3 R.S.T.U.V.z.M.M.M.M.M.W.X.3 3 3 m Y.Z.`.              ",
"            r.F.O.m 3 3 3 3 B  +.+++z.M.M.@+#+$+R.m 3 3 3 m Y.%+<.              ",
"            G.F.O.~.3 3 3 3 B &+*+=+z.M.z.++.+-+B 3 3 3 3 ~.;+%+<.              ",
"            >+,+H.'+3 3 3 )+5 !+~+{+M.M.M.{+~+!+5 )+3 3 3 '+H.%+<.              ",
"            ]+^+/+k.(+w.w.I._+=+:+L.<+[+<+L.:+=+_+I.w.w.(+k./+%+<.              ",
"            <.%+}+|+1+1+1+1+2+3+4+5+6+7+6+5+4+3+2+1+1+1+1+|+}+%+<.              ",
"            <.%+8+9+B.B.B.B.0+j.4 m m m m m 4 a+b+B.B.B.B.9+8+%+<.              ",
"            <.%+8+z.M.M.M.M.0+c+5 3 3 3 3 3 4 d+e+B.z.M.M.z.8+%+<.              ",
"            <.%+8+z.M.M.z.M.<+f+g+3 3 3 3 3 3 3 h+i+j+B.M.z.k+%+<.              ",
"            <.%+8+z.M.B.l+z.m+4 3 3 3 3 3 3 3 3 m n+o+p+M.g.q+%+<.              ",
"      r+< . <.%+s+B.M.t+u+v+w+3 3 3 3 3 3 3 3 3 3 2.x+y+t+z+A+B+<.< [           ",
"      C+D+Z <.E+F+}+G+p+x+H+d+3 3 3 3 3 3 3 3 3 d+I+J+K+L+M+N+O+'.e f           ",
"      P+T [ '.Q+R+S+T+U+V+W+X+N.W.W.W.W.W.W.W.N.X+W+Y+Z+`+ @.@+@u u v           ",
"          S @@#@Q+$@%@&@*@=@-@M.M.M.M.M.M.M.M.M.-@;@>@,@'@)@!@~@u u v           ",
"          v u D+{@]@u Y ^@/@(@_@_@_@_@_@_@_@_@_@(@/@^@Y u h < :@e e f           ",
"          v u <@[@e u u Y }@|@1@1@1@1@1@1@1@1@1@|@}@Y u u h r+< < < [           ",
"          S T 2@[ D+u u u 3@4@5@5@5@5@5@5@5@5@5@6@3@u u u h [ i 7@              ",
"                [ D+u u u u 8@9@9@9@9@9@9@9@9@9@0@u u u u h [ i 7@              ",
"                P+a@e e e e b@                  N e e e e c@                    ",
"                  < < < < < .                   P+< < < < P+                    ",
"                                                                                ",
"                                                                                ",
"                                                                                "};
