/* XPM */
static char * blocked_out32_lvl2_xpm[] = {
"32 32 11 1",
" 	c #735B42",
".	c #353540",
"+	c #EDE4DA",
"@	c #604B3D",
"#	c #363540",
"$	c #725A42",
"%	c #4D3F38",
"&	c #705941",
"*	c #363640",
"=	c #725B42",
"-	c #373640",
" ..  . +.++...    ...  . +.++.. ",
"..@  @  @ +@..    #.@  @  @ +@..",
"#.@  @  @  @..    ..@  @  @  @..",
"$.%  %  %  %..    ..%  %  %  %. ",
" .@  @  @  @........@  @  @  @. ",
"#.@  @  @  @........@  @  @  @.#",
"$.%  %  %  %........%  %  %  %. ",
"&..@@.@@.@@..........@@.@@.@@.. ",
" &............................$ ",
"    ................#.......    ",
"................................",
" ..  . +.++..........  . +.++.. ",
" .@  @  @ +@........@  @  @ +@. ",
"..@  @  @  @........@  @  @  @..",
" .%  %  %  %......#.%  %  %  %. ",
" .@  @  @  @........@  @  @  @. ",
" .@  @  @  @........@  @  @  @. ",
" .%  %  %  %......#.%  %  %  %. ",
"...@@.@@.@@..........@@.@@.@@...",
" .............................* ",
" .........................#.... ",
"................................",
" ..  . +.++..........  . +.++.. ",
" .@  @  @ +@........@  @  @ +@.$",
" .@  @  @  @........@  @  @  @. ",
" .%  %  %  %......#.%  %  %  %.=",
"..@  @  @  @........@  @  @  @..",
" .@  @  @  @........@  @  @  @. ",
" .%  %  %  %..    ..%  %  %  %.$",
"...@@.@@.@@...    #..@@.@@.@@..#",
"..............    .*............",
" .-$$.  $ .  .    .  . $$$.$ .. "};
