/* XPM */
static char * blocked_out32_xpm[] = {
"32 32 31 1",
" 	c #8B9150",
".	c #353540",
"+	c #735B42",
"@	c #EDE4DA",
"#	c #604B3D",
"$	c #899050",
"%	c #8A9050",
"&	c #4D3F38",
"*	c #353640",
"=	c #878F51",
"-	c #828D51",
";	c #848E51",
">	c #808C51",
",	c #868F51",
"'	c #7D8B52",
")	c #363740",
"!	c #8A9150",
"~	c #889050",
"{	c #363841",
"]	c #363941",
"^	c #715A42",
"/	c #6D5742",
"(	c #4C3F38",
"_	c #878F50",
":	c #5E4A3D",
"<	c #705942",
"[	c #725A42",
"}	c #695442",
"|	c #59473E",
"1	c #888F50",
"2	c #7E8B52",
" .. ..........    . ........... ",
".....++.+@.@@..   ...++.+@.@@...",
".. .#++#++#+@#.   ..#++#++#+@#..",
" .$.#++#++#++#.   ..#++#++#++#. ",
" .%.&++&++&++&......&++&++&++&. ",
"..*.#++#++#++#.*....#++#++#++#..",
"  $.#++#++#++#......#++#++#++#. ",
"  =.&++&++&++&....*.&++&++&++&.-",
"  ;..##.##.##.....*..##.##.##..>",
"   ,...............*..........'$",
"...***..)..*........*......*..*.",
" .............................. ",
" . ..++.+@.@@........++.+@.@@.. ",
"..*.#++#++#+@#....*.#++#++#+@#..",
"   .#++#++#++#......#++#++#++#.!",
"  =.&++&++&++&.*....&++&++&++&.$",
"  ,.#++#++#++#.*..*.#++#++#++#. ",
"  ~.#++#++#++#....*.#++#++#++#.!",
"....&++&++&++&....*.&++&++&++&.{",
" . ..##.##.##.....*..##.##.##..!",
" .*)..........*....*...........=",
"...*.....**.*......*..***....**.",
"    ..........................  ",
"   ..++.+@.@@........++.+@.@@.. ",
"  %.#++#++#+@#.)....#++#++#+@#.,",
"  !.#++#++#++#....*.#++#++#++#.!",
"..].&++&++&++&....*.&++&^/(++&.*",
" ._.#++#++#++#.*....:<[:}/|++#. ",
" .1.#++#++#++#.   ..#++#++#++#.!",
".._.&++&++&++&.~  ..&++&++&++&.*",
"..*..##.##.##..=  ...##.##.##...",
" ..~..........,!  . ...........2"};
