/* XPM */
static char * collect32_lvl2_xpm[] = {
"32 32 425 2",
"  	c #735B42",
". 	c #725A42",
"+ 	c #614C38",
"@ 	c #483729",
"# 	c #35271E",
"$ 	c #392B20",
"% 	c #5A4633",
"& 	c #725A41",
"* 	c #4C3B2B",
"= 	c #32313F",
"- 	c #5A6B93",
"; 	c #667CAE",
"> 	c #6075A5",
", 	c #343342",
"' 	c #5B4734",
") 	c #66503A",
"! 	c #35323A",
"~ 	c #96ACD1",
"{ 	c #AEC5E5",
"] 	c #8DA8D6",
"^ 	c #718CC5",
"/ 	c #5F73A1",
"( 	c #3F3024",
"_ 	c #584532",
": 	c #5F6C84",
"< 	c #B6CBEA",
"[ 	c #CCDFF3",
"} 	c #97B1DD",
"| 	c #7893C9",
"1 	c #6277A8",
"2 	c #3C2E22",
"3 	c #473628",
"4 	c #7283A3",
"5 	c #B8CEEB",
"6 	c #CDDFF4",
"7 	c #98B2DD",
"8 	c #7D97CD",
"9 	c #4F5D82",
"0 	c #423229",
"a 	c #5F4A3C",
"b 	c #725B42",
"c 	c #604B3D",
"d 	c #705840",
"e 	c #332622",
"f 	c #879DC3",
"g 	c #B1C7E7",
"h 	c #C9DCF1",
"i 	c #95AFDB",
"j 	c #809CCF",
"k 	c #393E53",
"l 	c #261A15",
"m 	c #281C19",
"n 	c #3B2D23",
"o 	c #574432",
"p 	c #6F5840",
"q 	c #6B543D",
"r 	c #6A543D",
"s 	c #5C4834",
"t 	c #434755",
"u 	c #94AFDA",
"v 	c #9DB5DD",
"w 	c #ADC4E6",
"x 	c #92ACD9",
"y 	c #869DC7",
"z 	c #869DC6",
"A 	c #859DC8",
"B 	c #7689AF",
"C 	c #495066",
"D 	c #3A2B21",
"E 	c #6C563E",
"F 	c #634E39",
"G 	c #453527",
"H 	c #312521",
"I 	c #2C2931",
"J 	c #2E2935",
"K 	c #2C282F",
"L 	c #271E1D",
"M 	c #454B5D",
"N 	c #7E99C8",
"O 	c #95AEDB",
"P 	c #94AFDB",
"Q 	c #93ADD8",
"R 	c #8196CA",
"S 	c #96AFDB",
"T 	c #95AFDA",
"U 	c #92ABD7",
"V 	c #4C5878",
"W 	c #4B3A2A",
"X 	c #5C483A",
"Y 	c #463628",
"Z 	c #2F2B37",
"` 	c #55668C",
" .	c #6980B3",
"..	c #7590C9",
"+.	c #7690CB",
"@.	c #718BC5",
"#.	c #6376AD",
"$.	c #465185",
"%.	c #114295",
"&.	c #4E71B1",
"*.	c #859FD1",
"=.	c #6575B6",
"-.	c #6877B6",
";.	c #95AEDA",
">.	c #8EAAD8",
",.	c #7A95CB",
"'.	c #667CAF",
").	c #33251D",
"!.	c #5B473A",
"~.	c #32251E",
"{.	c #454D6E",
"].	c #748DC0",
"^.	c #8AA5D5",
"/.	c #93AEDB",
"(.	c #93ADD9",
"_.	c #7E92C9",
":.	c #5B67AE",
"<.	c #5762AB",
"[.	c #5B68AF",
"}.	c #576AB1",
"|.	c #3053A2",
"1.	c #20489D",
"2.	c #6A7FBC",
"3.	c #92ACD8",
"4.	c #95B0DB",
"5.	c #90AAD9",
"6.	c #809BCE",
"7.	c #728CC7",
"8.	c #718CC7",
"9.	c #525F86",
"0.	c #715A41",
"a.	c #413125",
"b.	c #454F72",
"c.	c #7F98CB",
"d.	c #B6CBE9",
"e.	c #A5BDE2",
"f.	c #8EA6D6",
"g.	c #6370B2",
"h.	c #6170B2",
"i.	c #859ACC",
"j.	c #92ABDA",
"k.	c #809BCF",
"l.	c #718DC7",
"m.	c #6D88C4",
"n.	c #3050A1",
"o.	c #4A6DB0",
"p.	c #91ABD9",
"q.	c #809CD0",
"r.	c #728DC7",
"s.	c #667DB0",
"t.	c #2D231F",
"u.	c #69533C",
"v.	c #32324A",
"w.	c #758EC3",
"x.	c #BACDEA",
"y.	c #D4E5F6",
"z.	c #A9BCDF",
"A.	c #5B67AD",
"B.	c #7586C0",
"C.	c #93ADDA",
"D.	c #7791CA",
"E.	c #6279BA",
"F.	c #174295",
"G.	c #5B77AF",
"H.	c #718BC6",
"I.	c #6D86C2",
"J.	c #667CBC",
"K.	c #6171B5",
"L.	c #424974",
"M.	c #4F3D2D",
"N.	c #382B20",
"O.	c #5B6D9D",
"P.	c #91ABD8",
"Q.	c #D1E3F5",
"R.	c #CDDEF1",
"S.	c #6874B2",
"T.	c #7789C2",
"U.	c #96AFDA",
"V.	c #849FD1",
"W.	c #718CC6",
"X.	c #6F88C4",
"Y.	c #454F8A",
"Z.	c #313247",
"`.	c #4B558B",
" +	c #3E4172",
".+	c #3E4171",
"++	c #42457A",
"@+	c #2D273C",
"#+	c #634E38",
"$+	c #68523B",
"%+	c #2C2634",
"&+	c #6F88C0",
"*+	c #9FB8E0",
"=+	c #CBDEF2",
"-+	c #8997C6",
";+	c #6A77B7",
">+	c #B0C6E6",
",+	c #ADC3E5",
"'+	c #97B0DC",
")+	c #8BA6D6",
"!+	c #5763A7",
"~+	c #27202A",
"{+	c #443427",
"]+	c #503E2D",
"^+	c #503E2E",
"/+	c #4D3C2C",
"(+	c #4E3C2C",
"_+	c #715941",
":+	c #5C4835",
"<+	c #3A3D5C",
"[+	c #7792CA",
"}+	c #94AFDC",
"|+	c #88A3D2",
"1+	c #475AA7",
"2+	c #90A6D5",
"3+	c #C9DFF3",
"4+	c #C2D8EF",
"5+	c #97AFDC",
"6+	c #5D6BB3",
"7+	c #312E4A",
"8+	c #614D38",
"9+	c #554231",
"0+	c #464F7C",
"a+	c #7591C9",
"b+	c #95AFDC",
"c+	c #5B7BB8",
"d+	c #5977B6",
"e+	c #95AFDD",
"f+	c #9AB3DD",
"g+	c #98B3DD",
"h+	c #86A1D3",
"i+	c #5B68B1",
"j+	c #37365B",
"k+	c #404771",
"l+	c #728DC8",
"m+	c #8FA9DA",
"n+	c #1C4C9D",
"o+	c #819DCF",
"p+	c #7B95CC",
"q+	c #5661AC",
"r+	c #353559",
"s+	c #5D4935",
"t+	c #604B37",
"u+	c #32324C",
"v+	c #6F88C5",
"w+	c #6D8DC5",
"x+	c #2051A1",
"y+	c #90ACD9",
"z+	c #8AA4D4",
"A+	c #6A80BF",
"B+	c #535CA8",
"C+	c #2E2941",
"D+	c #654F3A",
"E+	c #6D563E",
"F+	c #392B21",
"G+	c #31241D",
"H+	c #36281F",
"I+	c #3B2D22",
"J+	c #241A1D",
"K+	c #4D5786",
"L+	c #526BB1",
"M+	c #4364AC",
"N+	c #95B0DA",
"O+	c #8CA7D7",
"P+	c #738EC7",
"Q+	c #708CC7",
"R+	c #5B69B0",
"S+	c #4D5497",
"T+	c #2E231F",
"U+	c #6F573F",
"V+	c #523F2E",
"W+	c #1B2954",
"X+	c #4B5699",
"Y+	c #545F9E",
"Z+	c #55639F",
"`+	c #58669D",
" @	c #5B6C9F",
".@	c #5D71A1",
"+@	c #5E72A0",
"@@	c #6074AB",
"#@	c #4C60A9",
"$@	c #234E9F",
"%@	c #7996CB",
"&@	c #94AEDA",
"*@	c #93AEDA",
"=@	c #8FA9D8",
"-@	c #819CD0",
";@	c #728DC6",
">@	c #718CC8",
",@	c #6578B9",
"'@	c #3C3D6B",
")@	c #382A20",
"!@	c #153A83",
"~@	c #4465AE",
"{@	c #6483C1",
"]@	c #6986C2",
"^@	c #6D89C5",
"/@	c #728CC6",
"(@	c #708CC6",
"_@	c #7690C9",
":@	c #4669AF",
"<@	c #2852A1",
"[@	c #748FC8",
"}@	c #6579BA",
"|@	c #535DA7",
"1@	c #4A5191",
"2@	c #2C2222",
"3@	c #6A533D",
"4@	c #33271E",
"5@	c #414E91",
"6@	c #25489D",
"7@	c #0D4099",
"8@	c #0C429A",
"9@	c #18499E",
"0@	c #486BB0",
"a@	c #6F8BC6",
"b@	c #A2B7DC",
"c@	c #CADDF2",
"d@	c #768DC6",
"e@	c #13449B",
"f@	c #617FBE",
"g@	c #728CC8",
"h@	c #718BC8",
"i@	c #6C85C3",
"j@	c #5C6DB2",
"k@	c #525BA7",
"l@	c #4C5397",
"m@	c #2B2536",
"n@	c #4D3B30",
"o@	c #383861",
"p@	c #535BA5",
"q@	c #535CA9",
"r@	c #525CA9",
"s@	c #4857A5",
"t@	c #1B459C",
"u@	c #486CB1",
"v@	c #ABC0E2",
"w@	c #D3E5F4",
"x@	c #A4B7DB",
"y@	c #5C6BAF",
"z@	c #2D539C",
"A@	c #465CA6",
"B@	c #5E6FB4",
"C@	c #6173B7",
"D@	c #606FB4",
"E@	c #5A66AE",
"F@	c #525DA7",
"G@	c #444980",
"H@	c #29212B",
"I@	c #4A392F",
"J@	c #6D563F",
"K@	c #3E2F23",
"L@	c #2A222F",
"M@	c #393B66",
"N@	c #5159A2",
"O@	c #525CA8",
"P@	c #4858A5",
"Q@	c #1F4B9E",
"R@	c #C1D6EE",
"S@	c #A6B9DC",
"T@	c #5763AA",
"U@	c #AABCDC",
"V@	c #5B626D",
"W@	c #302D49",
"X@	c #404276",
"Y@	c #494E8C",
"Z@	c #4A5091",
"`@	c #484D8A",
" #	c #67513B",
".#	c #423225",
"+#	c #424479",
"@#	c #22479D",
"##	c #5673B5",
"$#	c #606FB3",
"%#	c #CFE1F5",
"&#	c #666A71",
"*#	c #4C3A2B",
"=#	c #3E3024",
"-#	c #3D2E22",
";#	c #3F3023",
">#	c #624D38",
",#	c #5E4A3C",
"'#	c #5F4A36",
")#	c #32304E",
"!#	c #535BA8",
"~#	c #3850A1",
"{#	c #2C4B9E",
"]#	c #7C91C8",
"^#	c #D3E5F6",
"/#	c #2A1F21",
"(#	c #50579C",
"_#	c #4657A5",
":#	c #12429B",
"<#	c #5765AE",
"[#	c #829BCE",
"}#	c #5A5D6A",
"|#	c #4A392A",
"1#	c #37385F",
"2#	c #525BA5",
"3#	c #515CA8",
"4#	c #1B469C",
"5#	c #4560AC",
"6#	c #5675B7",
"7#	c #6984BB",
"8#	c #2C2E41",
"9#	c #6E573F",
"0#	c #2F2A45",
"a#	c #404275",
"b#	c #404D93",
"c#	c #23489C",
"d#	c #24489E",
"e#	c #344FA2",
"f#	c #222030",
"g#	c #5F4B36",
"h#	c #2A2123",
"i#	c #45487F",
"j#	c #545CA8",
"k#	c #5259A0",
"l#	c #2A2125",
"m#	c #644F39",
"n#	c #2D211D",
"o#	c #414578",
"p#	c #44477C",
"q#	c #403124",
"r#	c #392C20",
"                                        . + @ # $ % .           ",
"                                      & * = - ; > , '           ",
"                                      ) ! ~ { ] ^ / ( .         ",
"                                      _ : < [ } | 1 2 &         ",
"                                      3 4 5 6 7 8 9 0 a b       ",
"          c c c                     d e f g h i j k l m n o d   ",
"          c c c   c         p q r q s t u v w i x y z A B C D E ",
"          c c c       & F G H I J K L M N O P Q R O S i T U V W ",
"                  c X Y Z `  ...+.@.#.$.%.&.*.=.-.;.S i >.,.'.).",
"            c c   !.~.{.].^./.(._.:.<.[.}.|.1.2.3.4.5.6.7.8.9.G ",
"            c c 0.a.b.c.d.e.f.g.h.i.j.k.l.m.n.o.p.q.r.8.8.s.t.u.",
"                ' v.w.x.y.z.A.B.C.i S /.D.8.E.F.G.H.I.J.K.L.M.  ",
"              0.N.O.P.Q.R.S.T.i U.S S S V.W.X.Y.Z.`. +.+++@+#+  ",
"              $+%+&+*+=+-+;+>+,+'+S S S )+8.8.!+~+{+]+^+/+(+_+  ",
"              :+<+[+}+|+1+2+3+4+5+i S S )+8.7.6+7+8+            ",
"              9+0+a+b+c+d+e+f+g+4.S S S h+8.7.i+j+s             ",
"              o k+l+m+n+o+i S S S S S i p+8.H.q+r+s+            ",
"  & _+_+0.& & t+u+v+w+x+y+S S S S S S z+8.8.A+B+C+D+            ",
"E+F+G+G+H+I+n F+J+K+L+M+N+S S S S b+O+P+W.Q+R+S+T+U+            ",
"V+W+X+Y+Z+`+ @.@+@@@#@$@%@5.&@*@=@-@;@8.>@,@B+'@W               ",
")@!@~@{@]@^@/@(@(@Q+_@:@<@Q+[@[@W.8.8.8.}@|@1@2@3@c             ",
"4@5@6@7@8@9@0@a@r.b@c@d@e@f@g@l+r.h@i@j@k@l@m@n@                ",
"* o@p@q@r@s@t@u@v@w@x@y@z@A@B@C@D@E@F@p@G@H@I@c   c c c         ",
"J@K@L@M@N@O@P@Q@R@S@T@U@V@W@X@Y@Z@`@ +@+D #+      c c c         ",
"  0. #.#+#B+B+@###<.$#%#&#M.*#=#-#;#M.>#,#c c c   c c c         ",
"      '#)#B+!#~#{#B+]#^#&#+             c c c c                 ",
"      E+/#(#!#_#:#<#[#^#}#+             c c c c   c             ",
"        |#1#2#3#4#5#6#7#8#)             c c c c                 ",
"        9#K@0#a#b#c#d#e#f#u.                                    ",
"          _+g#* h#i#j#k#l#E+                                    ",
"                m#n#o#p#)@0.                                    ",
"                   #q#r#>#                                      "};
