/* XPM */
static char * collect32_xpm[] = {
"32 32 203 2",
"  	c #8B9150",
". 	c #557D55",
"+ 	c #898F4F",
"@ 	c #757943",
"# 	c #676A3B",
"$ 	c #66693A",
"% 	c #6F723F",
"& 	c #7D8248",
"* 	c #7E8348",
"= 	c #4F4638",
"- 	c #7C4F74",
"; 	c #98638E",
"> 	c #9B6591",
", 	c #8E5D84",
"' 	c #754B6D",
") 	c #533E46",
"! 	c #3C5137",
"~ 	c #4C6F4B",
"{ 	c #737742",
"] 	c #593E4E",
"^ 	c #9B6293",
"/ 	c #CE8EBA",
"( 	c #D796C0",
"_ 	c #D494BE",
": 	c #C687B4",
"< 	c #96608E",
"[ 	c #6D4565",
"} 	c #3C5038",
"| 	c #8A904F",
"1 	c #446042",
"2 	c #66425E",
"3 	c #9C6194",
"4 	c #9E6092",
"5 	c #AE709F",
"6 	c #95578C",
"7 	c #9F6397",
"8 	c #7E5076",
"9 	c #65673A",
"0 	c #6C6F3E",
"a 	c #694461",
"b 	c #9C6093",
"c 	c #925589",
"d 	c #905B86",
"e 	c #D695BF",
"f 	c #B57CA3",
"g 	c #81507A",
"h 	c #8E5385",
"i 	c #93558A",
"j 	c #A06498",
"k 	c #5B3D51",
"l 	c #517650",
"m 	c #717541",
"n 	c #684360",
"o 	c #915588",
"p 	c #7E4F77",
"q 	c #7B5074",
"r 	c #D393BD",
"s 	c #C086AC",
"t 	c #724B6C",
"u 	c #764C70",
"v 	c #784D72",
"w 	c #8E5485",
"x 	c #96598E",
"y 	c #8C5984",
"z 	c #415C3F",
"A 	c #5B3E51",
"B 	c #915488",
"C 	c #7D4F76",
"D 	c #744C6F",
"E 	c #654461",
"F 	c #C88BB3",
"G 	c #C88BB2",
"H 	c #6A4B63",
"I 	c #61435D",
"J 	c #664562",
"K 	c #764D70",
"L 	c #7F4F78",
"M 	c #9E6496",
"N 	c #524E36",
"O 	c #534F35",
"P 	c #996090",
"Q 	c #754C6F",
"R 	c #654460",
"S 	c #5E425A",
"T 	c #AA7798",
"U 	c #CB8EB5",
"V 	c #6D4F63",
"W 	c #503D4A",
"X 	c #533E4E",
"Y 	c #62435E",
"Z 	c #6F4969",
"` 	c #774D71",
" .	c #905488",
"..	c #9F6297",
"+.	c #523E45",
"@.	c #523D45",
"#.	c #9E6195",
"$.	c #885280",
"%.	c #674562",
"&.	c #5F425B",
"*.	c #513D4B",
"=.	c #604757",
"-.	c #664B5D",
";.	c #5D4159",
">.	c #694664",
",.	c #8D5385",
"'.	c #533C46",
").	c #5A3D50",
"!.	c #9C5F94",
"~.	c #85517E",
"{.	c #63435F",
"].	c #594054",
"^.	c #5C4157",
"/.	c #8F5487",
"(.	c #995F91",
"_.	c #524D35",
":.	c #868C4D",
"<.	c #66435D",
"[.	c #9B5E92",
"}.	c #84507C",
"|.	c #584053",
"1.	c #724B6D",
"2.	c #82507B",
"3.	c #975A8E",
"4.	c #6C4564",
"5.	c #84894C",
"6.	c #694561",
"7.	c #9A5D92",
"8.	c #83507B",
"9.	c #573F52",
"0.	c #523E4C",
"a.	c #60425B",
"b.	c #6F496A",
"c.	c #7D4F77",
"d.	c #93568A",
"e.	c #815179",
"f.	c #5F6137",
"g.	c #83884B",
"h.	c #6A4563",
"i.	c #9A5D91",
"j.	c #744B6E",
"k.	c #583F53",
"l.	c #6E4969",
"m.	c #7C4E76",
"n.	c #8C5783",
"o.	c #524F33",
"p.	c #80854A",
"q.	c #6F4767",
"r.	c #995C90",
"s.	c #573F51",
"t.	c #704A6B",
"u.	c #8F5887",
"v.	c #4F4637",
"w.	c #868B4D",
"x.	c #4F734E",
"y.	c #63435E",
"z.	c #654561",
"A.	c #6C4867",
"B.	c #805079",
"C.	c #4C4138",
"D.	c #86517E",
"E.	c #754C70",
"F.	c #8A5282",
"G.	c #94578B",
"H.	c #8C5784",
"I.	c #4F4539",
"J.	c #82884B",
"K.	c #50754F",
"L.	c #6B4563",
"M.	c #9B5E93",
"N.	c #8B5382",
"O.	c #895281",
"P.	c #8F5486",
"Q.	c #7F5077",
"R.	c #525033",
"S.	c #858B4D",
"T.	c #878D4E",
"U.	c #5D3E54",
"V.	c #A5699C",
"W.	c #9A5C91",
"X.	c #975C8F",
"Y.	c #A2719F",
"Z.	c #A473A1",
"`.	c #9B6093",
" +	c #8D5985",
".+	c #5C3E52",
"++	c #67693B",
"@+	c #8A8F4F",
"#+	c #646639",
"$+	c #64405C",
"%+	c #8A5883",
"&+	c #A886AB",
"*+	c #AB8EB0",
"=+	c #9A7F9E",
"-+	c #755973",
";+	c #4F423C",
">+	c #626538",
",+	c #82874B",
"'+	c #4F724E",
")+	c #40593D",
"!+	c #425D3F",
"~+	c #81864A",
"{+	c #8B9050",
"                                                                ",
"                                                                ",
"                                                                ",
"                                                                ",
"                                            .   . . . .         ",
"          . . .                                 . . . .         ",
"          . . .   .       + @ # $ % & + . . .   . . . .         ",
"          . . .         * = - ; > , ' ) ! ~ .   . . . .         ",
"                  . . { ] ^ / ( ( ( _ : < [ } |                 ",
"            . .   . 1 2 3 4 ( ( ( ( ( 5 6 7 8 9 . . .           ",
"            . .   0 a b c d e ( ( ( f g h i j k l . .           ",
"                m n b o p q r ( ( s t u v w x y z . .           ",
"              & A b B C D E F ( G H I J K L i M N               ",
"              O P i p Q R S T U V W X Y Z `  ...+.              ",
"              @.#.$.` %.&.*.=.-.W W W ;.>.` ,.#.'.              ",
"            + ).!.~.u {.].W W W W W W ^.>.` /.(._.              ",
"            :.<.[.}.Q Y |.W W W W W X Y 1.2.3.4.@               ",
"            5.6.7.8.D Y 9.W W W W 0.a.b.c.d.e.f.                ",
"            g.h.i.g j.Y k.W W W X a.l.m.o n.o.+                 ",
"            p.q.r.g D Y S s.9.^.{.t.C o u.v.w.                  ",
"            x.q.r.2.K %.y.{.z.A.Q B.c u.C.g.      .             ",
"            x.q.i.D.` ` E.u ` m.F.G.H.I.J.  . .                 ",
"        .   K.L.M.i N.~.D.O.P.i r.Q.R.S.    . .   . . .         ",
"            T.U.V.W.X.Y.Z.`.b  +.+++@+            . . .         ",
"          . . #+$+%+&+*+=+-+;+>+,+      . . . .   . . .         ",
"          . .   '+1 )+!+{ ~+{+          . . . .                 ",
"                . . . .                 . . . .   .             ",
"                . . . .                 . . . .                 ",
"                                                                ",
"                                                                ",
"                                                                ",
"                                                                "};
