/* XPM */
static char * evoli_l_xpm[] = {
"32 32 376 2",
"  	c #8B9150",
". 	c #8F9053",
"+ 	c #898E4F",
"@ 	c #928753",
"# 	c #A99465",
"$ 	c #817346",
"% 	c #886847",
"& 	c #93894F",
"* 	c #7E6C43",
"= 	c #5C3715",
"- 	c #A57C4E",
"; 	c #888E4E",
"> 	c #557D55",
", 	c #867247",
"' 	c #603A16",
") 	c #7A542F",
"! 	c #8D8054",
"~ 	c #877849",
"{ 	c #633D16",
"] 	c #99744A",
"^ 	c #8A9050",
"/ 	c #8F854E",
"( 	c #603E1F",
"_ 	c #8C643D",
": 	c #8B894D",
"< 	c #527952",
"[ 	c #698059",
"} 	c #898B4E",
"| 	c #705237",
"1 	c #573615",
"2 	c #553C24",
"3 	c #9E8B52",
"4 	c #537A53",
"5 	c #838C6A",
"6 	c #898F4F",
"7 	c #AAA578",
"8 	c #878B4D",
"9 	c #7D7C52",
"0 	c #958054",
"a 	c #937F5B",
"b 	c #957D58",
"c 	c #A78560",
"d 	c #979158",
"e 	c #8C784B",
"f 	c #3C2B1C",
"g 	c #170E07",
"h 	c #9E834F",
"i 	c #B09E78",
"j 	c #C29C71",
"k 	c #BC9768",
"l 	c #CBA577",
"m 	c #A8986A",
"n 	c #90915B",
"o 	c #908E52",
"p 	c #A98C5D",
"q 	c #97744E",
"r 	c #79542F",
"s 	c #583615",
"t 	c #5D3915",
"u 	c #7B5939",
"v 	c #757650",
"w 	c #888C4E",
"x 	c #846847",
"y 	c #543D25",
"z 	c #B28557",
"A 	c #CA9E70",
"B 	c #CDA171",
"C 	c #D0A473",
"D 	c #D1A474",
"E 	c #D0A372",
"F 	c #C99D6E",
"G 	c #918A4F",
"H 	c #978A51",
"I 	c #93714C",
"J 	c #21170D",
"K 	c #4D2E13",
"L 	c #623C16",
"M 	c #87603A",
"N 	c #907F4D",
"O 	c #587853",
"P 	c #8A8A4E",
"Q 	c #A37C51",
"R 	c #C3905E",
"S 	c #C69665",
"T 	c #CA9B6A",
"U 	c #CA9B6B",
"V 	c #CC9D6B",
"W 	c #C69462",
"X 	c #C28E5C",
"Y 	c #B78957",
"Z 	c #83603C",
"` 	c #020303",
" .	c #25170B",
"..	c #4E3013",
"+.	c #583614",
"@.	c #8E663E",
"#.	c #98854F",
"$.	c #547B54",
"%.	c #B9AC8A",
"&.	c #A19C6B",
"*.	c #B18B56",
"=.	c #C08D5B",
"-.	c #BC8A5A",
";.	c #C4905D",
">.	c #C18D5C",
",.	c #C28F5C",
"'.	c #C08C5B",
").	c #C38F5C",
"!.	c #C18E5C",
"~.	c #88633F",
"{.	c #3F2D1B",
"].	c #63482C",
"^.	c #82603D",
"/.	c #9C774C",
"(.	c #8D864D",
"_.	c #8D8F56",
":.	c #C8B990",
"<.	c #E5CFA8",
"[.	c #B5A97E",
"}.	c #B98858",
"|.	c #9D928B",
"1.	c #9B7249",
"2.	c #BF8C5B",
"3.	c #C3905C",
"4.	c #BD8B59",
"5.	c #BC8959",
"6.	c #AB8054",
"7.	c #97834F",
"8.	c #968851",
"9.	c #8C884E",
"0.	c #858B4C",
"a.	c #8B864E",
"b.	c #9B8C5E",
"c.	c #C3B28A",
"d.	c #DFC9A2",
"e.	c #DEC6A2",
"f.	c #DDC6A3",
"g.	c #C2B28B",
"h.	c #868C4D",
"i.	c #B68555",
"j.	c #080504",
"k.	c #9B7048",
"l.	c #C38F5D",
"m.	c #A27952",
"n.	c #9F9894",
"o.	c #987E4F",
"p.	c #847748",
"q.	c #95704D",
"r.	c #9D7652",
"s.	c #A6825E",
"t.	c #A4805C",
"u.	c #B1926F",
"v.	c #BFA37F",
"w.	c #E3CCA6",
"x.	c #C4B48B",
"y.	c #898A4D",
"z.	c #BC8A59",
"A.	c #5A3918",
"B.	c #AD7E51",
"C.	c #C18D5B",
"D.	c #4D3621",
"E.	c #0B0807",
"F.	c #BB895B",
"G.	c #8F844E",
"H.	c #867648",
"I.	c #99734F",
"J.	c #9C7550",
"K.	c #98714F",
"L.	c #9A7350",
"M.	c #9C7551",
"N.	c #B79975",
"O.	c #E3CDA6",
"P.	c #B8AC81",
"Q.	c #A09E6B",
"R.	c #BEAD89",
"S.	c #BD8B5B",
"T.	c #B38155",
"U.	c #B78756",
"V.	c #C5925D",
"W.	c #C7925E",
"X.	c #513419",
"Y.	c #654528",
"Z.	c #AF8258",
"`.	c #86884C",
" +	c #858A4D",
".+	c #906C4D",
"++	c #9A7450",
"@+	c #9A734F",
"#+	c #BEA27D",
"$+	c #D4BB96",
"%+	c #A79F72",
"&+	c #8B8E58",
"*+	c #F0E0BF",
"=+	c #F0DEB8",
"-+	c #B18E6A",
";+	c #BC8A5B",
">+	c #B88857",
",+	c #BE8C5A",
"'+	c #C08E5B",
")+	c #B28353",
"!+	c #AB7F55",
"~+	c #A4825F",
"{+	c #CDBE9C",
"]+	c #89815C",
"^+	c #8A694F",
"/+	c #9B7550",
"(+	c #9B7450",
"_+	c #A07C59",
":+	c #94735C",
"<+	c #8A8C56",
"[+	c #B4B18B",
"}+	c #F8EBD1",
"|+	c #F0DCB6",
"1+	c #E6D3B0",
"2+	c #B89F7C",
"3+	c #B38559",
"4+	c #BF8D5C",
"5+	c #BF8E5C",
"6+	c #BA8A5B",
"7+	c #AE8258",
"8+	c #A87E57",
"9+	c #BDA98B",
"0+	c #D0BFA0",
"a+	c #C4B396",
"b+	c #7B6050",
"c+	c #8D6B4E",
"d+	c #98724F",
"e+	c #97714E",
"f+	c #88654D",
"g+	c #755B4D",
"h+	c #C7BD94",
"i+	c #F3E5CA",
"j+	c #F1DEBB",
"k+	c #ECD8B4",
"l+	c #F6E3BB",
"m+	c #DAC8A3",
"n+	c #B8A081",
"o+	c #B29878",
"p+	c #AC9276",
"q+	c #B39C7E",
"r+	c #C0AF91",
"s+	c #CAB99B",
"t+	c #C5B597",
"u+	c #7F624E",
"v+	c #76594C",
"w+	c #7F604C",
"x+	c #916E4F",
"y+	c #8B694E",
"z+	c #80604D",
"A+	c #76594D",
"B+	c #776F48",
"C+	c #949164",
"D+	c #E5D2AE",
"E+	c #EADAB6",
"F+	c #F8ECD3",
"G+	c #EADBBB",
"H+	c #F0DBB6",
"I+	c #EEDAB4",
"J+	c #DECBA9",
"K+	c #CFBD9E",
"L+	c #CBBA9B",
"M+	c #C6B698",
"N+	c #CEBC9D",
"O+	c #CEBD9D",
"P+	c #C1B193",
"Q+	c #9B7653",
"R+	c #7A5C4B",
"S+	c #775A4D",
"T+	c #74574C",
"U+	c #6B5A4A",
"V+	c #A9A179",
"W+	c #E3D1AD",
"X+	c #F7E8C6",
"Y+	c #EEE0C4",
"Z+	c #F7EAD1",
"`+	c #F7E7C5",
" @	c #F4E3C2",
".@	c #E5D2B0",
"+@	c #C6B597",
"@@	c #BDAD90",
"#@	c #CBB99B",
"$@	c #CDBC9D",
"%@	c #A48768",
"&@	c #A97E57",
"*@	c #957050",
"=@	c #75584C",
"-@	c #76654A",
";@	c #868B4E",
">@	c #878E6D",
",@	c #E4D1AD",
"'@	c #DECCA9",
")@	c #F2E1C0",
"!@	c #F5E4C3",
"~@	c #E6D4B0",
"{@	c #C7B698",
"]@	c #BFAF92",
"^@	c #CFBE9E",
"/@	c #B6A082",
"(@	c #A77D56",
"_@	c #A97F57",
":@	c #7C764B",
"<@	c #7A704A",
"[@	c #60684D",
"}@	c #57724F",
"|@	c #B1A682",
"1@	c #DAC7A7",
"2@	c #DAC8A6",
"3@	c #EAD7B2",
"4@	c #D4C2A2",
"5@	c #BCAD90",
"6@	c #A79478",
"7@	c #A58766",
"8@	c #A67C56",
"9@	c #AA7F58",
"0@	c #9C7450",
"a@	c #84854B",
"b@	c #A78B6D",
"c@	c #C5B293",
"d@	c #D2C1A1",
"e@	c #B7A68A",
"f@	c #AA8A68",
"g@	c #9F7752",
"h@	c #A17853",
"i@	c #99744E",
"j@	c #AF8257",
"k@	c #A97E56",
"l@	c #8B9050",
"m@	c #9B7751",
"n@	c #A47F5B",
"o@	c #BCAA8C",
"p@	c #A28161",
"q@	c #A27A54",
"r@	c #83624A",
"s@	c #654C4A",
"t@	c #827B46",
"u@	c #C3905D",
"v@	c #AA8355",
"w@	c #8A7951",
"x@	c #B08258",
"y@	c #9B744E",
"z@	c #B7885A",
"A@	c #B08358",
"B@	c #A87E56",
"C@	c #664C47",
"D@	c #67544B",
"E@	c #878D4E",
"F@	c #AA8A54",
"G@	c #7F7C53",
"H@	c #C4915D",
"I@	c #B48455",
"J@	c #AD7F54",
"K@	c #664D4B",
"L@	c #7D7E4B",
"M@	c #918A4E",
"N@	c #C5925E",
"O@	c #938A4F",
"P@	c #A58E59",
"Q@	c #C89766",
"R@	c #BD8B5A",
"S@	c #C6935F",
"T@	c #9A7D4E",
"U@	c #817C4B",
"V@	c #AB8353",
"W@	c #B38856",
"X@	c #8E854E",
"Y@	c #AF8C5D",
"Z@	c #AD8659",
"`@	c #CB9E6E",
" #	c #C49565",
".#	c #888A4D",
"+#	c #85854B",
"@#	c #91844F",
"##	c #8C8A4F",
"$#	c #898D4E",
"%#	c #8C804C",
"&#	c #8C854D",
"                                                                ",
"        . +                                                     ",
"        @ #                                                     ",
"        $ % &                                                   ",
"        * = - ;                             >   > > > >         ",
"        , ' ) !                                 > > > >         ",
"        ~ { { ] ^ >                     > > >   > > > >         ",
"        / ( { _ :                       > > >   < [ > >         ",
"        } | 1 2 3 4 5 6 7             8 9 0 a b c d             ",
"          e f g h i j k l m n     o p q r s t u v > >           ",
"          w x y z A B C D E F G H I J K L { M N > > O +         ",
"            P Q R S T U V W X Y Z `  ...+.@.#.  > $.%.&.        ",
"              *.=.-.;.>.,.'.).!.~.{.].^./.(.    _.:.<.[.        ",
"            ^ }.|.1.2.!.3.4.5.'.6.7.8.9.0.a.b.c.d.e.f.g.        ",
"            h.i.j.k.X l.>.m.n.3.o.  6 p.q.r.s.t.u.v.w.x.        ",
"            y.z.A.B.X >.C.D.E.F.G.  H.I.J.J.K.L.M.N.O.P.        ",
"          Q.R.S.T.C.U.V.W.X.Y.Z.`. +.+++L.L.J.@+J.#+$+%+        ",
"        &+*+=+-+;+4.>+,+'+)+!+~+{+]+^+J./+L.J.J.(+_+:+<+        ",
"        [+}+|+1+2+3+4+5+6+7+8+9+0+a+b+c+d+K./+@+e+f+g+6         ",
"        h+i+j+k+l+m+n+o+p+q+r+s+s+t+u+v+w+c+x+y+z+A+B+          ",
"        C+D+E+F+G+H+I+J+K+L+M+N+O+P+Q+R+A+v+S+A+T+U+;           ",
"        ; V+W+X+Y+Z+`+ @.@+@@@#@$@%@&@*@A+=@A+A+-@;@            ",
"        >   >@,@'@)@!@X+~@{@]@^@/@(@_@J.:@<@[@}@  > > >         ",
"              |@+@1@2@3@4@5@6@7@8@9@(@0@          > > >         ",
"          > > a@b@c@d@$@e@f@g@h@i@j@k@I.> > > >   > > >         ",
"          > > l@m@n@o@p@q@(@r@s@t@X u@v@> > > >                 ",
"                w@x@y@z@A@B@C@D@E@>+!.F@> > > >   >             ",
"                G@H@I@V.!.J@K@L@M@N@;.O@> > > >                 ",
"                P@Q@R@S@l.T@U@  V@=.W@                          ",
"                X@Y@Z@`@ #.#    +#@###                          ",
"                    $#%#&#                                      ",
"                                                                "};
