/* XPM */
static char * evoli_r_xpm[] = {
"32 32 377 2",
"  	c #8B9150",
". 	c #898E4F",
"+ 	c #8F9053",
"@ 	c #A99465",
"# 	c #928753",
"$ 	c #93894F",
"% 	c #886847",
"& 	c #817346",
"* 	c #557D55",
"= 	c #547A53",
"- 	c #A1794F",
"; 	c #5C3715",
"> 	c #726545",
", 	c #8D8054",
"' 	c #7A542F",
") 	c #603A16",
"! 	c #796A49",
"~ 	c #8A9050",
"{ 	c #99744A",
"] 	c #633D16",
"^ 	c #746E4B",
"/ 	c #698059",
"( 	c #527952",
"_ 	c #8B894D",
": 	c #8C643D",
"< 	c #603E1F",
"[ 	c #747852",
"} 	c #979158",
"| 	c #A78560",
"1 	c #957D58",
"2 	c #937F5B",
"3 	c #958054",
"4 	c #97894F",
"5 	c #878B4D",
"6 	c #AAA578",
"7 	c #547B54",
"8 	c #838C6A",
"9 	c #537A53",
"0 	c #9E8B52",
"a 	c #553C24",
"b 	c #573615",
"c 	c #705237",
"d 	c #898B4E",
"e 	c #757650",
"f 	c #7B5939",
"g 	c #5D3915",
"h 	c #583615",
"i 	c #79542F",
"j 	c #97744E",
"k 	c #A98C5D",
"l 	c #908E52",
"m 	c #90915B",
"n 	c #A8986A",
"o 	c #CBA577",
"p 	c #BC9768",
"q 	c #C39D70",
"r 	c #B6A177",
"s 	c #9E834F",
"t 	c #170E07",
"u 	c #3C2B1C",
"v 	c #7C704D",
"w 	c #868A4E",
"x 	c #907F4D",
"y 	c #87603A",
"z 	c #623C16",
"A 	c #4D2E13",
"B 	c #21170D",
"C 	c #93714C",
"D 	c #978A51",
"E 	c #918A4F",
"F 	c #C99D6E",
"G 	c #D0A372",
"H 	c #D1A474",
"I 	c #D0A473",
"J 	c #CDA171",
"K 	c #CA9E70",
"L 	c #B28557",
"M 	c #543D25",
"N 	c #846847",
"O 	c #577A53",
"P 	c #A19C6B",
"Q 	c #BEAF89",
"R 	c #898F4F",
"S 	c #98854F",
"T 	c #8E663E",
"U 	c #583614",
"V 	c #4E3013",
"W 	c #25170B",
"X 	c #020303",
"Y 	c #83603C",
"Z 	c #B78957",
"` 	c #C28E5C",
" .	c #C69462",
"..	c #CC9D6B",
"+.	c #CA9B6B",
"@.	c #CA9B6A",
"#.	c #C69665",
"$.	c #C3905E",
"%.	c #A07A51",
"&.	c #607852",
"*.	c #B5A97E",
"=.	c #E5CFA8",
"-.	c #C8B990",
";.	c #8D8F56",
">.	c #8D864D",
",.	c #9C774C",
"'.	c #82603D",
").	c #63482C",
"!.	c #3F2D1B",
"~.	c #88633F",
"{.	c #C18E5C",
"].	c #C38F5C",
"^.	c #C08C5B",
"/.	c #C28F5C",
"(.	c #C18D5C",
"_.	c #C4905D",
":.	c #BC8A5A",
"<.	c #C08D5B",
"[.	c #B18B56",
"}.	c #C2B28B",
"|.	c #DDC6A3",
"1.	c #DEC6A2",
"2.	c #DFC9A2",
"3.	c #C3B28A",
"4.	c #9B8C5E",
"5.	c #8B864E",
"6.	c #858B4C",
"7.	c #8C884E",
"8.	c #968851",
"9.	c #97834F",
"0.	c #AB8054",
"a.	c #BC8959",
"b.	c #BD8B59",
"c.	c #C3905C",
"d.	c #BF8C5B",
"e.	c #9B7249",
"f.	c #9D928B",
"g.	c #B98858",
"h.	c #C4B48B",
"i.	c #E3CCA6",
"j.	c #BFA37F",
"k.	c #B1926F",
"l.	c #A4805C",
"m.	c #A6825E",
"n.	c #9D7652",
"o.	c #95704D",
"p.	c #847748",
"q.	c #987E4F",
"r.	c #9F9894",
"s.	c #A27952",
"t.	c #C38F5D",
"u.	c #9B7048",
"v.	c #080504",
"w.	c #B68555",
"x.	c #868C4D",
"y.	c #B8AC81",
"z.	c #E3CDA6",
"A.	c #B79975",
"B.	c #9C7551",
"C.	c #9A7350",
"D.	c #98714F",
"E.	c #9C7550",
"F.	c #99734F",
"G.	c #867648",
"H.	c #8F844E",
"I.	c #BB895B",
"J.	c #0B0807",
"K.	c #4D3621",
"L.	c #C18D5B",
"M.	c #AD7E51",
"N.	c #5A3918",
"O.	c #BC8A59",
"P.	c #898A4D",
"Q.	c #A79F72",
"R.	c #D4BB96",
"S.	c #BEA27D",
"T.	c #9A734F",
"U.	c #9A7450",
"V.	c #906C4D",
"W.	c #858A4D",
"X.	c #86884C",
"Y.	c #AF8258",
"Z.	c #654528",
"`.	c #513419",
" +	c #C7925E",
".+	c #C5925D",
"++	c #B78756",
"@+	c #B38155",
"#+	c #BD8B5B",
"$+	c #BEAD89",
"%+	c #A09E6B",
"&+	c #8A8C56",
"*+	c #94735C",
"=+	c #A07C59",
"-+	c #9B7450",
";+	c #9B7550",
">+	c #8A694F",
",+	c #89815C",
"'+	c #CDBE9C",
")+	c #A4825F",
"!+	c #AB7F55",
"~+	c #B28353",
"{+	c #C08E5B",
"]+	c #BE8C5A",
"^+	c #B88857",
"/+	c #BC8A5B",
"(+	c #B18E6A",
"_+	c #F0DEB8",
":+	c #F0E0BF",
"<+	c #8B8E58",
"[+	c #755B4D",
"}+	c #88654D",
"|+	c #97714E",
"1+	c #98724F",
"2+	c #8D6B4E",
"3+	c #7B6050",
"4+	c #C4B396",
"5+	c #D0BFA0",
"6+	c #BDA98B",
"7+	c #A87E57",
"8+	c #AE8258",
"9+	c #BA8A5B",
"0+	c #BF8E5C",
"a+	c #BF8D5C",
"b+	c #B38559",
"c+	c #B89F7C",
"d+	c #E6D3B0",
"e+	c #F0DCB6",
"f+	c #F8EBD1",
"g+	c #B4B18B",
"h+	c #776F48",
"i+	c #76594D",
"j+	c #80604D",
"k+	c #8B694E",
"l+	c #916E4F",
"m+	c #7F604C",
"n+	c #76594C",
"o+	c #7F624E",
"p+	c #C5B597",
"q+	c #CAB99B",
"r+	c #C0AF91",
"s+	c #B39C7E",
"t+	c #AC9276",
"u+	c #B29878",
"v+	c #B8A081",
"w+	c #DAC8A3",
"x+	c #F6E3BB",
"y+	c #ECD8B4",
"z+	c #F1DEBB",
"A+	c #F3E5CA",
"B+	c #C7BD94",
"C+	c #888E4E",
"D+	c #6B5A4A",
"E+	c #74574C",
"F+	c #775A4D",
"G+	c #7A5C4B",
"H+	c #9B7653",
"I+	c #C1B193",
"J+	c #CEBD9D",
"K+	c #CEBC9D",
"L+	c #C6B698",
"M+	c #CBBA9B",
"N+	c #CFBD9E",
"O+	c #DECBA9",
"P+	c #EEDAB4",
"Q+	c #F0DBB6",
"R+	c #EADBBB",
"S+	c #F8ECD3",
"T+	c #EADAB6",
"U+	c #E5D2AE",
"V+	c #949164",
"W+	c #547852",
"X+	c #6A5E4B",
"Y+	c #75584C",
"Z+	c #957050",
"`+	c #A97E57",
" @	c #A48768",
".@	c #CDBC9D",
"+@	c #CBB99B",
"@@	c #BDAD90",
"#@	c #C6B597",
"$@	c #E5D2B0",
"%@	c #F4E3C2",
"&@	c #F7E7C5",
"*@	c #F7EAD1",
"=@	c #EEE0C4",
"-@	c #F7E8C6",
";@	c #E3D1AD",
">@	c #A9A179",
",@	c #57724F",
"'@	c #7A744A",
")@	c #64654C",
"!@	c #7C764B",
"~@	c #A97F57",
"{@	c #A77D56",
"]@	c #B6A082",
"^@	c #CFBE9E",
"/@	c #BFAF92",
"(@	c #C7B698",
"_@	c #E6D4B0",
":@	c #F5E4C3",
"<@	c #F2E1C0",
"[@	c #DECCA9",
"}@	c #E4D1AD",
"|@	c #878E6D",
"1@	c #9C7450",
"2@	c #AA7F58",
"3@	c #A67C56",
"4@	c #A58766",
"5@	c #A79478",
"6@	c #BCAD90",
"7@	c #D4C2A2",
"8@	c #EAD7B2",
"9@	c #DAC8A6",
"0@	c #DAC7A7",
"a@	c #B1A682",
"b@	c #A97E56",
"c@	c #AF8257",
"d@	c #99744E",
"e@	c #A17853",
"f@	c #9F7752",
"g@	c #AA8A68",
"h@	c #B7A68A",
"i@	c #D2C1A1",
"j@	c #C5B293",
"k@	c #A78B6D",
"l@	c #84854B",
"m@	c #AA8355",
"n@	c #C3905D",
"o@	c #827B46",
"p@	c #654C4A",
"q@	c #83624A",
"r@	c #A27A54",
"s@	c #A28161",
"t@	c #BCAA8C",
"u@	c #A47F5B",
"v@	c #9B7751",
"w@	c #8B9050",
"x@	c #AA8A54",
"y@	c #878D4E",
"z@	c #67544B",
"A@	c #664C47",
"B@	c #A87E56",
"C@	c #B08358",
"D@	c #B7885A",
"E@	c #9B744E",
"F@	c #B08258",
"G@	c #8A7951",
"H@	c #938A4F",
"I@	c #C5925E",
"J@	c #918A4E",
"K@	c #7D7E4B",
"L@	c #664D4B",
"M@	c #AD7F54",
"N@	c #B48455",
"O@	c #C4915D",
"P@	c #7F7C53",
"Q@	c #B38856",
"R@	c #AB8353",
"S@	c #817C4B",
"T@	c #9A7D4E",
"U@	c #C6935F",
"V@	c #BD8B5A",
"W@	c #C89766",
"X@	c #A58E59",
"Y@	c #8C8A4F",
"Z@	c #91844F",
"`@	c #85854B",
" #	c #888A4D",
".#	c #C49565",
"+#	c #CB9E6E",
"@#	c #AD8659",
"##	c #AF8C5D",
"$#	c #8E854E",
"%#	c #8C854D",
"&#	c #8C804C",
"*#	c #898D4E",
"                                                                ",
"                                                    . +         ",
"                                                    @ #         ",
"                                                  $ % &         ",
"                                            *   = - ; >         ",
"          * * *                                 , ' ) !         ",
"          * * *   *                     * * * ~ { ] ] ^         ",
"          * / (                         * * * _ : ] < [         ",
"            } | 1 2 3 4 5             6 7 8 9 0 a b c d         ",
"            * e f g h i j k l     m n o p q r s t u v           ",
"        . w * * x y ] z A B C D E F G H I J K L M N O           ",
"        P Q R     S T U V W X Y Z `  ...+.@.#.$.%.&.*           ",
"        *.=.-.;.    >.,.'.).!.~.{.].^./.(._.:.<.[.              ",
"        }.|.1.2.3.4.5.6.7.8.9.0.^.a.b.c.{.d.e.f.g.~             ",
"        h.i.j.k.l.m.n.o.p.R   q.c.r.s.(.t.` u.v.w.x.            ",
"        y.z.A.B.C.D.E.E.F.G.  H.I.J.K.L.(.` M.N.O.P.            ",
"        Q.R.S.E.T.E.C.C.U.V.W.X.Y.Z.`. +.+++L.@+#+$+%+          ",
"        &+*+=+-+E.E.C.;+E.>+,+'+)+!+~+{+]+^+b./+(+_+:+<+        ",
"        R [+}+|+T.;+D.1+2+3+4+5+6+7+8+9+0+a+b+c+d+e+f+g+        ",
"          h+i+j+k+l+2+m+n+o+p+q+q+r+s+t+u+v+w+x+y+z+A+B+        ",
"          C+D+E+i+F+n+i+G+H+I+J+K+L+M+N+O+P+Q+R+S+T+U+V+        ",
"            W+X+i+i+Y+i+Z+`+ @.@+@@@#@$@%@&@*@=@-@;@>@C+        ",
"        *   * * ,@'@)@!@E.~@{@]@^@/@(@_@-@:@<@[@}@|@* *         ",
"                        1@{@2@3@4@5@6@7@8@9@0@#@a@* * *         ",
"          * *   * * * * F.b@c@d@e@f@g@h@.@i@j@k@l@* * *         ",
"          * *   * * * * m@n@` o@p@q@{@r@s@t@u@v@w@              ",
"                * * * * x@{.^+y@z@A@B@C@D@E@F@G@  *             ",
"                * * * * H@_.I@J@K@L@M@{..+N@O@P@                ",
"                          Q@<.R@  S@T@t.U@V@W@X@                ",
"                          Y@Z@`@     #.#+#@###$#                ",
"                                      %#&#*#                    ",
"                                                                "};
