/* XPM */
static char * exit32_xpm[] = {
"32 32 2 1",
" 	c #8B9150",
".	c #353540",
" ..  .    .  .    .  .    .  .. ",
"......    ....    ....    ......",
"..   .    .. .    . ..    .   ..",
" .   .    ....    ....    .   . ",
" .   ......................   . ",
"................................",
"    ........................    ",
"    ........................    ",
"    ........................    ",
"    ........................    ",
"................................",
" .............................. ",
" . .......................... . ",
"................................",
"    ........................    ",
"    ........................    ",
"    ........................    ",
"    ........................    ",
"................................",
" . .......................... . ",
" .............................. ",
"................................",
"    ........................    ",
"    ........................    ",
"    ........................    ",
"    ........................    ",
"................................",
" .   ......................   . ",
" .   .    ....    ....    .   . ",
"..   .    .. .    . ..    .   ..",
"......    ....    ....    ......",
" ..  .    .  .    .  .    .  .. "};
