/* XPM */
static char * noctali32_l_xpm[] = {
"32 32 303 2",
"  	c #735B42",
". 	c #65523F",
"+ 	c #6B553F",
"@ 	c #584B41",
"# 	c #474A48",
"$ 	c #5C5045",
"% 	c #725A41",
"& 	c #836C47",
"* 	c #74694C",
"= 	c #404448",
"- 	c #474342",
"; 	c #715941",
"> 	c #4A3E33",
", 	c #786848",
"' 	c #BB9F5D",
") 	c #716548",
"! 	c #6B5540",
"~ 	c #604B3D",
"{ 	c #574636",
"] 	c #292D2D",
"^ 	c #343839",
"/ 	c #6D6145",
"( 	c #776143",
"_ 	c #5D493B",
": 	c #2D2C2B",
"< 	c #292B2E",
"[ 	c #393330",
"} 	c #68533D",
"| 	c #4E3F35",
"1 	c #28272B",
"2 	c #504234",
"3 	c #705940",
"4 	c #6E5840",
"5 	c #6B5942",
"6 	c #958660",
"7 	c #4D525B",
"8 	c #55565B",
"9 	c #584C48",
"0 	c #715A41",
"a 	c #746750",
"b 	c #8C8165",
"c 	c #BCA879",
"d 	c #475154",
"e 	c #50575F",
"f 	c #545A63",
"g 	c #5D5247",
"h 	c #645241",
"i 	c #615345",
"j 	c #605346",
"k 	c #857456",
"l 	c #826D51",
"m 	c #594A42",
"n 	c #58524F",
"o 	c #9F8B5F",
"p 	c #A89468",
"q 	c #726D5B",
"r 	c #464E51",
"s 	c #464D50",
"t 	c #454B4F",
"u 	c #474D50",
"v 	c #474F52",
"w 	c #484E52",
"x 	c #474E51",
"y 	c #A2916A",
"z 	c #CBB37C",
"A 	c #494C4E",
"B 	c #5E544F",
"C 	c #6B5744",
"D 	c #6F5840",
"E 	c #534843",
"F 	c #4F5054",
"G 	c #555B66",
"H 	c #61574F",
"I 	c #514D4A",
"J 	c #484F51",
"K 	c #4F4D4C",
"L 	c #564A48",
"M 	c #7A6963",
"N 	c #454B4E",
"O 	c #3B3F41",
"P 	c #404446",
"Q 	c #45494A",
"R 	c #464D4F",
"S 	c #474D4F",
"T 	c #B7A16F",
"U 	c #C2AC78",
"V 	c #464E50",
"W 	c #4C5258",
"X 	c #505155",
"Y 	c #665340",
"Z 	c #786146",
"` 	c #B49F74",
" .	c #767263",
"..	c #4A5257",
"+.	c #535B66",
"@.	c #545B65",
"#.	c #695542",
"$.	c #45403C",
"%.	c #3B4042",
"&.	c #64443D",
"*.	c #8F5B4B",
"=.	c #A66A5B",
"-.	c #474F51",
";.	c #504D4A",
">.	c #64513F",
",.	c #5B4F40",
"'.	c #9E8557",
").	c #776548",
"!.	c #5C4C3D",
"~.	c #6A543E",
"{.	c #AF9C6D",
"].	c #F0D391",
"^.	c #65645D",
"/.	c #4B5358",
"(.	c #4F575E",
"_.	c #4E5051",
":.	c #6D5740",
"<.	c #3E3C39",
"[.	c #373B3B",
"}.	c #3A3E3E",
"|.	c #464C4F",
"1.	c #484F52",
"2.	c #495255",
"3.	c #5C544C",
"4.	c #685541",
"5.	c #4B5051",
"6.	c #BBA674",
"7.	c #EED28E",
"8.	c #A79A71",
"9.	c #484E51",
"0.	c #5B4F42",
"a.	c #6F5841",
"b.	c #52463B",
"c.	c #36393B",
"d.	c #3D4244",
"e.	c #485053",
"f.	c #5C554D",
"g.	c #494B4A",
"h.	c #495153",
"i.	c #A4946C",
"j.	c #EDD18D",
"k.	c #ECCE8C",
"l.	c #C0A973",
"m.	c #7E6C51",
"n.	c #43403F",
"o.	c #363A3C",
"p.	c #42494A",
"q.	c #50504F",
"r.	c #6E573F",
"s.	c #5C4C3C",
"t.	c #3E4346",
"u.	c #434A4C",
"v.	c #535252",
"w.	c #BFA668",
"x.	c #D7B972",
"y.	c #B79B5F",
"z.	c #766143",
"A.	c #4E4E4C",
"B.	c #404649",
"C.	c #485052",
"D.	c #524E4B",
"E.	c #615346",
"F.	c #5B544E",
"G.	c #56575D",
"H.	c #565D68",
"I.	c #3B3C3C",
"J.	c #34383A",
"K.	c #363C3D",
"L.	c #393E40",
"M.	c #383C3D",
"N.	c #463D36",
"O.	c #6C563F",
"P.	c #47494A",
"Q.	c #474D51",
"R.	c #474D52",
"S.	c #484D51",
"T.	c #475054",
"U.	c #4C545A",
"V.	c #495055",
"W.	c #363A3B",
"X.	c #473F3A",
"Y.	c #55483B",
"Z.	c #67533E",
"`.	c #475052",
" +	c #464F51",
".+	c #3F4447",
"++	c #484C50",
"@+	c #645344",
"#+	c #69543E",
"$+	c #4B5256",
"%+	c #485155",
"&+	c #495156",
"*+	c #4A5256",
"=+	c #485154",
"-+	c #484E53",
";+	c #474E53",
">+	c #574C40",
",+	c #59473D",
"'+	c #475051",
")+	c #474E52",
"!+	c #404648",
"~+	c #444B4E",
"{+	c #454B50",
"]+	c #666658",
"^+	c #595D5D",
"/+	c #4C5259",
"(+	c #3C4243",
"_+	c #4A4238",
":+	c #5E4A3C",
"<+	c #575753",
"[+	c #D0B675",
"}+	c #5C5C54",
"|+	c #404548",
"1+	c #343639",
"2+	c #2F3335",
"3+	c #403C39",
"4+	c #454A4D",
"5+	c #BFAA79",
"6+	c #C6B283",
"7+	c #4D535B",
"8+	c #34383B",
"9+	c #35393A",
"0+	c #353838",
"a+	c #705840",
"b+	c #807155",
"c+	c #918264",
"d+	c #9C8F6C",
"e+	c #393E3F",
"f+	c #29282B",
"g+	c #41372F",
"h+	c #5D5144",
"i+	c #B3A277",
"j+	c #9E9169",
"k+	c #8A8267",
"l+	c #3C4043",
"m+	c #5A4B3B",
"n+	c #7C6749",
"o+	c #948360",
"p+	c #A89973",
"q+	c #363839",
"r+	c #2A292C",
"s+	c #4F4134",
"t+	c #948258",
"u+	c #827458",
"v+	c #A89567",
"w+	c #363A3D",
"x+	c #363A3E",
"y+	c #3C3E3E",
"z+	c #86724C",
"A+	c #79694C",
"B+	c #463A33",
"C+	c #29272B",
"D+	c #4D3F32",
"E+	c #6D5B41",
"F+	c #625743",
"G+	c #48423D",
"H+	c #3B3C3E",
"I+	c #474C51",
"J+	c #59493F",
"K+	c #3E3B39",
"L+	c #3A3F3F",
"M+	c #473830",
"N+	c #27282B",
"O+	c #4D3F33",
"P+	c #3C4244",
"Q+	c #544E49",
"R+	c #4E4641",
"S+	c #474E50",
"T+	c #5E493B",
"U+	c #3D3938",
"V+	c #42474A",
"W+	c #342E2A",
"X+	c #313133",
"Y+	c #414749",
"Z+	c #484A4A",
"`+	c #4E4743",
" @	c #44494A",
".@	c #3E3B3A",
"+@	c #33373A",
"@@	c #50413A",
"#@	c #4C4D4C",
"$@	c #464A4E",
"%@	c #4C4A49",
"&@	c #4A4B4C",
"*@	c #6E5740",
"=@	c #363938",
"-@	c #433E3B",
";@	c #5C4D40",
">@	c #6A5641",
",@	c #464D51",
"'@	c #3A3F40",
")@	c #383D40",
"!@	c #534B42",
"~@	c #423E3A",
"{@	c #66523E",
"]@	c #5A4F45",
"^@	c #4B4D50",
"/@	c #4B4D4E",
"(@	c #6B543E",
"_@	c #6B553E",
":@	c #635242",
"<@	c #5F5143",
"[@	c #69543F",
"                                                                ",
"                            .                                   ",
"                      + @ # $                                   ",
"                  % & * = - ;                                   ",
"                % > , ' ) !                 ~   ~ ~ ~ ~         ",
"          ~ ~ ~ { ] ^ / (                       ~ ~ ~ ~         ",
"          ~ ~ _ : < [ }                 ~ ~ ~   ~ ~ ~ ~         ",
"          ~ ~ | 1 2 3                   ~ ~ ~   ~ ~ ~ ~         ",
"          4 5 6 7 8 9                   ~ ~ ~         0         ",
"          a b c d e f g h i j k l               ~ ~ m n         ",
"        } o p q r s t u v w x y z A B C     ~ D E F G H         ",
"        I J K L M N O P Q R S T U V W X Y Z `  ...+.@.#.        ",
"        $.%.&.*.=.J -.;.0 >.,.'.).!.~.  #.{.].^./.(._.          ",
"        :.<.[.}.|.1.2.3.              4.5.6.7.8.9.r 0.          ",
"          a.b.c.d.1.e.f.            0 g.h.i.j.k.l.m.3           ",
"              n.o.p.w q.;       r.0 s.t.u.v.w.x.y.z.            ",
"              A.B.u.w C.D.E.F.G.H.f I.J.K.L.M.N.O.              ",
"              P.Q.R.S.x x 9.T./.U.V.W.^ X.Y.Z.                  ",
"            % R v x Q.J 1.h.h.`. +w .+++@+                      ",
"            #+$+..%+J -.1.&+*+=+T.-+;+x >+                      ",
"            ,+'+)+2.N !+~+{+x ]+^+/+t.(+_+        ~             ",
"            :+<+[+}+|+1+2+3+4+5+6+7+8+9+0+a+~ ~                 ",
"        ~   ~ b+c+d+e+f+g+  h+i+j+k+l+o.W.m+~ ~   ~ ~ ~         ",
"              n+o+p+q+r+s+  0 t+u+v+W.w+x+y+a.    ~ ~ ~         ",
"          ~ ~ 3 z+A+B+C+D+    ; E+F+o.G+H+I+J+~   ~ ~ ~         ",
"          ~ ~   K+L+M+N+O+        Y.P+Q+R+S+T+~                 ",
"                U+V+W+X+O.        D Y+Z+`+ @~ ~   ~             ",
"                .@%.+@@@            #@$@%@&@~ ~                 ",
"              *@=@-@;@            >@,@'@)@!@                    ",
"              $.~@{@            ]@^@/@(@_@                      ",
"                                :@<@[@                          ",
"                                                                "};
