/* XPM */
static char * noctali32_xpm[] = {
"32 32 304 2",
"  	c #735B42",
". 	c #65523F",
"+ 	c #5C5045",
"@ 	c #474A48",
"# 	c #584B41",
"$ 	c #6B553F",
"% 	c #715941",
"& 	c #474342",
"* 	c #404448",
"= 	c #74694C",
"- 	c #836C47",
"; 	c #725A41",
"> 	c #6B5540",
", 	c #716548",
"' 	c #BB9F5D",
") 	c #786848",
"! 	c #413831",
"~ 	c #604B3D",
"{ 	c #776143",
"] 	c #6D6145",
"^ 	c #343839",
"/ 	c #292D2D",
"( 	c #574636",
"_ 	c #574539",
": 	c #342F2F",
"< 	c #292B2E",
"[ 	c #2D2C2B",
"} 	c #5D493B",
"| 	c #5E493C",
"1 	c #443831",
"2 	c #28272B",
"3 	c #4E3F35",
"4 	c #715A41",
"5 	c #584C48",
"6 	c #55565B",
"7 	c #4D525B",
"8 	c #958660",
"9 	c #6B5942",
"0 	c #6E5840",
"a 	c #58524F",
"b 	c #695645",
"c 	c #826D51",
"d 	c #857456",
"e 	c #605346",
"f 	c #615345",
"g 	c #645241",
"h 	c #5D5247",
"i 	c #545A63",
"j 	c #50575F",
"k 	c #475154",
"l 	c #BCA879",
"m 	c #8C8165",
"n 	c #6F644F",
"o 	c #61574F",
"p 	c #555B66",
"q 	c #4F5054",
"r 	c #534843",
"s 	c #6F5840",
"t 	c #6B5744",
"u 	c #5E544F",
"v 	c #494C4E",
"w 	c #CBB37C",
"x 	c #A2916A",
"y 	c #474E51",
"z 	c #484E52",
"A 	c #474F52",
"B 	c #474D50",
"C 	c #454B4F",
"D 	c #464D50",
"E 	c #464E51",
"F 	c #726D5B",
"G 	c #A89468",
"H 	c #9F8B5F",
"I 	c #68533D",
"J 	c #695542",
"K 	c #545B65",
"L 	c #535B66",
"M 	c #4A5257",
"N 	c #767263",
"O 	c #B49F74",
"P 	c #786146",
"Q 	c #665340",
"R 	c #505155",
"S 	c #4C5258",
"T 	c #464E50",
"U 	c #C2AC78",
"V 	c #B7A16F",
"W 	c #474D4F",
"X 	c #464D4F",
"Y 	c #45494A",
"Z 	c #404446",
"` 	c #3B3F41",
" .	c #454B4E",
"..	c #7A6963",
"+.	c #564A48",
"@.	c #4F4D4C",
"#.	c #484F51",
"$.	c #514D4A",
"%.	c #4E5051",
"&.	c #4F575E",
"*.	c #4B5358",
"=.	c #65645D",
"-.	c #F0D391",
";.	c #AF9C6D",
">.	c #6A543E",
",.	c #5C4C3D",
"'.	c #776548",
").	c #9E8557",
"!.	c #5B4F40",
"~.	c #64513F",
"{.	c #504D4A",
"].	c #474F51",
"^.	c #A66A5B",
"/.	c #8F5B4B",
"(.	c #64443D",
"_.	c #3B4042",
":.	c #45403C",
"<.	c #5B4F42",
"[.	c #484E51",
"}.	c #A79A71",
"|.	c #EED28E",
"1.	c #BBA674",
"2.	c #4B5051",
"3.	c #685541",
"4.	c #5C544C",
"5.	c #495255",
"6.	c #484F52",
"7.	c #464C4F",
"8.	c #3A3E3E",
"9.	c #373B3B",
"0.	c #3E3C39",
"a.	c #6D5740",
"b.	c #705940",
"c.	c #7E6C51",
"d.	c #C0A973",
"e.	c #ECCE8C",
"f.	c #EDD18D",
"g.	c #A4946C",
"h.	c #495153",
"i.	c #494B4A",
"j.	c #5C554D",
"k.	c #485053",
"l.	c #3D4244",
"m.	c #36393B",
"n.	c #52463B",
"o.	c #6F5841",
"p.	c #766143",
"q.	c #B79B5F",
"r.	c #D7B972",
"s.	c #BFA668",
"t.	c #535252",
"u.	c #434A4C",
"v.	c #3E4346",
"w.	c #5C4C3C",
"x.	c #6E573F",
"y.	c #50504F",
"z.	c #42494A",
"A.	c #363A3C",
"B.	c #43403F",
"C.	c #6C563F",
"D.	c #463D36",
"E.	c #383C3D",
"F.	c #393E40",
"G.	c #363C3D",
"H.	c #34383A",
"I.	c #3B3C3C",
"J.	c #565D68",
"K.	c #56575D",
"L.	c #5B544E",
"M.	c #615346",
"N.	c #524E4B",
"O.	c #485052",
"P.	c #404649",
"Q.	c #4E4E4C",
"R.	c #67533E",
"S.	c #55483B",
"T.	c #473F3A",
"U.	c #363A3B",
"V.	c #495055",
"W.	c #4C545A",
"X.	c #475054",
"Y.	c #484D51",
"Z.	c #474D52",
"`.	c #474D51",
" +	c #47494A",
".+	c #645344",
"++	c #484C50",
"@+	c #3F4447",
"#+	c #464F51",
"$+	c #475052",
"%+	c #574C40",
"&+	c #474E53",
"*+	c #484E53",
"=+	c #485154",
"-+	c #4A5256",
";+	c #495156",
">+	c #485155",
",+	c #4B5256",
"'+	c #69543E",
")+	c #4A4238",
"!+	c #3C4243",
"~+	c #4C5259",
"{+	c #595D5D",
"]+	c #666658",
"^+	c #454B50",
"/+	c #444B4E",
"(+	c #404648",
"_+	c #474E52",
":+	c #475051",
"<+	c #59473D",
"[+	c #705840",
"}+	c #353838",
"|+	c #35393A",
"1+	c #34383B",
"2+	c #4D535B",
"3+	c #C6B283",
"4+	c #BFAA79",
"5+	c #454A4D",
"6+	c #403C39",
"7+	c #2F3335",
"8+	c #343639",
"9+	c #404548",
"0+	c #5C5C54",
"a+	c #D0B675",
"b+	c #585754",
"c+	c #4D4138",
"d+	c #3C4043",
"e+	c #8A8267",
"f+	c #9E9169",
"g+	c #B3A277",
"h+	c #5D5144",
"i+	c #41372F",
"j+	c #29282B",
"k+	c #393E3F",
"l+	c #9C8F6C",
"m+	c #918264",
"n+	c #847556",
"o+	c #3C3E3E",
"p+	c #363A3E",
"q+	c #363A3D",
"r+	c #A89567",
"s+	c #827458",
"t+	c #948258",
"u+	c #4F4134",
"v+	c #2A292C",
"w+	c #363839",
"x+	c #A89973",
"y+	c #948360",
"z+	c #7C6749",
"A+	c #59493F",
"B+	c #474C51",
"C+	c #3B3C3E",
"D+	c #48423D",
"E+	c #625743",
"F+	c #6D5B41",
"G+	c #4D3F32",
"H+	c #29272B",
"I+	c #463A33",
"J+	c #79694C",
"K+	c #86724C",
"L+	c #5E493B",
"M+	c #474E50",
"N+	c #4E4641",
"O+	c #544E49",
"P+	c #3C4244",
"Q+	c #4D3F33",
"R+	c #27282B",
"S+	c #473830",
"T+	c #3A3F3F",
"U+	c #3E3B39",
"V+	c #44494A",
"W+	c #4E4743",
"X+	c #484A4A",
"Y+	c #414749",
"Z+	c #313133",
"`+	c #342E2A",
" @	c #42474A",
".@	c #3D3938",
"+@	c #4A4B4C",
"@@	c #4C4A49",
"#@	c #464A4E",
"$@	c #4C4D4C",
"%@	c #50413A",
"&@	c #33373A",
"*@	c #3E3B3A",
"=@	c #534B42",
"-@	c #383D40",
";@	c #3A3F40",
">@	c #464D51",
",@	c #6A5641",
"'@	c #5C4D40",
")@	c #433E3B",
"!@	c #363938",
"~@	c #6E5740",
"{@	c #6B553E",
"]@	c #6B543E",
"^@	c #4B4D4E",
"/@	c #4B4D50",
"(@	c #5A4F45",
"_@	c #66523E",
":@	c #423E3A",
"<@	c #69543F",
"[@	c #5F5143",
"}@	c #635242",
"                                                                ",
"                                  .                             ",
"                                  + @ # $                       ",
"                                  % & * = - ;                   ",
"                                    > , ' ) ! ; ~ ~ ~ ~         ",
"          ~ ~ ~                       { ] ^ / ( ~ ~ ~ ~         ",
"          ~ ~ ~   ~                     _ : < [ } ~ ~ ~         ",
"          ~ ~ ~                         ~ | 1 2 3 ~ ~ ~         ",
"        4         ~ ~                   ~ 5 6 7 8 9 0           ",
"        a b ~ ~   ~ ~         c d e f g h i j k l m n           ",
"        o p q r s       t u v w x y z A B C D E F G H I         ",
"        J K L M N O P Q R S T U V W X Y Z `  ...+.@.#.$.        ",
"          %.&.*.=.-.;.J   >.,.'.).!.~.4 {.].#.^./.(._.:.        ",
"          <.E [.}.|.1.2.3.              4.5.6.7.8.9.0.a.        ",
"          b.c.d.e.f.g.h.i.4             j.k.6.l.m.n.o.          ",
"            p.q.r.s.t.u.v.w.4 x.      % y.z z.A.B.              ",
"              C.D.E.F.G.H.I.i J.K.L.M.N.O.z u.P.Q.              ",
"                  R.S.T.^ U.V.W.*.X.[.y y Y.Z.`. +              ",
"                      .+++@+z #+$+h.h.6.#.`.y A X ;             ",
"                      %+y &+*+X.=+-+;+6.].#.>+M ,+'+            ",
"            ~ ~ ~     )+!+v.~+{+]+y ^+/+(+ .5._+:+<+            ",
"            ~ ~ ~   [+}+|+1+2+3+4+5+6+7+8+9+0+a+b+%             ",
"        ~   ~ ~ ~   c+U.A.d+e+f+g+h+  i+j+k+l+m+n+~ ~ ~         ",
"                  o.o+p+q+U.r+s+t+4   u+v+w+x+y+z+~ ~ ~         ",
"          ~ ~   ~ A+B+C+D+A.E+F+%     G+H+I+J+K+b.~ ~ ~         ",
"          ~ ~   ~ L+M+N+O+P+S.        Q+R+S+T+U+                ",
"                ~ ~ V+W+X+Y+s         C.Z+`+ @.@  ~             ",
"                ~ ~ +@@@#@$@            %@&@_.*@                ",
"                    =@-@;@>@,@            '@)@!@~@              ",
"                      {@]@^@/@(@            _@:@:.              ",
"                          <@[@}@                                ",
"                                                                "};
