/* XPM */
static char * wall32_xpm[] = {
"32 32 6 1",
" 	c #8B9150",
".	c #353540",
"+	c #BFB8B4",
"@	c #EDE4DA",
"#	c #557D55",
"$	c #918D8D",
"                                ",
"                                ",
"                                ",
"          ...........           ",
"         ..+++++++@@..# ####    ",
"     ### .+++++++++@@.  ####    ",
"     ### .+++++++++++.# ####    ",
"     ### .+++++++++++.# ####    ",
"         .+++++++++++.#         ",
"      ## .+++++++++++.  ###     ",
"      ## .+++++++++++....##     ",
"         .++++++++++++@@..#     ",
"       ...$+++++++++$++@@.      ",
"      ..++$$$$$$$$$$$++++.      ",
"      .++++$$$$$$$$$$++++.      ",
"      .++++++.$$$$$$+++++.#     ",
"      .++++++.$$$$.++++++.#     ",
"      .++++++.$$$$.++++++.#     ",
"     #.$++++$.$$$$.$++++$.#     ",
"     #.$$$$$$++++++$$$$$$.#     ",
"     #.$$$$$$++++++$$$$$$.#     ",
"     #.$$$$$$+++++++$$$$$.#     ",
"    ##.$$$$$+++++++++.$$$.##    ",
"     #.$$$.++++++++++.$$..##    ",
"     #..$$.$++++++++$....###    ",
"     ##....$$$$$$$$$$.####      ",
"      ####..$$$$$$$$..## #      ",
"        ###..........###        ",
"          ############          ",
"                                ",
"                                ",
"                                "};
